<svg viewBox="0 0 558 350" fill="none" xmlns="http://www.w3.org/2000/svg">
<g clip-path="url(#clip0_659_16676)">
<path d="M484.28 115.311H419.586V88.1855H484.28L499.613 100.746C500.247 101.262 500.247 102.23 499.613 102.746L484.28 115.307V115.311Z" fill="#3A67B3"/>
<path d="M491.591 108.901H438.115C431.919 108.901 426.897 103.895 426.897 97.7189V88.1914H419.591V115.317H484.285L491.591 108.906V108.901Z" fill="#335B9E"/>
<path d="M432.617 347.927H399.616L399.69 336.168H400.642V269.066H400.67C400.652 268.688 400.638 268.31 400.679 267.909C401.447 260.571 407.171 255.261 409.923 253.104V174.436C408.369 173.326 406.663 171.708 406.348 169.684C406.33 169.574 406.39 169.477 406.39 169.357H406.279V126.762H406.381C406.381 126.688 406.339 126.628 406.348 126.541C406.533 125.347 407.204 124.301 408.031 123.434C408.614 122.803 409.28 122.254 409.923 121.802V72.81C407.574 71.653 406.02 69.7125 406.02 67.5092C406.02 63.9647 410.02 61.0977 414.953 61.0977C415.259 61.0977 415.568 61.1115 415.864 61.1345C416.169 61.1576 416.465 61.1852 416.752 61.2313H416.761C417.025 61.2682 417.284 61.3143 417.529 61.3788C417.654 61.4019 417.774 61.4295 417.894 61.4664C418.079 61.5171 418.264 61.5632 418.444 61.6139C418.62 61.6738 418.801 61.7337 418.967 61.7983C419.12 61.849 419.263 61.9089 419.406 61.9688C419.772 62.1163 420.114 62.2869 420.447 62.4666C420.59 62.5496 420.733 62.6372 420.867 62.7247C421.21 62.9414 421.524 63.1811 421.815 63.4346C421.838 63.4576 421.862 63.4761 421.885 63.4945C423.119 64.5869 423.873 65.9835 423.873 67.5138C423.873 69.5834 422.486 71.3995 420.368 72.5703V121.526C421.848 122.512 423.596 123.987 424.178 125.863C424.252 126.085 424.303 126.315 424.34 126.545C424.349 126.633 424.308 126.693 424.317 126.767H424.469V169.362H424.303C424.303 169.481 424.363 169.583 424.345 169.689C424.016 171.897 422.028 173.625 420.373 174.722V251.942L420.558 252.025C420.558 252.025 430.268 258.192 431.239 267.918C431.281 268.319 431.281 268.697 431.262 269.075H431.345V336.178H432.538L432.612 347.936L432.617 347.927Z" fill="#64BEFF"/>
<path d="M432.538 336.164H431.345V269.061H431.262C431.28 268.683 431.28 268.305 431.239 267.904C430.268 258.179 420.558 252.012 420.558 252.012L420.373 251.929V174.709C422.028 173.611 424.016 171.883 424.345 169.675C424.363 169.564 424.303 169.468 424.303 169.348H424.474V126.753H424.321C424.312 126.679 424.354 126.619 424.345 126.532C424.312 126.301 424.261 126.071 424.183 125.85C423.6 123.974 421.852 122.499 420.373 121.512V72.5566C422.495 71.3858 423.878 69.5698 423.878 67.5002C423.878 65.9745 423.124 64.5732 421.889 63.4808C421.866 63.4578 421.843 63.4393 421.82 63.4209C421.529 63.1674 421.214 62.9277 420.872 62.7111C420.738 62.6235 420.594 62.5405 420.451 62.453C420.123 62.2686 419.776 62.098 419.411 61.9551C419.267 61.8952 419.124 61.8353 418.972 61.7846C418.8 61.7247 418.625 61.6648 418.449 61.6002C418.273 61.5495 418.084 61.5034 417.899 61.4527C417.779 61.4159 417.663 61.3928 417.533 61.3652C417.288 61.3052 417.025 61.2545 416.766 61.2177H416.757C416.47 61.1669 416.174 61.1439 415.869 61.1209C415.573 61.0978 415.258 61.084 414.958 61.084C414.315 61.084 413.686 61.1347 413.081 61.2269C413.326 61.2637 413.571 61.3052 413.797 61.3652C413.922 61.3882 414.042 61.4159 414.163 61.4527C414.348 61.5034 414.533 61.5495 414.713 61.6002C414.889 61.6601 415.069 61.7201 415.235 61.7846C415.388 61.8353 415.531 61.8952 415.675 61.9551C416.04 62.1026 416.382 62.2732 416.715 62.453C416.858 62.5359 417.002 62.6235 417.136 62.7111C417.478 62.9277 417.792 63.1674 418.084 63.4209C418.107 63.444 418.13 63.4624 418.153 63.4808C419.388 64.5732 420.141 65.9699 420.141 67.5002C420.141 69.5698 418.754 71.3858 416.636 72.5566V121.512C418.116 122.499 419.864 123.974 420.447 125.85C420.521 126.071 420.571 126.301 420.608 126.532C420.618 126.619 420.576 126.679 420.585 126.753H420.738V169.348H420.571C420.571 169.468 420.631 169.569 420.613 169.675C420.285 171.883 418.296 173.611 416.641 174.709V251.929L416.826 252.012C416.826 252.012 426.536 258.179 427.507 267.904C427.549 268.305 427.549 268.683 427.53 269.061H427.614V336.164H428.807L428.881 347.922H432.612L432.538 336.164Z" fill="#49A7EB"/>
<path d="M341.479 163.452H406.173V136.326H341.479L328.102 147.283C326.456 148.633 326.456 151.145 328.102 152.491L341.479 163.447V163.452Z" fill="#3A67B3"/>
<path d="M397.331 136.326C397.331 148.181 387.69 157.787 375.802 157.787H334.566L341.479 163.447H406.172V136.326H397.331Z" fill="#335B9E"/>
<path d="M415.06 75.5001C431.838 75.5001 445.439 61.9419 445.439 45.2169C445.439 28.4919 431.838 14.9336 415.06 14.9336C398.282 14.9336 384.681 28.4919 384.681 45.2169C384.681 61.9419 398.282 75.5001 415.06 75.5001Z" fill="#3A67B3"/>
<path d="M434.223 64.3162C444.805 53.7679 444.805 36.6657 434.223 26.1174C423.641 15.5691 406.485 15.5691 395.903 26.1174C385.321 36.6657 385.321 53.7679 395.903 64.3162C406.485 74.8645 423.641 74.8645 434.223 64.3162Z" fill="white"/>
<path d="M411.176 62.3601C411.176 60.1569 412.965 58.373 415.176 58.373C417.386 58.373 419.175 60.1569 419.175 62.3601C419.175 64.5634 417.386 66.3472 415.176 66.3472C412.965 66.3472 411.176 64.5634 411.176 62.3601Z" fill="#87BFFF"/>
<path d="M424.433 58.3727C424.003 58.3727 423.582 58.1514 423.351 57.7504C423.254 57.5891 420.835 53.6343 415.18 53.6343C409.525 53.6343 406.825 57.4093 406.714 57.5706C406.325 58.1376 405.549 58.2897 404.98 57.9071C404.411 57.5245 404.254 56.7548 404.638 56.1832C404.776 55.9758 408.092 51.1406 415.18 51.1406C422.269 51.1406 425.39 56.28 425.515 56.5013C425.862 57.0959 425.658 57.861 425.062 58.2067C424.863 58.322 424.65 58.3727 424.437 58.3727H424.433Z" fill="#87BFFF"/>
<path d="M429.186 52.5918C428.756 52.5918 428.335 52.3705 428.104 51.9695C427.947 51.7068 424.155 45.4565 415.245 45.4565C406.335 45.4565 402.136 51.4118 401.965 51.6653C401.577 52.2369 400.804 52.3844 400.231 52.0018C399.658 51.6192 399.505 50.8494 399.889 50.2779C400.088 49.9783 404.901 42.9629 415.25 42.9629C425.598 42.9629 430.092 50.407 430.273 50.7204C430.62 51.315 430.416 52.0801 429.82 52.4258C429.621 52.5411 429.408 52.5918 429.195 52.5918H429.186Z" fill="#87BFFF"/>
<path d="M432.686 46.9919C432.256 46.9919 431.835 46.7707 431.604 46.3697C431.405 46.0332 426.601 38.0867 415.291 38.0867C403.981 38.0867 398.682 45.6506 398.46 45.9732C398.076 46.5448 397.299 46.6969 396.726 46.3143C396.152 45.9318 396 45.162 396.379 44.5905C396.624 44.2217 402.538 35.5977 415.286 35.5977C428.035 35.5977 433.542 44.738 433.768 45.1251C434.115 45.7197 433.912 46.4849 433.31 46.8306C433.112 46.9458 432.899 46.9965 432.686 46.9965V46.9919Z" fill="#87BFFF"/>
<path d="M437.19 41.6452C436.76 41.6452 436.339 41.4239 436.108 41.0229C435.858 40.5942 429.75 30.4676 415.351 30.4676C400.952 30.4676 394.03 40.4053 393.961 40.5067C393.577 41.0782 392.8 41.2303 392.227 40.8478C391.653 40.4652 391.501 39.6954 391.88 39.1239C392.185 38.6675 399.519 27.9785 415.351 27.9785C431.184 27.9785 437.995 39.299 438.272 39.7784C438.619 40.373 438.415 41.1381 437.819 41.4838C437.62 41.5991 437.407 41.6498 437.195 41.6498L437.19 41.6452Z" fill="#87BFFF"/>
<path d="M415.06 15.709C398.737 15.709 385.462 28.947 385.462 45.2133C385.462 61.4796 398.742 74.7176 415.06 74.7176C431.378 74.7176 444.658 61.4796 444.658 45.2133C444.658 28.947 431.378 15.709 415.06 15.709ZM387.496 45.2133C387.496 30.0624 399.861 17.7371 415.06 17.7371C420.978 17.7371 426.472 19.6085 430.966 22.7889L397.521 66.3931C391.404 61.3505 387.496 53.7267 387.496 45.2133ZM415.06 72.6895C409.132 72.6895 403.639 70.8135 399.14 67.6284L432.585 24.0196C438.711 29.0622 442.623 36.6906 442.623 45.2087C442.623 60.3595 430.259 72.6849 415.06 72.6849V72.6895Z" fill="#3A67B3"/>
<path d="M434.578 100.856C434.578 99.3904 435.771 98.2012 437.241 98.2012C438.711 98.2012 439.904 99.3904 439.904 100.856C439.904 102.322 438.711 103.511 437.241 103.511C435.771 103.511 434.578 102.322 434.578 100.856Z" fill="#C0DAF0"/>
<path d="M445.439 100.856C445.439 99.3904 446.632 98.2012 448.103 98.2012C449.573 98.2012 450.766 99.3904 450.766 100.856C450.766 102.322 449.573 103.511 448.103 103.511C446.632 103.511 445.439 102.322 445.439 100.856Z" fill="#C0DAF0"/>
<path d="M456.301 100.856C456.301 99.3904 457.494 98.2012 458.964 98.2012C460.435 98.2012 461.628 99.3904 461.628 100.856C461.628 102.322 460.435 103.511 458.964 103.511C457.494 103.511 456.301 102.322 456.301 100.856Z" fill="#C0DAF0"/>
<path d="M467.163 100.856C467.163 99.3904 468.356 98.2012 469.826 98.2012C471.296 98.2012 472.489 99.3904 472.489 100.856C472.489 102.322 471.296 103.511 469.826 103.511C468.356 103.511 467.163 102.322 467.163 100.856Z" fill="#C0DAF0"/>
<path d="M478.024 100.856C478.024 99.3904 479.217 98.2012 480.688 98.2012C482.158 98.2012 483.351 99.3904 483.351 100.856C483.351 102.322 482.158 103.511 480.688 103.511C479.217 103.511 478.024 102.322 478.024 100.856Z" fill="#C0DAF0"/>
<path d="M341.16 149.194C341.16 147.728 342.353 146.539 343.823 146.539C345.293 146.539 346.486 147.728 346.486 149.194C346.486 150.66 345.293 151.849 343.823 151.849C342.353 151.849 341.16 150.66 341.16 149.194Z" fill="#C0DAF0"/>
<path d="M352.021 149.194C352.021 147.728 353.214 146.539 354.685 146.539C356.155 146.539 357.348 147.728 357.348 149.194C357.348 150.66 356.155 151.849 354.685 151.849C353.214 151.849 352.021 150.66 352.021 149.194Z" fill="#C0DAF0"/>
<path d="M362.883 149.194C362.883 147.728 364.076 146.539 365.546 146.539C367.017 146.539 368.21 147.728 368.21 149.194C368.21 150.66 367.017 151.849 365.546 151.849C364.076 151.849 362.883 150.66 362.883 149.194Z" fill="#C0DAF0"/>
<path d="M373.745 149.194C373.745 147.728 374.938 146.539 376.408 146.539C377.878 146.539 379.071 147.728 379.071 149.194C379.071 150.66 377.878 151.849 376.408 151.849C374.938 151.849 373.745 150.66 373.745 149.194Z" fill="#C0DAF0"/>
<path d="M384.606 149.194C384.606 147.728 385.799 146.539 387.27 146.539C388.74 146.539 389.933 147.728 389.933 149.194C389.933 150.66 388.74 151.849 387.27 151.849C385.799 151.849 384.606 150.66 384.606 149.194Z" fill="#C0DAF0"/>
<path d="M207.195 88.3431C197.295 85.7757 187.104 89.689 178.133 93.6715C183.405 82.3832 195.321 77.0364 206.358 73.962C177.357 74.1833 170.097 105.877 162.185 127.988C162.495 120.295 162.403 105.647 157.104 101.968C173.565 139.945 138.899 149.656 111.521 163.199C111.613 145.457 120.547 132.067 137.618 126.872C128.759 127.144 120.329 134.63 114.609 141.286C117.319 114.045 115.761 83.9919 152.489 85.4991C147.236 81.6319 133.702 87.3659 127.103 91.0764C137.886 72.8926 156.331 60.0326 176.312 54.9347C167.706 55.3495 158.431 60.028 150.82 64.5267C153.566 58.6821 159.712 45.5501 157.321 41.2266C156.183 55.3818 149.469 66.8913 137.873 74.8055C129.425 83.0746 122.729 93.0492 117.795 103.752C118.392 90.9289 118.494 77.4513 117.689 64.6281C117.43 63.5219 116.963 45.0293 115.442 47.9377C116.103 57.1149 116.584 67.1402 116.38 76.3128C112.034 68.523 106.943 58.4286 98.7309 54.7688C106.236 61.125 112.459 70.0395 116.334 79.4609C116.112 92.5238 115.063 106.398 113.551 119.387C106.402 115.801 99.836 110.984 94.3381 105.158C92.2111 96.0868 92.7567 85.8955 97.9032 78.1565C91.6886 84.1394 91.4712 94.7547 92.3729 103.015C80.7021 90.2375 74.8111 72.948 71.5836 56.6494C70.8345 62.4986 73.4979 69.491 74.9776 75.4508C70.9224 70.2976 63.3854 63.5864 57.3326 64.1257C83.1389 70.9475 78.945 108.301 113.134 123.07C111.336 137.958 108.917 152.763 105.884 167.448C105.681 167.651 105.482 167.859 105.288 168.075C102.675 153.339 83.7539 145.208 89.1176 128.698C85.4416 129.173 88.0911 143.153 90.195 146.54C81.9274 141.853 70.4878 143.563 65.3136 133.975C56.2968 116.091 46.975 93.4226 54.942 73.5886C50.5909 79.802 50.9793 90.9935 51.8347 99.0874C49.2962 91.4406 39.0356 79.3227 31.9656 81.9684C56.3801 87.4996 51.6868 119.235 63.9587 135.957C58.6134 133.404 52.6994 132.141 46.7993 131.874C45.8652 131.998 39.9558 131.224 41.1257 132.496C51.044 132.427 61.9751 134.224 69.1838 141.507C86.6577 148.96 98.6707 149.435 102.615 171.975C101.584 174.067 101.131 176.506 101.265 178.82C87.7212 169.739 65.2396 177.57 66.9319 154.422C65.591 152.648 66.0904 158.649 66.1135 159.437C66.4695 164.577 69.3826 169.43 73.78 172.15C47.8443 178.538 22.8611 177.275 17.7007 146.218C17.0765 156.944 24.4471 169.062 34.3331 174.173C28.826 174.298 15.4581 175.109 14.1865 179.46C27.0319 171.514 41.2089 178.534 54.8079 178.018C62.9646 176.404 76.6376 178.349 87.097 180.424C95.5727 182.106 101.81 189.324 102.259 197.93L98.8973 347.927H118.332L111.701 211.126C111.146 199.663 120.357 190.103 131.871 190.14C140.12 190.168 147.754 192.108 152.614 200.064C151.375 192.929 141.498 189.993 135.043 188.66C160.701 182.318 179.909 157.46 208.564 161.152C200.911 156.907 184.625 162.203 175.132 165.748C180.533 160.654 190.23 149.242 187.451 143.263C185.125 160.06 168.848 168.504 155.578 176.109C142.168 184.475 125.772 186.536 110.207 186.13C110.078 184.609 109.519 179.479 109.412 178.054C109.879 169.472 121.841 166.54 128.222 162.581C139.385 163.046 152.974 162.65 161.973 155.948C152.669 159.732 141.808 162.083 131.316 161.014C164.511 146.375 167.193 126.877 176.987 95.9485C186.091 91.4083 196.625 86.7759 206.968 89.1221C207.472 89.288 207.727 88.4814 207.209 88.3385L207.195 88.3431Z" fill="#C0DAF0"/>
<path d="M108.922 344.804C107.988 346.468 106.337 347.588 104.747 348.649H50.2717C48.0384 348.243 46.124 346.316 44.1496 345.182C42.1891 344.053 40.5753 342.053 40.5476 339.789C40.5198 336.922 43.4699 334.41 46.309 334.894C47.3309 335.074 48.3435 335.558 49.3469 335.314C51.0162 334.894 51.5433 332.714 51.1179 331.046C50.6925 329.391 49.6706 327.907 49.4209 326.22C48.9539 322.975 52.0889 319.734 55.3581 320.08C58.2342 320.389 60.3427 322.85 61.9703 325.242C62.835 326.528 63.9494 328.003 65.4938 327.93C66.7099 327.861 67.6717 326.791 68.0369 325.634C68.4069 324.477 68.3329 323.242 68.3375 322.016C68.3837 318.577 69.2346 315.139 70.8113 312.064C72.0459 309.668 73.9695 307.326 76.6375 306.874C79.5413 306.395 82.4359 308.455 83.6335 311.133C84.8404 313.811 84.6416 316.913 83.9295 319.753C83.4023 321.845 82.681 324.293 84.0451 325.961C84.3549 326.349 84.7525 326.648 85.1826 326.883C86.8703 327.796 89.1129 327.542 90.5648 326.284C91.2353 325.703 91.7301 324.943 92.4098 324.376C94.1114 322.965 96.8164 323.099 98.5134 324.5C100.21 325.902 100.872 328.344 100.321 330.474C100.012 331.691 99.3503 332.788 98.9619 333.982C98.5643 335.176 98.481 336.586 99.2255 337.591C101.131 340.167 105.755 337.637 108.298 339.591C109.805 340.753 109.856 343.145 108.922 344.809V344.804Z" fill="#FF984F"/>
<path d="M78.0481 311.129C79.2549 313.807 79.0561 316.909 78.344 319.749C77.8169 321.841 77.0955 324.289 78.4596 325.958C78.7694 326.345 79.1671 326.644 79.5971 326.879C81.16 327.723 83.1945 327.557 84.6418 326.529C84.4245 326.363 84.2211 326.179 84.05 325.958C82.6859 324.289 83.4072 321.841 83.9344 319.749C84.6511 316.909 84.8499 313.807 83.6384 311.129C82.4455 308.451 79.5509 306.391 76.6424 306.87C75.9627 306.986 75.3292 307.225 74.7466 307.553C76.18 308.327 77.3822 309.631 78.0481 311.129Z" fill="#F0863C"/>
<path d="M43.7566 335.31C44.0202 335.245 44.2514 335.13 44.4595 334.982C44.1173 335.07 43.7844 335.194 43.4653 335.356C43.5624 335.347 43.6595 335.333 43.7613 335.31H43.7566Z" fill="#F0863C"/>
<path d="M56.3798 325.238C57.2445 326.524 58.3589 327.999 59.9033 327.925C61.05 327.861 61.9655 326.902 62.3725 325.824C62.2291 325.63 62.095 325.432 61.9655 325.238C60.3425 322.846 58.2294 320.385 55.3533 320.076C54.2158 319.956 53.0968 320.274 52.1396 320.873C53.8551 321.85 55.2377 323.56 56.3752 325.238H56.3798Z" fill="#F0863C"/>
<path d="M108.303 339.586C105.759 337.632 101.135 340.163 99.2303 337.586C98.4859 336.581 98.5691 335.171 98.9668 333.977C99.3505 332.788 100.016 331.686 100.326 330.469C100.876 328.335 100.211 325.897 98.5182 324.496C96.8767 323.14 94.2966 322.979 92.5903 324.242C92.7059 324.32 92.8215 324.408 92.9279 324.496C94.6249 325.897 95.2861 328.34 94.7358 330.469C94.426 331.686 93.7648 332.783 93.3764 333.977C92.9787 335.171 92.8955 336.581 93.64 337.586C95.545 340.163 100.169 337.632 102.712 339.586C104.22 340.748 104.266 343.14 103.336 344.804C102.402 346.468 100.752 347.588 99.161 348.648H104.751C106.342 347.588 107.993 346.468 108.927 344.804C109.861 343.14 109.81 340.753 108.303 339.586Z" fill="#F0863C"/>
<path d="M82.5607 327.363C82.3619 328.783 81.5434 330.078 80.3505 330.875C79.0743 331.728 77.2848 332.051 76.4895 333.489C76.4663 333.53 76.434 333.553 76.4016 333.567C76.0224 335.102 75.6479 336.637 75.3242 338.176C74.6075 341.574 74.1359 345.173 74.5289 348.649H74.1405C74.0295 347.676 73.9833 346.69 73.9925 345.708C74.0064 344.044 74.1821 342.399 74.4411 340.772C74.3671 340.772 74.2931 340.73 74.2746 340.629C74.122 339.767 73.5209 339.103 72.9244 338.494C72.2308 337.78 71.5326 337.07 70.8344 336.356C69.6044 335.088 68.3467 333.618 68.3467 331.751C68.3467 331.498 68.7397 331.498 68.7397 331.751C68.7397 333.673 70.1824 335.12 71.4401 336.406C72.1106 337.093 72.8042 337.771 73.4608 338.476C73.9139 338.965 74.3393 339.499 74.552 340.126C75.1948 336.434 76.2629 332.802 77.0397 329.138C77.5345 326.801 77.9136 324.372 77.9784 321.952C77.9645 321.942 77.946 321.938 77.9321 321.924C76.8085 320.841 75.5554 319.546 75.6803 317.854C75.6988 317.605 76.0918 317.6 76.0733 317.854C75.9623 319.324 76.9935 320.458 77.983 321.422C78.0015 318.614 77.5807 315.835 76.4062 313.235C76.3045 313.01 76.642 312.807 76.7484 313.037C77.3218 314.3 77.7148 315.623 77.9784 316.969C78.6766 316.13 79.139 315.125 79.3147 314.047C79.3563 313.798 79.7355 313.904 79.6939 314.148C79.4858 315.383 78.917 316.54 78.0662 317.462C78.2974 318.822 78.3899 320.214 78.376 321.601C78.3344 325.363 77.5114 329.013 76.6236 332.65C77.4605 331.756 78.7182 331.359 79.7771 330.76C81.0857 330.018 81.9735 328.737 82.1815 327.248C82.2185 326.999 82.5977 327.105 82.5607 327.349V327.363Z" fill="#FFCEAB"/>
<path d="M65.5029 348.649H65.1052C65.1422 347.778 65.1329 346.902 65.0775 346.035C65.0636 345.819 65.0451 345.602 65.0266 345.381C64.9988 345.431 64.948 345.468 64.8694 345.459C62.1875 345.183 59.6674 343.864 57.9381 341.804C57.7762 341.615 58.0537 341.334 58.2155 341.527C59.8801 343.505 62.2938 344.8 64.8694 345.067C64.9295 345.077 64.9757 345.104 65.0035 345.141C64.8185 343.307 64.3977 341.491 63.6671 339.799C63.0105 338.273 62.1181 336.854 61.1378 335.512C61.1055 335.526 61.0731 335.526 61.0361 335.512C58.886 334.89 56.0839 335.826 54.3961 333.959C54.2297 333.77 54.5071 333.493 54.6736 333.682C55.3857 334.466 56.4538 334.733 57.4757 334.816C58.5854 334.899 59.7044 334.816 60.8003 335.051C60.7402 334.978 60.6847 334.899 60.6246 334.821C59.4177 333.244 58.1092 331.756 56.8607 330.211C56.2503 329.446 55.6492 328.672 55.0897 327.87C54.5025 327.026 53.98 326.137 53.6702 325.15C53.5962 324.911 53.9753 324.805 54.0493 325.049C54.4054 326.188 55.0758 327.188 55.7741 328.151C56.2226 328.773 56.6942 329.368 57.1705 329.963C57.9982 328.681 58.1646 327.026 57.5543 325.616C57.4572 325.386 57.7947 325.183 57.8965 325.418C58.5762 326.999 58.4143 328.866 57.4341 330.29C57.5774 330.47 57.7207 330.645 57.8687 330.825C59.8801 333.258 62.0071 335.674 63.4683 338.476C63.7827 337.637 64.4393 336.964 64.8093 336.144C65.3826 334.872 64.8971 333.461 64.4671 332.226C64.3839 331.986 64.763 331.88 64.8463 332.12C65.2809 333.373 65.7387 334.779 65.2532 336.088C64.8694 337.121 63.9492 337.9 63.7226 338.997C63.977 339.518 64.2081 340.052 64.407 340.606C65.3364 343.191 65.6 345.92 65.5029 348.649Z" fill="#FFCEAB"/>
<path d="M56.1117 348.649H55.7048C55.4736 347.548 55.0482 346.492 54.3731 345.584C54.2436 345.404 54.0956 345.243 53.9477 345.077C53.9153 345.091 53.8783 345.091 53.8413 345.086C53.1107 344.916 52.4634 345.487 51.8114 345.718C51.1548 345.948 50.4381 345.884 49.8138 345.589C49.5827 345.483 49.7861 345.142 50.0127 345.252C50.6739 345.566 51.3906 345.51 52.038 345.197C52.5327 344.957 53.0275 344.681 53.5685 344.676C53.009 344.109 52.3755 343.611 51.7143 343.173C50.623 342.441 49.4486 341.841 48.3018 341.201C47.7238 340.878 47.1366 340.56 46.6002 340.177C46.184 339.887 45.8003 339.523 45.6985 339.011C45.6477 338.767 46.0268 338.661 46.0777 338.91C46.2164 339.574 46.91 339.933 47.4418 340.251C48.1122 340.657 48.8012 341.025 49.4902 341.403C49.541 341.436 49.5919 341.463 49.6474 341.491C49.7722 340.689 49.6751 339.869 49.3884 339.108C49.3006 338.873 49.6844 338.767 49.7676 339.002C50.082 339.841 50.1606 340.74 50.0219 341.62C50.0219 341.643 50.0081 341.662 49.9896 341.685C51.9732 342.791 53.98 344.049 55.1453 346.05C55.6262 346.875 55.9267 347.75 56.107 348.658L56.1117 348.649Z" fill="#FFCEAB"/>
<path d="M97.732 331.06C97.584 331.609 97.0014 331.862 96.5159 332.051C95.9287 332.277 95.2952 332.397 94.6709 332.415C94.6617 332.415 94.6571 332.415 94.6478 332.415C94.4351 332.683 94.2178 332.932 93.9958 333.185C92.8306 334.494 91.6607 335.771 90.6758 337.227C89.7326 338.619 88.9234 340.104 88.2621 341.648C87.7951 342.736 87.4067 343.856 87.0877 344.994C88.3777 344.34 89.8112 344.017 91.1197 343.39C92.4006 342.782 93.6722 341.735 93.8063 340.228C93.8294 339.975 94.2224 339.975 94.2039 340.228C94.0652 341.754 92.9277 342.892 91.6284 343.575C90.1256 344.367 88.4194 344.667 86.9489 345.51C86.6807 346.538 86.4819 347.589 86.3432 348.64H85.9409C86.0611 347.714 86.2322 346.792 86.4449 345.884C86.8842 344.04 87.5269 342.242 88.3408 340.528C88.3408 340.514 88.3269 340.509 88.3269 340.495C87.8044 338.615 86.4172 336.633 87.3928 334.66C87.5038 334.434 87.846 334.632 87.735 334.858C86.8935 336.554 88.0309 338.375 88.5904 340.016C89.1592 338.882 89.8019 337.794 90.5233 336.753C90.9672 336.117 91.4434 335.494 91.9428 334.895C91.2955 333.42 91.0966 331.802 91.3694 330.212C91.4111 329.963 91.7948 330.069 91.7486 330.313C91.4989 331.738 91.67 333.222 92.2295 334.559C92.752 333.95 93.3069 333.365 93.8386 332.756C94.9946 331.443 96.0812 329.903 96.1552 328.096C96.1645 327.843 96.5621 327.843 96.5483 328.096C96.4882 329.562 95.8223 330.844 94.9622 331.996C95.4061 331.954 95.8454 331.867 96.2662 331.719C96.6454 331.581 97.2326 331.387 97.3528 330.95C97.4176 330.705 97.7967 330.807 97.732 331.051V331.06Z" fill="#FFCEAB"/>
<path d="M105.583 343.404C104.64 343.487 103.706 343.713 102.818 344.058C102.777 344.109 102.717 344.132 102.652 344.127C102.481 344.196 102.3 344.266 102.129 344.344C101.362 344.708 100.645 345.169 99.9838 345.704C101.205 345.801 102.384 346.128 103.48 346.667C103.706 346.782 103.507 347.119 103.281 347.008C102.152 346.455 100.922 346.132 99.6694 346.072C99.6324 346.072 99.6 346.059 99.5769 346.045C98.7539 346.782 98.0464 347.649 97.5054 348.617C97.5054 348.631 97.4915 348.635 97.4915 348.649H97.0522C97.2326 348.299 97.4314 347.962 97.658 347.63C98.2637 346.755 98.9943 345.971 99.8312 345.317C100.636 344.68 101.533 344.16 102.476 343.772C102.499 342.915 102.661 342.058 102.957 341.251C103.045 341.016 103.424 341.122 103.336 341.357C103.068 342.085 102.915 342.851 102.874 343.62C103.743 343.302 104.654 343.095 105.583 343.012C105.838 342.993 105.838 343.385 105.583 343.404Z" fill="#FFCEAB"/>
<path d="M319.298 282.325C319.293 282.252 319.228 282.192 319.15 282.196C319.071 282.196 319.011 282.265 319.016 282.344C319.177 286.686 319.214 291.037 319.016 295.37C318.812 299.703 318.373 304.026 317.531 308.267L317.379 309.059L317.194 309.848L316.819 311.419C316.519 312.452 316.25 313.498 315.89 314.508C315.201 316.54 314.368 318.522 313.296 320.357C313.014 320.804 312.764 321.274 312.445 321.698L311.992 322.348C311.835 322.56 311.663 322.763 311.502 322.966C311.187 323.39 310.817 323.759 310.466 324.15C310.087 324.51 309.726 324.888 309.315 325.206C308.519 325.87 307.65 326.437 306.72 326.851C306.452 326.976 306.179 327.082 305.902 327.179C306.573 325.805 307.164 324.399 307.692 322.98C309.587 317.803 310.697 312.433 311.465 307.059C312.2 301.671 312.57 296.259 312.704 290.848C312.838 285.437 312.732 280.03 312.487 274.632C312.477 274.48 312.352 274.36 312.2 274.36C312.043 274.36 311.918 274.49 311.918 274.651C311.992 280.044 311.927 285.432 311.627 290.807C311.34 295.941 310.831 301.058 310.008 306.114C309.916 306.114 309.819 306.105 309.731 306.086C309.481 306.031 309.245 305.921 309.028 305.759C308.806 305.602 308.616 305.386 308.436 305.16C308.265 304.92 308.103 304.667 307.969 304.39C307.423 303.293 307.114 302.039 306.878 300.79C306.42 298.274 306.277 295.683 306.212 293.107C306.156 290.525 306.216 287.935 306.337 285.349C306.462 282.763 306.642 280.177 306.901 277.601C306.91 277.522 306.855 277.453 306.776 277.449C306.697 277.439 306.628 277.495 306.619 277.569C306.304 280.145 306.069 282.731 305.893 285.321C305.717 287.912 305.606 290.507 305.606 293.111C305.615 295.711 305.708 298.324 306.119 300.919C306.341 302.215 306.623 303.519 307.206 304.759C307.502 305.377 307.886 305.99 308.487 306.46C308.787 306.69 309.143 306.87 309.532 306.962C309.638 306.985 309.749 306.999 309.856 307.008C308.94 312.217 307.682 317.37 305.731 322.224C304.732 324.671 303.558 327.04 302.101 329.179C301.38 330.253 300.566 331.249 299.683 332.148C299.415 332.41 299.137 332.668 298.86 332.913L298.199 298.924C298.416 298.864 298.629 298.795 298.832 298.698C299.285 298.495 299.697 298.209 300.053 297.882C300.765 297.218 301.287 296.402 301.671 295.55C302.434 293.835 302.744 291.996 302.901 290.175C303.054 288.35 303.035 286.524 302.924 284.708C302.813 282.892 302.605 281.085 302.355 279.288C302.346 279.214 302.277 279.159 302.198 279.168C302.12 279.177 302.069 279.246 302.078 279.325C302.291 281.122 302.453 282.925 302.527 284.731C302.596 286.534 302.577 288.345 302.388 290.129C302.194 291.908 301.847 293.692 301.093 295.287C300.719 296.08 300.219 296.808 299.586 297.37C299.271 297.651 298.915 297.882 298.536 298.043C298.42 298.094 298.3 298.135 298.18 298.168L297.722 274.646C297.722 274.453 297.56 274.296 297.366 274.291C297.167 274.291 297.001 274.448 296.996 274.646L296.28 311.539C296.122 311.47 295.97 311.392 295.826 311.29C295.346 310.982 294.925 310.557 294.564 310.083C293.838 309.129 293.343 307.976 292.964 306.796C292.224 304.418 291.938 301.887 291.799 299.371C291.67 296.845 291.725 294.31 291.878 291.774C292.035 289.244 292.289 286.713 292.594 284.192C292.604 284.118 292.553 284.045 292.474 284.035C292.395 284.026 292.326 284.077 292.317 284.155C291.956 286.677 291.642 289.202 291.429 291.742C291.221 294.282 291.105 296.836 291.179 299.394C291.267 301.947 291.494 304.524 292.211 307.027C292.4 307.649 292.608 308.271 292.881 308.87C293.14 309.474 293.473 310.055 293.866 310.604C294.259 311.147 294.735 311.655 295.322 312.051C295.609 312.254 295.928 312.415 296.266 312.54L296.067 322.809C295.461 322.74 294.865 322.615 294.291 322.422C293.316 322.095 292.4 321.578 291.586 320.91C289.945 319.578 288.719 317.688 287.781 315.665C286.837 313.632 286.19 311.438 285.677 309.216C285.177 306.985 284.826 304.708 284.576 302.417C284.479 301.514 284.401 300.606 284.331 299.698C284.331 299.698 284.331 299.698 284.336 299.698C284.387 299.698 284.433 299.698 284.484 299.698C284.581 299.698 284.669 299.679 284.761 299.666C284.942 299.629 285.113 299.578 285.275 299.509C285.598 299.375 285.885 299.182 286.135 298.96C286.639 298.523 287.018 297.988 287.332 297.439C287.499 297.167 287.624 296.877 287.762 296.596C287.878 296.305 288.012 296.02 288.109 295.725C288.215 295.43 288.317 295.139 288.4 294.84C288.493 294.545 288.576 294.245 288.645 293.945C288.941 292.747 289.159 291.539 289.307 290.323C289.395 289.714 289.436 289.106 289.506 288.497C289.547 287.889 289.603 287.28 289.635 286.667C289.903 281.786 289.686 276.909 289.339 272.051C289.334 271.977 289.265 271.918 289.191 271.922C289.112 271.927 289.057 271.991 289.062 272.07C289.196 274.499 289.302 276.928 289.33 279.357C289.348 281.786 289.307 284.215 289.136 286.635C289.094 287.239 289.034 287.843 288.983 288.447C288.909 289.046 288.854 289.65 288.756 290.249C288.595 291.447 288.359 292.632 288.054 293.793C287.98 294.084 287.896 294.37 287.804 294.655C287.721 294.941 287.614 295.222 287.513 295.499C287.415 295.78 287.286 296.047 287.17 296.319C287.036 296.582 286.916 296.854 286.759 297.098C286.463 297.601 286.116 298.066 285.691 298.426C285.483 298.606 285.251 298.753 285.011 298.85C284.891 298.901 284.771 298.933 284.65 298.956C284.59 298.96 284.53 298.974 284.475 298.974C284.424 298.979 284.35 298.97 284.336 298.97H284.29C284.054 295.513 284.012 292.033 284.086 288.562C284.193 283.929 284.498 279.288 285.043 274.688V274.678C285.062 274.522 284.951 274.379 284.798 274.356C284.636 274.333 284.489 274.443 284.465 274.6C283.776 279.219 283.333 283.86 283.083 288.52C282.842 293.18 282.81 297.863 283.166 302.542C283.346 304.883 283.633 307.22 284.082 309.543C284.132 309.792 284.183 310.041 284.234 310.29C283.924 310.175 283.628 309.986 283.351 309.774C282.773 309.318 282.283 308.7 281.871 308.027C281.044 306.676 280.521 305.105 280.114 303.519C279.712 301.924 279.435 300.293 279.25 298.642C279.139 297.822 279.088 296.988 279.009 296.163C278.958 295.333 278.903 294.503 278.87 293.669C278.741 290.341 278.801 286.999 278.958 283.662C279.129 280.325 279.407 276.992 279.73 273.664C279.74 273.591 279.684 273.522 279.61 273.512C279.532 273.503 279.462 273.558 279.453 273.632C279.046 276.956 278.685 280.288 278.431 283.63C278.191 286.976 278.047 290.327 278.094 293.692C278.107 294.531 278.14 295.374 278.172 296.213C278.232 297.052 278.26 297.896 278.353 298.735C278.496 300.417 278.741 302.095 279.115 303.759C279.499 305.418 279.999 307.077 280.882 308.617C281.326 309.382 281.867 310.12 282.588 310.723C282.953 311.018 283.356 311.29 283.818 311.47C283.934 311.516 284.054 311.553 284.174 311.595C284.294 311.627 284.419 311.659 284.544 311.682H284.558C284.951 313.282 285.441 314.867 286.098 316.407C286.569 317.518 287.129 318.605 287.809 319.638C288.488 320.67 289.297 321.643 290.264 322.477C291.226 323.312 292.354 324.003 293.575 324.455C294.37 324.75 295.198 324.939 296.03 325.045L295.591 347.672C295.591 347.672 295.591 347.718 295.591 347.741C295.609 348.723 296.423 349.502 297.408 349.483C298.393 349.465 299.174 348.654 299.156 347.672L298.929 336.065C298.929 336.065 298.948 336.052 298.961 336.047C299.128 335.941 299.281 335.83 299.433 335.72C299.59 335.609 299.738 335.494 299.877 335.374C300.464 334.909 300.982 334.392 301.482 333.871C302.462 332.811 303.326 331.673 304.076 330.484C304.39 329.99 304.686 329.488 304.968 328.986C305.218 328.935 305.463 328.875 305.708 328.81C306.272 328.635 306.827 328.437 307.349 328.174C308.399 327.672 309.356 327.008 310.216 326.261C310.66 325.897 311.044 325.483 311.446 325.077C311.816 324.648 312.205 324.233 312.533 323.777C312.699 323.551 312.88 323.33 313.037 323.104L313.499 322.403C313.823 321.943 314.077 321.445 314.359 320.965C315.437 319.011 316.25 316.941 316.902 314.84C317.249 313.793 317.499 312.719 317.776 311.659L318.119 310.05L318.29 309.244L318.428 308.433C319.182 304.114 319.515 299.749 319.617 295.393C319.714 291.032 319.575 286.677 319.307 282.33L319.298 282.325Z" fill="#C0DAF0"/>
<path d="M375.983 244.779C375.974 244.664 375.872 244.571 375.756 244.576C375.636 244.581 375.544 244.682 375.548 244.802C375.803 251.541 375.858 258.284 375.548 265.009C375.234 271.729 374.549 278.441 373.245 285.014L373.005 286.249L372.718 287.47L372.136 289.913C371.669 291.517 371.257 293.135 370.693 294.707C369.625 297.86 368.33 300.939 366.666 303.783C366.231 304.479 365.838 305.207 365.348 305.866L364.645 306.876C364.404 307.203 364.136 307.516 363.887 307.839C363.396 308.493 362.823 309.07 362.282 309.673C361.699 310.231 361.135 310.817 360.497 311.31C359.263 312.338 357.912 313.213 356.474 313.863C356.058 314.062 355.633 314.223 355.203 314.366C356.248 312.236 357.159 310.056 357.977 307.853C360.913 299.823 362.643 291.494 363.827 283.151C364.969 274.795 365.537 266.396 365.745 258.003C365.949 249.609 365.792 241.22 365.408 232.85C365.399 232.615 365.2 232.426 364.959 232.43C364.714 232.43 364.52 232.633 364.525 232.877C364.64 241.243 364.539 249.605 364.072 257.938C363.623 265.899 362.837 273.841 361.565 281.681C361.417 281.681 361.274 281.667 361.131 281.64C360.742 281.552 360.377 281.377 360.039 281.137C359.697 280.893 359.401 280.556 359.124 280.206C358.86 279.833 358.611 279.441 358.403 279.012C357.552 277.307 357.076 275.366 356.706 273.426C355.998 269.522 355.772 265.507 355.674 261.506C355.591 257.501 355.684 253.481 355.869 249.471C356.063 245.461 356.345 241.451 356.743 237.455C356.752 237.335 356.669 237.229 356.553 237.215C356.433 237.201 356.326 237.284 356.313 237.404C355.827 241.405 355.462 245.41 355.184 249.43C354.912 253.449 354.736 257.477 354.74 261.511C354.754 265.544 354.893 269.595 355.536 273.624C355.878 275.634 356.317 277.652 357.223 279.584C357.681 280.538 358.278 281.492 359.207 282.22C359.674 282.575 360.229 282.856 360.826 282.999C360.992 283.036 361.163 283.059 361.33 283.073C359.91 291.149 357.959 299.15 354.93 306.673C353.386 310.466 351.559 314.145 349.298 317.459C348.179 319.123 346.917 320.671 345.548 322.059C345.132 322.469 344.706 322.865 344.272 323.243L343.25 270.522C343.587 270.43 343.92 270.319 344.235 270.176C344.938 269.858 345.576 269.42 346.126 268.909C347.231 267.881 348.045 266.613 348.637 265.29C349.825 262.626 350.297 259.773 350.547 256.952C350.787 254.122 350.755 251.287 350.579 248.471C350.403 245.655 350.084 242.852 349.696 240.059C349.677 239.944 349.571 239.861 349.455 239.874C349.335 239.888 349.252 239.999 349.266 240.119C349.594 242.907 349.848 245.705 349.964 248.503C350.075 251.301 350.043 254.108 349.747 256.878C349.446 259.639 348.91 262.409 347.74 264.875C347.162 266.102 346.385 267.235 345.405 268.107C344.915 268.54 344.369 268.899 343.777 269.148C343.597 269.227 343.412 269.291 343.227 269.342L342.519 232.854C342.515 232.555 342.27 232.311 341.969 232.306C341.659 232.301 341.4 232.546 341.396 232.854L340.286 290.079C340.046 289.969 339.805 289.849 339.583 289.697C338.839 289.217 338.187 288.563 337.627 287.825C336.504 286.346 335.736 284.557 335.144 282.727C333.993 279.035 333.549 275.113 333.332 271.209C333.133 267.291 333.221 263.354 333.456 259.427C333.697 255.5 334.094 251.578 334.566 247.664C334.58 247.549 334.497 247.438 334.381 247.42C334.261 247.401 334.15 247.484 334.136 247.604C333.577 251.513 333.091 255.436 332.763 259.376C332.439 263.317 332.263 267.277 332.374 271.245C332.508 275.205 332.86 279.201 333.974 283.082C334.266 284.046 334.589 285.009 335.015 285.94C335.417 286.876 335.93 287.779 336.541 288.632C337.151 289.48 337.891 290.264 338.797 290.881C339.241 291.195 339.736 291.444 340.258 291.637L339.948 307.562C339.01 307.456 338.085 307.263 337.197 306.959C335.681 306.447 334.266 305.645 332.999 304.617C330.455 302.547 328.546 299.621 327.098 296.482C325.637 293.329 324.634 289.927 323.834 286.479C323.057 283.018 322.512 279.487 322.128 275.938C321.975 274.537 321.855 273.131 321.749 271.72C321.749 271.72 321.753 271.72 321.758 271.72C321.836 271.725 321.91 271.72 321.984 271.72C322.132 271.72 322.271 271.693 322.414 271.674C322.692 271.619 322.96 271.541 323.21 271.43C323.714 271.218 324.158 270.923 324.546 270.577C325.327 269.895 325.915 269.07 326.4 268.217C326.659 267.798 326.849 267.346 327.066 266.908C327.246 266.456 327.454 266.019 327.602 265.558C327.764 265.101 327.926 264.65 328.056 264.189C328.199 263.728 328.328 263.267 328.435 262.801C328.893 260.944 329.235 259.068 329.461 257.178C329.595 256.238 329.665 255.288 329.771 254.348C329.836 253.403 329.924 252.458 329.97 251.513C330.381 243.94 330.049 236.376 329.508 228.84C329.498 228.72 329.397 228.632 329.276 228.637C329.156 228.646 329.064 228.748 329.073 228.867C329.281 232.633 329.443 236.404 329.489 240.174C329.521 243.944 329.452 247.71 329.188 251.462C329.128 252.403 329.027 253.334 328.948 254.269C328.828 255.2 328.749 256.136 328.601 257.063C328.352 258.92 327.986 260.759 327.515 262.562C327.404 263.013 327.27 263.46 327.126 263.898C326.997 264.345 326.835 264.779 326.673 265.212C326.525 265.65 326.317 266.06 326.141 266.484C325.933 266.89 325.748 267.309 325.503 267.692C325.045 268.471 324.504 269.194 323.848 269.747C323.524 270.029 323.168 270.255 322.794 270.402C322.609 270.48 322.419 270.531 322.229 270.568C322.137 270.577 322.04 270.596 321.952 270.596C321.869 270.605 321.758 270.586 321.739 270.586H321.665C321.305 265.226 321.235 259.828 321.351 254.44C321.517 247.254 321.989 240.054 322.831 232.919V232.91C322.858 232.67 322.692 232.444 322.447 232.407C322.197 232.37 321.966 232.541 321.929 232.79C320.861 239.953 320.172 247.153 319.783 254.385C319.413 261.612 319.358 268.876 319.917 276.136C320.2 279.764 320.643 283.391 321.337 286.996C321.416 287.383 321.494 287.765 321.577 288.153C321.097 287.973 320.639 287.678 320.204 287.35C319.307 286.641 318.549 285.687 317.911 284.64C316.63 282.543 315.816 280.105 315.183 277.643C314.558 275.173 314.128 272.633 313.842 270.079C313.666 268.803 313.592 267.517 313.467 266.231C313.388 264.945 313.301 263.654 313.25 262.363C313.051 257.201 313.143 252.015 313.384 246.839C313.647 241.663 314.077 236.491 314.581 231.329C314.591 231.214 314.507 231.107 314.392 231.089C314.272 231.075 314.165 231.158 314.151 231.278C313.518 236.436 312.958 241.603 312.561 246.788C312.186 251.974 311.964 257.182 312.034 262.396C312.052 263.7 312.108 265.004 312.154 266.309C312.246 267.613 312.288 268.918 312.436 270.222C312.662 272.831 313.037 275.435 313.62 278.017C314.216 280.589 314.988 283.165 316.357 285.548C317.041 286.733 317.883 287.876 319.007 288.812C319.575 289.268 320.195 289.692 320.916 289.973C321.097 290.047 321.282 290.102 321.466 290.167C321.656 290.218 321.846 290.264 322.044 290.305C322.049 290.305 322.058 290.305 322.063 290.305C322.673 292.785 323.432 295.242 324.454 297.634C325.189 299.358 326.053 301.049 327.112 302.649C328.167 304.248 329.424 305.76 330.922 307.055C332.416 308.351 334.164 309.42 336.06 310.121C337.294 310.581 338.58 310.876 339.87 311.033L339.19 346.133C339.19 346.166 339.19 346.207 339.19 346.239C339.218 347.76 340.48 348.968 342.006 348.94C343.532 348.913 344.743 347.654 344.716 346.133L344.364 328.129C344.364 328.129 344.397 328.111 344.411 328.097C344.669 327.936 344.905 327.76 345.141 327.585C345.382 327.415 345.613 327.235 345.835 327.051C346.746 326.327 347.55 325.53 348.327 324.718C349.848 323.073 351.189 321.307 352.35 319.459C352.835 318.694 353.293 317.92 353.732 317.136C354.121 317.058 354.5 316.965 354.879 316.864C355.753 316.597 356.613 316.283 357.422 315.882C359.055 315.099 360.534 314.075 361.871 312.914C362.56 312.351 363.156 311.702 363.776 311.079C364.349 310.416 364.95 309.775 365.459 309.06C365.718 308.71 365.995 308.369 366.245 308.014L366.966 306.926C367.466 306.212 367.859 305.442 368.302 304.695C369.976 301.667 371.234 298.454 372.251 295.196C372.792 293.573 373.176 291.909 373.611 290.264L374.143 287.765L374.406 286.516L374.619 285.258C375.784 278.561 376.307 271.789 376.464 265.028C376.616 258.266 376.394 251.504 375.978 244.765L375.983 244.779Z" fill="#C0DAF0"/>
<path d="M550.602 251.609C550.593 251.498 550.5 251.411 550.389 251.42C550.278 251.424 550.19 251.521 550.195 251.632C550.431 257.96 550.486 264.298 550.195 270.618C549.899 276.932 549.261 283.233 548.031 289.41L547.809 290.567L547.536 291.715L546.99 294.01C546.556 295.517 546.163 297.038 545.631 298.513C544.628 301.477 543.412 304.367 541.849 307.041C541.437 307.695 541.072 308.382 540.609 309L539.948 309.949C539.722 310.258 539.472 310.553 539.236 310.852C538.774 311.47 538.237 312.009 537.729 312.576C537.178 313.102 536.651 313.65 536.055 314.111C534.894 315.075 533.627 315.9 532.277 316.508C531.889 316.692 531.486 316.845 531.084 316.983C532.064 314.982 532.924 312.931 533.692 310.866C536.452 303.321 538.075 295.499 539.19 287.658C540.263 279.809 540.799 271.917 540.993 264.031C541.187 256.144 541.035 248.262 540.679 240.399C540.67 240.178 540.485 240.002 540.258 240.002C540.027 240.002 539.846 240.191 539.846 240.422C539.957 248.281 539.86 256.135 539.421 263.966C539 271.447 538.26 278.905 537.063 286.276C536.924 286.276 536.79 286.262 536.656 286.239C536.295 286.156 535.948 285.994 535.629 285.764C535.31 285.533 535.033 285.22 534.769 284.888C534.524 284.538 534.284 284.169 534.09 283.768C533.294 282.169 532.846 280.343 532.499 278.523C531.833 274.854 531.62 271.083 531.533 267.322C531.454 263.556 531.542 259.786 531.718 256.015C531.898 252.249 532.161 248.479 532.541 244.727C532.55 244.616 532.471 244.515 532.36 244.501C532.249 244.487 532.148 244.566 532.134 244.681C531.676 248.438 531.334 252.203 531.075 255.983C530.821 259.758 530.654 263.542 530.654 267.336C530.668 271.125 530.797 274.932 531.403 278.716C531.727 280.606 532.134 282.5 532.989 284.317C533.419 285.215 533.979 286.11 534.853 286.796C535.292 287.128 535.814 287.396 536.374 287.529C536.531 287.562 536.688 287.585 536.85 287.598C535.518 295.185 533.683 302.703 530.839 309.774C529.387 313.337 527.672 316.794 525.549 319.91C524.495 321.472 523.311 322.929 522.026 324.233C521.633 324.616 521.235 324.989 520.824 325.344L519.862 275.808C520.181 275.72 520.491 275.619 520.787 275.48C521.448 275.181 522.044 274.771 522.567 274.287C523.603 273.323 524.37 272.134 524.925 270.89C526.039 268.387 526.488 265.709 526.719 263.058C526.946 260.399 526.913 257.735 526.751 255.089C526.585 252.443 526.284 249.807 525.919 247.188C525.901 247.078 525.804 246.999 525.693 247.013C525.582 247.027 525.503 247.129 525.517 247.239C525.827 249.857 526.067 252.485 526.173 255.116C526.28 257.744 526.247 260.38 525.97 262.985C525.688 265.575 525.184 268.179 524.083 270.498C523.538 271.65 522.812 272.715 521.892 273.531C521.429 273.941 520.916 274.277 520.366 274.508C520.195 274.582 520.024 274.642 519.848 274.692L519.182 240.413C519.177 240.132 518.946 239.901 518.664 239.896C518.373 239.892 518.132 240.122 518.123 240.413L517.078 294.181C516.852 294.079 516.63 293.964 516.417 293.821C515.719 293.369 515.104 292.756 514.577 292.06C513.518 290.668 512.796 288.99 512.246 287.271C511.169 283.805 510.748 280.117 510.544 276.448C510.36 272.77 510.438 269.069 510.66 265.381C510.887 261.689 511.261 258.007 511.705 254.333C511.719 254.222 511.64 254.121 511.529 254.107C511.418 254.093 511.312 254.167 511.298 254.278C510.771 257.951 510.318 261.634 510.003 265.335C509.698 269.037 509.532 272.756 509.638 276.485C509.763 280.205 510.096 283.957 511.141 287.608C511.414 288.516 511.719 289.419 512.117 290.295C512.496 291.175 512.977 292.023 513.55 292.821C514.123 293.618 514.822 294.356 515.672 294.932C516.089 295.227 516.556 295.462 517.046 295.642L516.754 310.608C515.871 310.507 515.002 310.327 514.17 310.041C512.745 309.562 511.414 308.811 510.225 307.838C507.835 305.893 506.045 303.141 504.681 300.196C503.308 297.237 502.365 294.038 501.616 290.797C500.885 287.548 500.376 284.229 500.016 280.892C499.872 279.574 499.761 278.251 499.66 276.928C499.66 276.928 499.664 276.928 499.669 276.928C499.743 276.928 499.812 276.928 499.882 276.928C500.02 276.928 500.154 276.905 500.284 276.882C500.543 276.831 500.797 276.757 501.028 276.656C501.5 276.458 501.921 276.176 502.281 275.854C503.017 275.213 503.567 274.439 504.025 273.637C504.265 273.24 504.446 272.821 504.649 272.411C504.815 271.987 505.014 271.572 505.153 271.143C505.306 270.714 505.458 270.29 505.578 269.857C505.712 269.424 505.833 268.991 505.934 268.553C506.364 266.806 506.683 265.045 506.896 263.27C507.026 262.385 507.086 261.496 507.188 260.611C507.248 259.721 507.331 258.836 507.372 257.947C507.761 250.834 507.446 243.722 506.938 236.642C506.929 236.532 506.831 236.449 506.72 236.453C506.61 236.463 506.522 236.555 506.531 236.67C506.73 240.21 506.878 243.75 506.924 247.29C506.956 250.83 506.892 254.374 506.642 257.896C506.586 258.776 506.489 259.657 506.415 260.537C506.304 261.413 506.226 262.293 506.087 263.16C505.851 264.907 505.509 266.635 505.065 268.327C504.959 268.751 504.834 269.17 504.7 269.585C504.575 270.005 504.427 270.41 504.274 270.816C504.136 271.226 503.941 271.613 503.775 272.014C503.581 272.397 503.405 272.793 503.174 273.148C502.744 273.881 502.235 274.563 501.616 275.079C501.31 275.342 500.978 275.554 500.626 275.693C500.45 275.766 500.275 275.812 500.099 275.845C500.011 275.854 499.923 275.872 499.84 275.868C499.766 275.877 499.655 275.858 499.641 275.858H499.572C499.23 270.82 499.17 265.75 499.276 260.689C499.433 253.941 499.877 247.175 500.668 240.468V240.459C500.695 240.233 500.538 240.021 500.307 239.989C500.076 239.952 499.859 240.113 499.822 240.348C498.818 247.078 498.171 253.844 497.805 260.638C497.454 267.433 497.408 274.254 497.93 281.076C498.194 284.487 498.615 287.893 499.267 291.281C499.341 291.645 499.415 292.005 499.493 292.364C499.04 292.194 498.61 291.917 498.203 291.609C497.362 290.94 496.65 290.041 496.048 289.064C494.842 287.091 494.083 284.801 493.487 282.491C492.899 280.168 492.497 277.785 492.229 275.384C492.063 274.185 491.993 272.973 491.878 271.77C491.804 270.562 491.725 269.35 491.674 268.138C491.485 263.284 491.572 258.417 491.804 253.549C492.053 248.686 492.456 243.828 492.932 238.975C492.941 238.864 492.863 238.763 492.752 238.753C492.641 238.74 492.539 238.818 492.525 238.929C491.928 243.773 491.401 248.627 491.031 253.503C490.68 258.375 490.472 263.266 490.537 268.17C490.555 269.396 490.606 270.622 490.652 271.848C490.74 273.074 490.782 274.3 490.916 275.527C491.129 277.979 491.48 280.426 492.026 282.846C492.59 285.261 493.311 287.681 494.596 289.926C495.239 291.042 496.03 292.116 497.084 292.996C497.621 293.425 498.203 293.821 498.878 294.084C499.045 294.153 499.22 294.204 499.396 294.263C499.572 294.314 499.752 294.356 499.937 294.393C499.942 294.393 499.951 294.393 499.956 294.393C500.529 296.72 501.241 299.03 502.198 301.279C502.887 302.897 503.701 304.487 504.695 305.99C505.689 307.492 506.868 308.912 508.274 310.129C509.68 311.346 511.317 312.35 513.097 313.01C514.253 313.443 515.464 313.719 516.676 313.867L516.038 346.847C516.038 346.874 516.038 346.916 516.038 346.948C516.065 348.377 517.249 349.511 518.683 349.483C520.116 349.456 521.254 348.276 521.226 346.847L520.898 329.93C520.898 329.93 520.925 329.912 520.944 329.903C521.184 329.751 521.411 329.589 521.633 329.423C521.859 329.262 522.077 329.096 522.285 328.921C523.14 328.243 523.894 327.492 524.624 326.732C526.053 325.183 527.311 323.528 528.402 321.79C528.86 321.071 529.29 320.343 529.702 319.606C530.067 319.532 530.423 319.444 530.779 319.352C531.602 319.099 532.411 318.808 533.17 318.43C534.7 317.697 536.096 316.734 537.35 315.642C537.997 315.111 538.556 314.503 539.139 313.918C539.675 313.291 540.244 312.692 540.72 312.023C540.965 311.696 541.224 311.373 541.456 311.041L542.131 310.018C542.602 309.35 542.972 308.622 543.384 307.926C544.956 305.082 546.14 302.062 547.092 299.002C547.601 297.476 547.962 295.914 548.368 294.365L548.868 292.019L549.118 290.848L549.316 289.668C550.412 283.376 550.902 277.011 551.046 270.659C551.189 264.303 550.981 257.956 550.593 251.623L550.602 251.609Z" fill="#C0DAF0"/>
<path d="M271.153 70.7887C271.782 68.9127 273.817 67.894 275.699 68.5209C277.581 69.1478 278.603 71.1759 277.974 73.0519C277.345 74.9279 275.31 75.9419 273.428 75.3197C271.546 74.6928 270.524 72.6647 271.153 70.7887Z" fill="#AAB2D6"/>
<path d="M283.591 71.1447C283.222 71.0202 282.93 70.7114 282.847 70.3058C282.81 70.1399 281.876 66.0883 277.053 64.4842C272.189 62.8663 268.855 65.3369 268.716 65.443C268.226 65.8163 267.519 65.7241 267.144 65.2355C266.765 64.7469 266.853 64.0463 267.343 63.6684C267.519 63.5301 271.722 60.3497 277.765 62.3547C283.85 64.3782 285.002 69.6282 285.048 69.8495C285.173 70.4533 284.78 71.0479 284.174 71.1724C283.975 71.2138 283.776 71.2 283.591 71.1401V71.1447Z" fill="#AAB2D6"/>
<path d="M289.288 67.5626C288.919 67.4381 288.627 67.1293 288.544 66.7237C288.489 66.4563 287.037 60.054 279.439 57.5281C271.801 54.9883 266.571 58.8924 266.349 59.0584C265.859 59.4363 265.151 59.3441 264.777 58.8556C264.398 58.367 264.486 57.6664 264.976 57.2884C265.23 57.0902 271.334 52.4716 280.152 55.4032C289.016 58.3485 290.68 65.9493 290.745 66.272C290.87 66.8758 290.477 67.4704 289.871 67.5948C289.672 67.6363 289.473 67.6225 289.288 67.5626Z" fill="#AAB2D6"/>
<path d="M293.866 63.7831C293.496 63.6586 293.205 63.3498 293.122 62.9441C293.048 62.6031 291.221 54.4676 281.576 51.2641C271.889 48.0468 265.262 53.0064 264.985 53.2185C264.495 53.5964 263.787 53.5042 263.408 53.0157C263.029 52.5271 263.117 51.8265 263.607 51.4485C263.922 51.2042 271.422 45.5301 282.283 49.1392C293.191 52.7621 295.235 62.096 295.318 62.4924C295.443 63.0963 295.05 63.6909 294.444 63.8153C294.245 63.8568 294.047 63.843 293.862 63.7831H293.866Z" fill="#AAB2D6"/>
<path d="M299.23 60.5016C298.86 60.3771 298.569 60.0683 298.485 59.6627C298.393 59.2248 296.076 48.863 283.804 44.7884C271.491 40.6953 262.798 47.2175 262.715 47.2866C262.224 47.6646 261.517 47.5724 261.138 47.0884C260.759 46.5998 260.846 45.8992 261.337 45.5212C261.725 45.2216 271.024 38.1832 284.516 42.6681C298.055 47.1668 300.589 58.727 300.686 59.2156C300.811 59.8194 300.418 60.414 299.812 60.5384C299.614 60.5799 299.415 60.5661 299.23 60.5062V60.5016Z" fill="#AAB2D6"/>
<path d="M187.242 113.09V174.32H166.046C163.498 174.32 161.436 172.264 161.436 169.725V123.581C161.436 117.787 166.147 113.09 171.96 113.09H187.237H187.242Z" fill="#264985"/>
<path d="M174.72 174.32H166.046C163.498 174.32 161.436 172.264 161.436 169.725V123.581C161.436 117.787 166.147 113.09 171.96 113.09H172.431C173.167 114.251 175.747 115.768 174.336 121.769C172.316 130.375 175.497 140.916 174.336 147.074C171.886 160.105 178.257 168.494 174.716 174.32H174.72Z" fill="#2F5699"/>
<path d="M217.219 130.969C217.219 130.969 238.892 128.379 244.852 123.29C255.533 114.168 269.165 89.6972 269.165 89.6972C277.71 84.6085 283.249 77.5101 281.594 73.8733C278.611 67.4018 272.42 80.2987 268.647 79.5935C268.647 79.5935 269.937 73.878 266.691 74.0577C263.44 74.2144 260.786 85.9175 260.786 85.9175C251.917 93.9792 242.17 104.493 237.62 108.886C236.076 108.978 215.605 108.139 205.4 114.223C208.36 122.115 210.172 129.434 217.215 130.969H217.219Z" fill="#F9CBCB"/>
<path d="M242.415 126.11C231.836 131.637 222.939 131.157 217.219 130.968C215.615 130.918 214.117 130.342 212.748 129.397C204.688 123.856 201.035 105.576 205.84 105.566C208.67 105.566 214.329 106.175 220.183 106.806C227.124 107.548 234.342 108.304 237.449 108.065L240.529 119.238L241.957 124.437L242.415 126.106V126.11Z" fill="#66BCFA"/>
<path d="M240.528 119.244C237.602 119.433 234.087 118.926 232.164 116.022C229.991 112.74 224.414 109.182 220.183 106.812C227.124 107.555 234.342 108.311 237.449 108.071L240.528 119.244Z" fill="#6EC2FF"/>
<path d="M242.415 126.111C231.836 131.637 222.939 131.158 217.219 130.969C215.615 130.918 214.117 130.342 212.748 129.397C210.996 127.166 209.382 125.055 209.382 125.018L216.896 110.891C216.896 110.891 226.472 113.094 229.038 122.663C229.982 126.166 236.774 124.603 241.953 124.442L242.411 126.111H242.415Z" fill="#5BB4F5"/>
<path d="M229.103 247.94C227.919 255.637 221.695 319.601 223.041 337.172C226.324 337.725 229.5 337.66 232.437 336.144C232.437 336.144 238.277 294.817 241.393 272.766C242.202 267.17 242.776 262.183 242.979 258.435C244.209 237.062 228.432 178.067 227.415 174.246L227.373 174.098L227.36 174.043L197.577 171.775C185.365 215.034 214.006 209.996 229.098 247.935L229.103 247.94Z" fill="#F1CCCD"/>
<path d="M250.16 255.301C250.16 265.451 242.304 301.035 238.249 319.74C237 325.506 236.108 329.664 235.918 330.982C234.559 331.235 233.186 331.406 231.789 331.503C228.025 331.775 224.132 331.539 220.164 331.051C216.72 317.444 215.476 277.486 218.657 261.621C214.075 250.102 193.124 228.208 194.058 194.698C194.261 187.429 195.491 179.611 198.141 171.236L227.923 173.504L227.937 173.559L227.974 173.702C228.048 173.979 228.229 174.537 228.497 175.334C229.38 177.952 231.234 183.184 233.5 189.858C234.637 193.209 235.881 196.929 237.162 200.856C243.27 219.643 250.165 243.28 250.165 255.301H250.16Z" fill="#2C58A3"/>
<path d="M250.16 255.302C250.16 265.451 242.304 301.035 238.249 319.74C233.939 307.244 233.176 276.445 239.206 262.414C245.24 248.383 241.361 242.87 236.69 227.171C233.426 216.201 234.508 204.304 237.158 200.852C243.266 219.639 250.16 243.276 250.16 255.297V255.302Z" fill="#4371BD"/>
<path d="M231.789 331.503C228.025 331.775 224.132 331.539 220.164 331.051C216.72 317.444 215.476 277.486 218.657 261.621C214.075 250.102 193.124 228.208 194.058 194.698C204.133 186.728 221.834 175.495 222.093 175.334H228.497C229.38 177.952 231.234 183.184 233.5 189.858C232.88 192.896 231.47 195.841 228.71 198.053C219.559 205.378 229.26 222.414 224.294 236.191C219.6 249.221 224.414 257.053 231.364 257.62C231.364 257.62 225.616 259.523 224.705 269.991C223.794 280.459 230.272 300.279 226.028 310.973C222.643 319.486 227.197 328.276 231.794 331.507L231.789 331.503Z" fill="#21498F"/>
<path d="M160.714 333.909C160.714 333.909 174.059 307.221 184.736 291.738C187.269 288.032 189.665 284.792 191.708 282.395C206.334 265.28 213.968 179.035 213.968 179.035L194.275 179.989C175.321 199.676 183.991 227.037 183.432 253.812C183.237 263.095 172.214 270.835 167.775 278.647C166.882 280.219 166.041 281.814 165.246 283.45C159.715 294.854 155.924 309.507 152.895 331.47C154.698 335.789 156.918 338.292 160.709 333.909H160.714Z" fill="#F1CCCD"/>
<path d="M220.419 183.604C220.419 183.604 220.396 185.222 220.317 188.034C219.859 203.834 217.58 257.362 207.439 273.55C205.728 276.279 188.597 299.031 176.741 314.827C170.929 322.575 166.388 328.646 165.551 329.867C162.573 329.3 160.224 328.862 157.991 328.106C155.887 327.387 153.889 326.392 151.573 324.732C152.215 323.41 153.575 301.617 166.314 275.998C170.827 266.927 177.962 260.372 178.054 249.803C178.281 223.908 175.127 199.064 193.452 180.041L213.497 182.691L220.419 183.604Z" fill="#3A67B3"/>
<path d="M220.313 188.033C219.855 203.834 217.575 257.362 207.435 273.55C205.724 276.279 188.592 299.03 176.737 314.827C176.376 299.648 187.561 283.714 196.31 272.444C205.47 260.639 194.34 243.234 205.525 229.683C217.242 215.486 213.973 189.54 213.973 189.54L220.317 188.042L220.313 188.033Z" fill="#4876C2"/>
<path d="M213.497 182.691L211.499 193.828C210.602 193.8 204.762 204.512 191.265 206.964C177.763 209.416 179.326 255.053 188.264 257.621C188.264 257.621 183.288 257.178 180.528 262.248C177.767 267.319 174.864 283.802 167.045 292.26C160.483 299.363 156.271 319.957 157.991 328.106C155.887 327.387 153.889 326.392 151.573 324.732C152.215 323.41 153.575 301.617 166.314 275.998C170.827 266.927 177.962 260.372 178.054 249.803C178.281 223.908 175.127 199.064 193.452 180.041L213.497 182.691Z" fill="#2C5499"/>
<path d="M232.044 187.152C231.785 189.493 228.603 191.908 226.277 192.319C222.953 192.895 219.582 193.296 216.156 193.54C213.853 193.706 211.527 193.798 209.183 193.821C208.748 193.821 208.318 193.821 207.883 193.821C200.901 193.84 193.725 193.245 186.4 192.162C185.605 192.042 184.856 191.738 184.227 191.3C183.071 190.503 182.257 189.23 182.035 187.755C180.505 177.587 176.477 149.323 176.256 133.024C176.205 129.973 176.297 127.332 176.565 125.313C177 121.99 178.628 118.021 181.675 114.444C184.87 110.697 189.614 107.373 196.152 105.682L201.045 105.622L206.524 105.553C222.967 109.088 228.178 128.627 229.241 140.865C229.44 143.105 229.496 145.105 229.454 146.714C229.288 153.748 229.889 160.768 230.573 167.092C231.479 175.536 232.524 182.75 232.053 187.147L232.044 187.152Z" fill="#52B4FA"/>
<path d="M232.044 187.152C231.785 189.494 228.603 191.909 226.278 192.319C222.953 192.895 219.582 193.296 216.156 193.541C212.443 185.705 200.342 175.449 213.502 174.103C224.756 172.951 229.033 169.185 230.569 167.102C231.475 175.546 232.52 182.759 232.048 187.157L232.044 187.152Z" fill="#64BEFF"/>
<path d="M229.232 140.87C226.629 140.437 219.605 138.298 215.296 127.839C209.936 114.813 201.951 109.54 201.951 109.54L201.031 105.632L206.51 105.562C222.953 109.098 228.164 128.637 229.228 140.875L229.232 140.87Z" fill="#64BEFF"/>
<path d="M191.27 179.035C194.21 186.12 206.418 190.923 209.183 193.818C208.748 193.818 208.318 193.827 207.883 193.827C200.901 193.845 193.725 193.251 186.4 192.167C185.605 192.048 184.856 191.743 184.227 191.306C183.071 190.508 182.257 189.236 182.035 187.761C180.505 177.593 176.477 149.328 176.256 133.03C176.205 129.978 176.297 127.337 176.565 125.318C177 121.995 178.628 118.026 181.675 114.45C183.108 113.542 184.556 113.053 185.998 113.09C200.314 113.449 229.917 160.266 229.917 160.266C229.917 160.266 218.699 167.835 206.492 165.673C194.294 163.507 187.852 170.789 191.274 179.031L191.27 179.035Z" fill="#3BA1EB"/>
<path d="M202.908 96.7083C199.81 97.6624 198.557 99.2066 194.594 97.4228C188.564 94.7079 183.473 84.3 191.482 79.5939C192.037 77.9483 192.592 77.303 194.705 76.8467C196.813 76.3904 198.978 77.3077 201.886 77.257C204.794 77.2063 208.91 74.2194 211.448 78.4369C213.982 82.6545 207.694 85.9317 204.545 88.0105C201.391 90.0847 202.413 93.6708 202.912 96.7083H202.908Z" fill="#30334D"/>
<path d="M196.147 105.692C200.993 110.186 209.603 114.251 206.519 105.563L205.562 98.6626L205.197 95.6758H197.026L196.869 97.5287L196.147 105.696V105.692Z" fill="#F9CBCB"/>
<path d="M196.749 98.8429C198.769 101.263 204.327 101.963 205.839 100.926L205.192 95.6671L196.975 92.2285L196.749 98.8383V98.8429Z" fill="#F0B4B4"/>
<path d="M208.637 82.2583C210.047 86.2223 211.43 94.9846 208.054 98.2434C205.918 100.304 198.168 99.5064 196.587 93.8369C194.719 92.4864 193.345 89.1999 195.07 87.7065C196.3 86.6418 197.868 89.4534 200.008 88.9879C200.822 88.8128 198.325 83.4014 200.859 82.4611C203.398 81.5254 206.08 83.5535 208.637 82.2629V82.2583Z" fill="#F9CBCB"/>
<path d="M244.995 345.723C244.963 346.47 244.69 347.083 244.181 347.373C242.554 348.277 226.444 349.148 223.868 348.083C223.318 347.857 222.962 347.203 222.74 346.327C221.936 343.124 222.967 336.855 222.967 336.855C224.576 337.122 226.134 337.274 227.605 337.228C229.343 337.173 230.962 336.841 232.386 336.104C232.695 340.644 236.815 341.298 240.399 341.003C241.569 340.906 242.526 341.271 243.261 341.879C244.454 342.865 245.055 344.474 244.991 345.719L244.995 345.723Z" fill="#30334D"/>
<path d="M243.261 341.883C241.194 341.86 238.42 344.22 231.997 344.266C225.921 344.303 226.726 339.712 227.604 337.232C229.343 337.177 230.961 336.845 232.386 336.107C232.695 340.648 236.815 341.302 240.399 341.007C241.569 340.91 242.526 341.274 243.261 341.883Z" fill="#3E4161"/>
<path d="M170.203 345.879C169.907 346.566 169.435 347.049 168.857 347.137C168.51 347.192 167.669 347.059 166.531 346.801C161.662 345.694 151.24 342.228 149.589 340.693C149.154 340.288 149.048 339.555 149.154 338.656C149.529 335.369 152.701 329.861 152.701 329.861C154.005 330.613 155.295 331.253 156.576 331.714C158.342 332.36 160.081 332.668 161.787 332.461C160.479 336.821 164.104 338.873 167.558 339.854C170.526 340.693 171.007 344.026 170.193 345.879H170.203Z" fill="#30334D"/>
<path d="M170.203 345.879C169.907 346.566 169.435 347.05 168.857 347.137C168.51 347.193 167.669 347.059 166.531 346.801C161.662 345.695 151.24 342.228 149.589 340.694C149.154 340.288 149.048 339.555 149.154 338.656C149.154 338.656 161.144 342.818 167.475 344.966C168.594 345.344 169.532 345.662 170.198 345.879H170.203Z" fill="#30334D"/>
<path d="M269.954 68.097L263.794 84.9039C263.445 85.8555 263.936 86.9088 264.891 87.2565L272.504 90.0293C273.459 90.377 274.516 89.8874 274.864 88.9358L281.024 72.129C281.373 71.1773 280.882 70.124 279.927 69.7763L272.314 67.0035C271.359 66.6558 270.302 67.1454 269.954 68.097Z" fill="#3A67B3"/>
<path d="M273.146 89.2965C273.03 89.2965 272.919 89.2781 272.808 89.2366L265.197 86.4664C264.952 86.3742 264.753 86.1944 264.642 85.9593C264.531 85.7197 264.522 85.4523 264.61 85.208L270.769 68.407C270.912 68.0198 271.282 67.7617 271.694 67.7617C271.809 67.7617 271.92 67.7802 272.031 67.8216L279.642 70.5918C280.151 70.7762 280.415 71.3432 280.23 71.8502L274.071 88.6512C273.927 89.0384 273.557 89.2965 273.146 89.2965Z" fill="#A1D8FF"/>
<path d="M178.036 174.099L176.39 170.158C197.174 161.534 200.231 147.443 202.067 129.923C202.756 123.359 200.656 118.34 196.153 115.791C191.048 112.901 183.83 113.597 178.605 117.492L176.043 114.072C182.59 109.195 191.732 108.379 198.27 112.08C201.785 114.072 207.509 119.096 206.325 130.37C204.406 148.669 200.952 164.59 178.036 174.099Z" fill="#264985"/>
<path d="M185.013 138.52C185.013 138.52 201.817 156.386 210.935 159.142C224.733 163.318 256.712 156.557 256.712 156.557C266.927 160.631 277.788 153.653 279.887 149.767C283.596 142.821 268.059 152.316 266.159 148.536C266.159 148.536 271.208 143.945 268.956 142.71C265.803 140.982 256.643 147.481 256.643 147.481C248.084 145.425 230.041 143.95 219.041 141.991C217.927 140.696 197.983 120.88 185.776 116.018C180.801 123.9 181.647 131.321 185.018 138.516L185.013 138.52Z" fill="#F9CBCB"/>
<path d="M218.102 137.686L203.259 156.234C193.434 150.371 172.029 129.689 184.139 117.096C185.092 116.1 186.132 115.446 187.237 115.077C188.444 114.667 189.73 114.602 191.071 114.819C198.34 115.994 207.181 125.42 213.728 132.777C215.342 134.593 216.821 136.275 218.102 137.686Z" fill="#7DC9FF"/>
<path d="M218.102 137.685L203.259 156.233C193.434 150.37 172.029 129.688 184.139 117.095C185.092 116.099 186.132 115.445 187.237 115.076C187.103 115.399 183.548 131.956 195.306 137.141C207.162 142.377 211.19 134.786 218.107 137.685H218.102Z" fill="#71C1FA"/>
<path d="M213.733 132.776C209.248 131.813 202.742 133.901 195.306 131.642C187.487 129.269 190.257 117.681 191.076 114.818C198.344 115.994 207.185 125.42 213.733 132.776Z" fill="#87CDFF"/>
<path d="M170.748 113.094C164.409 113.094 159.271 118.215 159.271 124.534V150.185H170.748V113.094Z" fill="#5E86CC"/>
<path d="M167.715 113.499V139.201C167.715 143.852 163.933 147.622 159.267 147.622V150.185H170.744V113.094C169.694 113.094 168.677 113.237 167.71 113.499H167.715Z" fill="#466FB8"/>
<path d="M160.108 157.035V169.729C160.108 172.264 162.171 174.325 164.718 174.325H170.753V157.035H160.113H160.108Z" fill="#5E86CC"/>
<path d="M168.275 157.036V165.678C168.275 169.002 165.574 171.694 162.24 171.694C161.579 171.694 160.955 171.551 160.386 171.302C161.034 173.062 162.721 174.321 164.71 174.321H170.744V157.031H168.27L168.275 157.036Z" fill="#466FB8"/>
<path d="M170.203 345.879C169.907 346.566 169.435 347.05 168.857 347.138C168.51 347.193 167.669 347.059 166.531 346.801C166.859 346.243 167.202 345.617 167.479 344.967C167.895 343.985 168.159 342.962 167.992 342.049C167.488 339.297 161.371 339.836 157.098 337.08C154.467 335.384 155.424 333.171 156.58 331.715C158.347 332.36 160.085 332.669 161.792 332.462C160.483 336.822 164.108 338.873 167.562 339.855C170.531 340.694 171.012 344.026 170.198 345.879H170.203Z" fill="#3E4161"/>
<path d="M168.839 64.4794L161.857 69.9138L161.311 69.2177C160.382 68.0331 159.762 66.9684 159.457 66.0189C159.147 65.0694 159.022 64.083 159.073 63.0597C159.129 62.0364 159.485 60.0268 160.137 57.0399C160.497 55.4635 160.414 54.3388 159.887 53.6659C159.36 52.9929 158.754 52.6288 158.065 52.5643C157.376 52.4997 156.627 52.7855 155.818 53.417C154.948 54.0945 154.454 54.9427 154.333 55.9567C154.213 56.9754 154.634 58.2568 155.596 59.8101L147.781 64.484C145.978 61.6815 145.284 58.8375 145.696 55.9521C146.107 53.0667 148.026 50.2872 151.457 47.6184C154.125 45.5396 156.719 44.415 159.23 44.249C162.638 44.0139 165.32 45.1478 167.281 47.6507C168.094 48.6878 168.589 49.9139 168.769 51.3243C168.95 52.7348 168.696 54.832 168.011 57.6069C167.54 59.5474 167.373 60.9394 167.512 61.7829C167.65 62.6264 168.094 63.5252 168.839 64.4794ZM163.068 71.9511L170.545 66.1295L175.696 72.7024L168.219 78.524L163.068 71.9511Z" fill="#D94559"/>
<path d="M190.109 58.6804L183.557 57.9614L183.631 57.3068C183.756 56.196 183.982 55.3064 184.311 54.6426C184.639 53.9789 185.087 53.3843 185.652 52.8681C186.216 52.3518 187.45 51.4668 189.36 50.2131C190.373 49.5586 190.918 48.9179 190.988 48.2864C191.057 47.6549 190.923 47.1433 190.59 46.7561C190.257 46.3643 189.707 46.1292 188.948 46.0463C188.13 45.9587 187.427 46.1523 186.831 46.6316C186.234 47.111 185.79 48.0144 185.494 49.3373L178.896 47.7748C179.395 45.3456 180.51 43.4696 182.234 42.1468C183.959 40.8239 186.428 40.3353 189.647 40.6902C192.153 40.9668 194.118 41.7089 195.542 42.9211C197.48 44.562 198.317 46.5533 198.058 48.904C197.951 49.8766 197.577 50.7892 196.934 51.6328C196.291 52.4809 195.066 53.4627 193.258 54.5873C191.996 55.3755 191.182 56.0301 190.817 56.5555C190.451 57.0764 190.22 57.7862 190.118 58.6804H190.109ZM183.141 59.6714L190.16 60.4412L189.476 66.6131L182.456 65.8433L183.141 59.6714Z" fill="#52A1FA"/>
<path d="M263.547 53.4023C266.757 53.4023 269.359 50.8083 269.359 47.6084C269.359 44.4085 266.757 41.8145 263.547 41.8145C260.337 41.8145 257.734 44.4085 257.734 47.6084C257.734 50.8083 260.337 53.4023 263.547 53.4023Z" fill="#D94559"/>
<path d="M265.591 50.5394L266.515 49.4977C265.678 48.857 264.841 48.2163 264 47.571C264.767 46.8473 265.535 46.119 266.298 45.3954C265.956 45.0819 265.614 44.7685 265.267 44.4551C264.601 45.2755 263.931 46.1006 263.26 46.9211C262.525 46.1744 261.79 45.423 261.05 44.6763C260.74 45.022 260.435 45.3723 260.125 45.718C260.948 46.3587 261.771 47.004 262.59 47.6447C261.84 48.3684 261.087 49.0921 260.338 49.8157C260.68 50.1292 261.022 50.4426 261.369 50.756C262.021 49.9356 262.677 49.1151 263.329 48.2946C264.078 49.0414 264.828 49.7927 265.581 50.5394H265.591Z" fill="white"/>
<path d="M503.262 344.082C502.328 345.746 500.677 346.866 499.086 347.926H444.612C442.378 347.52 440.464 345.594 438.489 344.46C436.529 343.33 434.915 341.33 434.887 339.067C434.86 336.2 437.81 333.688 440.649 334.172C441.671 334.351 442.683 334.835 443.687 334.591C445.356 334.172 445.883 331.991 445.458 330.323C445.032 328.668 444.01 327.184 443.761 325.497C443.294 322.252 446.429 319.012 449.698 319.357C452.574 319.666 454.683 322.128 456.31 324.52C457.175 325.806 458.289 327.281 459.834 327.207C461.05 327.138 462.012 326.069 462.377 324.912C462.747 323.755 462.673 322.519 462.677 321.293C462.724 317.855 463.574 314.416 465.151 311.342C466.386 308.945 468.309 306.603 470.977 306.152C473.881 305.672 476.776 307.733 477.973 310.411C479.18 313.089 478.981 316.191 478.269 319.03C477.742 321.123 477.021 323.57 478.385 325.239C478.695 325.626 479.092 325.926 479.522 326.161C481.21 327.073 483.453 326.82 484.905 325.561C485.575 324.981 486.07 324.22 486.75 323.653C488.451 322.243 491.156 322.376 492.853 323.778C494.55 325.179 495.211 327.622 494.661 329.751C494.351 330.968 493.69 332.065 493.302 333.259C492.904 334.453 492.821 335.863 493.565 336.868C495.47 339.445 500.094 336.914 502.638 338.869C504.145 340.03 504.196 342.422 503.262 344.086V344.082Z" fill="#3A67B3"/>
<path d="M472.383 310.411C473.59 313.089 473.391 316.191 472.679 319.03C472.152 321.123 471.43 323.57 472.795 325.239C473.104 325.626 473.502 325.926 473.932 326.161C475.495 327.004 477.529 326.838 478.977 325.81C478.759 325.644 478.556 325.455 478.385 325.239C477.021 323.57 477.742 321.123 478.269 319.03C478.986 316.191 479.185 313.089 477.973 310.411C476.78 307.733 473.886 305.672 470.977 306.152C470.298 306.267 469.664 306.507 469.082 306.834C470.515 307.608 471.717 308.913 472.383 310.411Z" fill="#335B9E"/>
<path d="M438.096 334.591C438.36 334.526 438.591 334.411 438.799 334.264C438.457 334.351 438.124 334.476 437.805 334.637C437.902 334.628 437.999 334.614 438.101 334.591H438.096Z" fill="#335B9E"/>
<path d="M450.72 324.516C451.584 325.802 452.699 327.277 454.243 327.203C455.39 327.138 456.305 326.18 456.712 325.101C456.569 324.907 456.435 324.709 456.305 324.516C454.682 322.123 452.569 319.662 449.693 319.353C448.556 319.233 447.437 319.551 446.479 320.151C448.195 321.128 449.578 322.838 450.715 324.516H450.72Z" fill="#335B9E"/>
<path d="M502.642 338.868C500.099 336.913 495.475 339.444 493.57 336.867C492.826 335.862 492.909 334.452 493.307 333.258C493.69 332.069 494.356 330.967 494.666 329.75C495.216 327.616 494.55 325.178 492.858 323.777C491.221 322.422 488.636 322.26 486.93 323.523C487.046 323.602 487.161 323.689 487.268 323.777C488.965 325.178 489.626 327.621 489.076 329.75C488.766 330.967 488.105 332.064 487.716 333.258C487.319 334.452 487.235 335.862 487.98 336.867C489.885 339.444 494.509 336.913 497.052 338.868C498.559 340.029 498.606 342.422 497.676 344.085C496.742 345.749 495.091 346.87 493.501 347.93H499.091C500.682 346.87 502.333 345.749 503.267 344.085C504.201 342.422 504.15 340.034 502.642 338.868Z" fill="#335B9E"/>
<path d="M476.896 326.64C476.697 328.06 475.879 329.355 474.686 330.153C473.41 331.005 471.62 331.328 470.825 332.766C470.802 332.808 470.769 332.831 470.737 332.844C470.358 334.379 469.983 335.914 469.66 337.454C468.943 340.851 468.471 344.451 468.864 347.926H468.476C468.365 346.954 468.323 345.967 468.328 344.985C468.342 343.321 468.518 341.676 468.776 340.049C468.703 340.049 468.629 340.007 468.61 339.906C468.457 339.044 467.856 338.38 467.26 337.772C466.566 337.057 465.868 336.348 465.17 335.633C463.94 334.366 462.682 332.895 462.682 331.028C462.682 330.775 463.075 330.775 463.075 331.028C463.075 332.95 464.518 334.398 465.776 335.684C466.446 336.371 467.14 337.048 467.796 337.753C468.249 338.242 468.675 338.777 468.887 339.404C469.53 335.711 470.598 332.079 471.375 328.415C471.87 326.078 472.249 323.649 472.314 321.229C472.3 321.22 472.281 321.215 472.268 321.201C471.144 320.118 469.891 318.823 470.016 317.131C470.034 316.882 470.427 316.878 470.409 317.131C470.298 318.602 471.329 319.736 472.318 320.699C472.337 317.892 471.916 315.112 470.742 312.513C470.64 312.287 470.977 312.084 471.084 312.315C471.657 313.577 472.05 314.9 472.314 316.246C473.012 315.407 473.474 314.403 473.65 313.324C473.692 313.075 474.071 313.181 474.029 313.425C473.821 314.661 473.252 315.818 472.402 316.739C472.633 318.099 472.725 319.491 472.711 320.879C472.67 324.64 471.847 328.29 470.959 331.927C471.796 331.033 473.054 330.637 474.113 330.037C475.421 329.295 476.309 328.014 476.517 326.525C476.554 326.276 476.933 326.382 476.896 326.626V326.64Z" fill="#709AE0"/>
<path d="M459.843 347.925H459.445C459.482 347.054 459.473 346.178 459.417 345.312C459.403 345.095 459.385 344.879 459.366 344.657C459.339 344.708 459.288 344.745 459.209 344.736C456.527 344.459 454.007 343.141 452.278 341.081C452.116 340.892 452.393 340.61 452.555 340.804C454.22 342.781 456.634 344.077 459.209 344.344C459.269 344.353 459.316 344.381 459.343 344.418C459.158 342.583 458.738 340.767 458.007 339.076C457.35 337.55 456.458 336.13 455.478 334.789C455.445 334.803 455.413 334.803 455.376 334.789C453.226 334.167 450.424 335.102 448.736 333.236C448.57 333.047 448.847 332.77 449.013 332.959C449.725 333.743 450.798 334.01 451.816 334.093C452.925 334.176 454.044 334.093 455.14 334.333C455.08 334.259 455.025 334.176 454.964 334.102C453.758 332.526 452.449 331.037 451.201 329.493C450.59 328.728 449.989 327.953 449.43 327.151C448.842 326.308 448.32 325.418 448.01 324.432C447.936 324.192 448.315 324.086 448.389 324.33C448.745 325.469 449.416 326.469 450.114 327.432C450.562 328.055 451.034 328.649 451.51 329.244C452.338 327.962 452.504 326.308 451.894 324.897C451.797 324.667 452.135 324.464 452.236 324.699C452.916 326.28 452.754 328.147 451.774 329.571C451.917 329.751 452.061 329.926 452.209 330.106C454.22 332.539 456.347 334.955 457.808 337.757C458.123 336.918 458.779 336.245 459.149 335.425C459.722 334.153 459.237 332.742 458.807 331.507C458.724 331.267 459.103 331.161 459.186 331.401C459.621 332.655 460.079 334.061 459.593 335.37C459.209 336.402 458.289 337.181 458.062 338.278C458.317 338.799 458.548 339.334 458.747 339.887C459.676 342.473 459.94 345.201 459.843 347.93V347.925Z" fill="#709AE0"/>
<path d="M450.452 347.927H450.045C449.814 346.825 449.388 345.769 448.713 344.861C448.584 344.682 448.436 344.52 448.288 344.354C448.255 344.368 448.218 344.368 448.181 344.364C447.451 344.193 446.803 344.765 446.151 344.995C445.495 345.226 444.778 345.161 444.154 344.866C443.923 344.76 444.126 344.419 444.353 344.53C445.014 344.843 445.731 344.788 446.378 344.474C446.873 344.239 447.368 343.958 447.904 343.953C447.344 343.386 446.711 342.889 446.05 342.451C444.958 341.718 443.784 341.119 442.637 340.478C442.059 340.155 441.472 339.837 440.936 339.455C440.52 339.164 440.136 338.8 440.034 338.289C439.983 338.044 440.362 337.938 440.413 338.187C440.552 338.851 441.245 339.21 441.777 339.528C442.448 339.934 443.137 340.303 443.826 340.681C443.876 340.713 443.927 340.741 443.983 340.768C444.108 339.966 444.011 339.146 443.724 338.385C443.636 338.15 444.02 338.044 444.103 338.279C444.417 339.118 444.496 340.017 444.357 340.897C444.357 340.92 444.343 340.939 444.325 340.962C446.309 342.068 448.315 343.327 449.481 345.327C449.962 346.152 450.262 347.028 450.443 347.936L450.452 347.927Z" fill="#709AE0"/>
<path d="M492.072 330.338C491.924 330.886 491.341 331.14 490.856 331.329C490.268 331.554 489.635 331.674 489.011 331.693C489.002 331.693 488.997 331.693 488.988 331.693C488.775 331.96 488.558 332.209 488.336 332.462C487.17 333.771 486.001 335.048 485.016 336.505C484.072 337.897 483.263 339.381 482.602 340.925C482.135 342.013 481.747 343.133 481.427 344.272C482.718 343.617 484.151 343.294 485.46 342.667C486.74 342.059 488.012 341.013 488.146 339.505C488.169 339.252 488.562 339.252 488.544 339.505C488.405 341.031 487.268 342.17 485.968 342.852C484.465 343.645 482.759 343.944 481.289 344.788C481.021 345.816 480.822 346.867 480.683 347.918H480.281C480.401 346.991 480.572 346.069 480.785 345.161C481.224 343.317 481.867 341.52 482.681 339.805C482.681 339.791 482.667 339.787 482.667 339.773C482.144 337.892 480.757 335.91 481.733 333.937C481.844 333.712 482.186 333.91 482.075 334.136C481.233 335.832 482.371 337.653 482.93 339.293C483.499 338.16 484.142 337.072 484.863 336.03C485.307 335.394 485.783 334.772 486.283 334.172C485.635 332.698 485.436 331.08 485.709 329.489C485.751 329.241 486.135 329.347 486.088 329.591C485.839 331.015 486.01 332.499 486.569 333.836C487.092 333.228 487.647 332.642 488.178 332.034C489.334 330.72 490.421 329.181 490.495 327.374C490.504 327.12 490.902 327.12 490.888 327.374C490.828 328.839 490.162 330.121 489.302 331.273C489.746 331.232 490.185 331.144 490.606 330.997C490.985 330.858 491.572 330.665 491.693 330.227C491.757 329.983 492.137 330.084 492.072 330.328V330.338Z" fill="#709AE0"/>
<path d="M499.918 342.681C498.975 342.764 498.041 342.99 497.153 343.336C497.112 343.386 497.052 343.409 496.987 343.405C496.816 343.474 496.635 343.543 496.464 343.621C495.697 343.985 494.98 344.446 494.319 344.981C495.54 345.078 496.719 345.405 497.815 345.944C498.041 346.06 497.842 346.396 497.616 346.286C496.487 345.732 495.257 345.41 494.004 345.35C493.967 345.35 493.935 345.336 493.912 345.322C493.089 346.06 492.381 346.926 491.84 347.894C491.84 347.908 491.827 347.913 491.827 347.926H491.387C491.568 347.576 491.766 347.24 491.993 346.908C492.599 346.032 493.329 345.248 494.166 344.594C494.971 343.958 495.863 343.437 496.811 343.05C496.834 342.192 496.996 341.335 497.292 340.528C497.38 340.293 497.759 340.399 497.671 340.634C497.403 341.363 497.25 342.128 497.209 342.898C498.078 342.58 498.989 342.372 499.918 342.289C500.173 342.271 500.173 342.663 499.918 342.681Z" fill="#709AE0"/>
<path d="M383.816 339.071C381.236 340.385 378.313 340.938 375.784 342.33C373.245 343.727 370.966 345.525 371.507 348.359L365.315 348.368L364.492 348.378L357.857 348.387H357.071L351.106 348.401H350.329L345.183 348.41C345.215 343.206 340.804 339.053 336.249 336.513C334.816 335.716 333.225 334.891 332.596 333.379C331.805 331.466 332.901 329.323 334.062 327.599C335.417 325.566 336.906 323.621 338.515 321.777C339.555 320.588 340.896 319.334 342.473 319.496C343.805 319.629 344.817 320.731 345.589 321.823C347.767 324.861 349.279 328.382 349.978 332.056C350.204 333.236 350.68 334.743 351.883 334.757C352.863 334.771 353.487 333.711 353.691 332.757C354.467 329.125 352.382 325.594 351.138 322.095C350.26 319.652 349.783 317.08 349.353 314.508C349.104 313.056 348.877 311.549 349.219 310.12C350.112 306.419 354.329 304.631 358.088 303.971C361.537 303.363 365.209 303.243 368.441 304.612C371.659 305.981 374.318 309.12 374.249 312.619C374.193 315.804 372.029 318.491 370.415 321.252C368.094 325.188 366.763 329.705 366.559 334.273C366.536 334.803 366.536 335.366 366.804 335.836C367.539 337.154 369.625 336.67 370.707 335.619C372.196 334.172 372.875 332.121 373.44 330.129C374.004 328.147 374.531 326.073 375.789 324.428C377.051 322.787 379.289 321.694 381.226 322.418C382.04 322.722 382.706 323.308 383.326 323.911C384.93 325.497 386.313 327.318 387.399 329.295C387.931 330.263 388.403 331.296 388.504 332.402C388.749 335.278 386.387 337.767 383.811 339.071H383.816Z" fill="#FF984F"/>
<path d="M340.632 321.823C342.81 324.86 344.322 328.382 345.02 332.056C345.247 333.236 345.723 334.743 346.926 334.757C347.906 334.77 348.53 333.71 348.734 332.756C349.395 329.663 347.98 326.64 346.778 323.653C346.403 323.026 346.015 322.413 345.589 321.823C344.812 320.73 343.804 319.629 342.473 319.495C341.418 319.384 340.471 319.915 339.647 320.629C340.013 320.993 340.341 321.408 340.637 321.823H340.632Z" fill="#EB8136"/>
<path d="M363.479 304.617C366.698 305.986 369.356 309.125 369.287 312.623C369.232 315.808 367.068 318.495 365.454 321.256C363.133 325.193 361.801 329.71 361.597 334.278C361.574 334.808 361.574 335.37 361.843 335.84C362.578 337.159 364.663 336.675 365.745 335.624C366.046 335.329 366.309 335.006 366.55 334.67C366.55 334.541 366.55 334.407 366.559 334.278C366.762 329.71 368.094 325.193 370.415 321.256C372.029 318.5 374.193 315.813 374.249 312.623C374.318 309.125 371.664 305.986 368.441 304.617C365.81 303.501 362.878 303.377 360.016 303.695C361.204 303.856 362.37 304.147 363.479 304.617Z" fill="#EB8136"/>
<path d="M388.509 332.401C388.407 331.291 387.935 330.263 387.404 329.295C386.312 327.317 384.934 325.497 383.33 323.911C382.71 323.312 382.045 322.722 381.231 322.418C379.941 321.934 378.521 322.261 377.342 323.012C377.707 323.28 378.049 323.593 378.373 323.906C379.978 325.492 381.36 327.313 382.447 329.29C382.979 330.258 383.45 331.291 383.552 332.397C383.797 335.273 381.434 337.762 378.859 339.066C376.278 340.38 373.356 340.933 370.827 342.325C368.288 343.722 366.009 345.52 366.55 348.354L360.358 348.363L359.535 348.373L352.9 348.382H352.118L346.153 348.396H345.187C345.187 348.396 345.187 348.4 345.187 348.405L350.333 348.396H351.11L357.075 348.382H357.861L364.497 348.373L365.32 348.363L371.511 348.354C370.97 345.52 373.25 343.722 375.788 342.325C378.318 340.933 381.24 340.38 383.82 339.066C386.4 337.762 388.758 335.268 388.513 332.397L388.509 332.401Z" fill="#EB8136"/>
<path d="M348.905 348.397H348.128C348.059 347.208 347.911 346.033 347.666 344.866C347.383 343.497 346.986 342.156 346.491 340.861C346.422 340.875 346.357 340.884 346.288 340.875C344.993 340.658 343.786 340.068 342.792 339.22C342.625 339.082 342.653 338.805 342.792 338.667C342.949 338.51 343.185 338.529 343.342 338.667C344.151 339.354 345.127 339.815 346.163 340.04C344.461 336.003 341.751 332.403 338.27 329.692C337.872 329.388 338.436 328.835 338.825 329.139C339.796 329.905 340.72 330.739 341.576 331.633C341.844 330.338 341.913 329.01 341.77 327.683C341.747 327.471 341.964 327.291 342.163 327.291C342.39 327.291 342.533 327.48 342.556 327.683C342.723 329.245 342.602 330.822 342.228 332.347C342.371 332.513 342.519 332.665 342.658 332.831C346.338 337.196 348.581 342.718 348.905 348.406V348.397Z" fill="#FFCEAB"/>
<path d="M363.775 331.143C362.162 333.986 359.993 336.471 357.422 338.485C357.279 341.924 357.422 345.367 357.852 348.782H357.066C356.909 347.566 356.793 346.344 356.705 345.127C356.567 342.947 356.548 340.767 356.636 338.596C356.567 338.453 356.557 338.278 356.659 338.135C356.872 333.503 357.593 328.889 358.823 324.418C358.758 324.385 358.698 324.339 358.657 324.261C356.923 320.988 355.845 317.425 355.466 313.756C355.411 313.258 356.197 313.258 356.248 313.756C356.594 317.116 357.57 320.389 359.101 323.403C360.002 320.311 361.144 317.278 362.518 314.36C362.735 313.899 363.41 314.295 363.197 314.752C361.935 317.43 360.872 320.205 360.016 323.039C358.597 327.727 357.746 332.576 357.468 337.457C359.734 335.581 361.639 333.309 363.086 330.755C363.336 330.317 364.011 330.709 363.766 331.147L363.775 331.143Z" fill="#FFCEAB"/>
<path d="M382.567 334.563C380.875 335.521 378.9 335.936 376.958 335.733C374.216 337.937 371.012 339.559 368.621 342.168C366.989 343.943 365.981 346.091 365.315 348.363L364.492 348.372C364.673 347.722 364.885 347.082 365.126 346.459C365.454 345.607 365.856 344.786 366.319 344.007C366.263 343.943 366.217 343.869 366.217 343.758C366.208 343.468 366.037 343.21 365.902 342.952C365.755 342.661 365.634 342.352 365.551 342.03C365.385 341.375 365.385 340.688 365.537 340.029C365.648 339.536 366.406 339.748 366.296 340.232C366.161 340.817 366.185 341.426 366.36 342.007C366.485 342.412 366.712 342.772 366.86 343.164C367.257 342.587 367.692 342.016 368.177 341.49C369.555 340.029 371.22 338.849 372.871 337.715C374.031 336.918 375.252 336.098 376.39 335.194C376.436 335.06 376.556 334.95 376.695 334.945C378.512 333.438 380.089 331.686 380.815 329.391C380.963 328.916 381.726 329.119 381.568 329.603C380.926 331.636 379.626 333.346 378.063 334.784C377.985 334.862 377.897 334.931 377.814 335.001C379.335 335.014 380.838 334.641 382.179 333.885C382.618 333.636 383.011 334.314 382.572 334.563H382.567Z" fill="#FFCEAB"/>
<path d="M557.047 347.893H36.4691C35.9431 347.893 35.5166 348.318 35.5166 348.842V349.045C35.5166 349.569 35.9431 349.994 36.4691 349.994H557.047C557.573 349.994 558 349.569 558 349.045V348.842C558 348.318 557.573 347.893 557.047 347.893Z" fill="#30334D"/>
<path d="M24.6642 347.926H0.92479C0.414043 347.926 0 348.339 0 348.848V349.046C0 349.555 0.414043 349.968 0.92479 349.968H24.6642C25.1749 349.968 25.5889 349.555 25.5889 349.046V348.848C25.5889 348.339 25.1749 347.926 24.6642 347.926Z" fill="#30334D"/>
<path d="M467.163 20.6447C467.163 20.6447 472.161 7.72012 480.743 12.6659C487.67 16.6576 487.661 4.47515 492.266 6.45716C498.781 9.26424 500.793 -1.77049 503.479 0.248398C507.012 2.90798 507.756 11.615 512.426 9.99712C516.68 8.52214 517.078 -3.07032 520.657 3.35048C526.419 13.6938 530.053 -0.641202 534.238 9.99712C537.373 17.9713 547.407 14.4359 549.871 20.6447H467.167H467.163Z" fill="#C9E2FF"/>
<path d="M15.9111 22.5216C15.9111 22.5216 20.9096 9.59707 29.4917 14.5429C36.4184 18.5346 36.4091 6.3521 41.0146 8.33411C47.5297 11.1412 49.5411 0.106466 52.2276 2.12535C55.7603 4.78493 56.5048 13.492 61.175 11.8741C65.429 10.4037 65.8267 -1.19336 69.4056 5.22743C75.1671 15.5708 78.8015 1.23575 82.9862 11.8741C86.1212 19.8482 96.1552 16.3129 98.6198 22.5216H15.9111Z" fill="#C9E2FF"/>
</g>
<defs>
<clipPath id="clip0_659_16676">
<rect width="558" height="350" fill="white"/>
</clipPath>
</defs>
</svg>
