<svg viewBox="0 0 840 350" fill="none" xmlns="http://www.w3.org/2000/svg">
<g opacity="0.5">
<path d="M784.755 347.387H792.142C794.864 343.953 797.777 338.869 800.53 333.406C801.05 332.379 801.557 331.343 802.06 330.298C807.761 318.471 812.308 306.127 815.837 293.473C820.015 278.473 827.849 257.418 833.831 253.126C841.803 247.411 840.03 246.105 839.332 244.508C838.677 243.032 837.017 242.27 835.435 242.571C815.967 246.301 803.443 263.003 795.423 281.781C792.168 289.407 789.653 297.377 787.72 304.951C782.431 325.649 781.456 343.444 781.456 343.444C781.703 344.989 782.002 346.295 782.34 347.383H784.751L784.755 347.387Z" fill="url(#paint0_linear_659_17448)"/>
<path d="M787.72 304.578V304.956C787.707 326.795 786.498 339.888 784.755 347.388H771.698L768.369 322.298C768.369 322.298 766.479 306.902 766.041 287.841C765.577 267.879 766.709 243.89 773.259 229.36C773.61 228.581 773.974 227.833 774.355 227.11C775.942 224.115 780.355 224.507 781.421 227.724C782.895 232.185 784.569 239.92 785.821 253.318C786.94 265.306 787.724 281.821 787.724 304.573L787.72 304.578Z" fill="url(#paint1_linear_659_17448)"/>
<path d="M708.741 347.39C709.456 338.698 711.243 330.096 713.605 321.691C714.771 317.482 716.128 313.325 717.55 309.198C719.002 305.08 720.589 301.01 722.236 296.967C723.914 292.936 725.678 288.944 727.533 284.996C729.415 281.061 731.331 277.144 733.381 273.296C733.888 272.329 734.404 271.372 734.924 270.414C735.44 269.457 735.96 268.499 736.498 267.55C737.564 265.652 738.644 263.759 739.749 261.883C741.977 258.139 744.262 254.431 746.733 250.844C742.597 258.505 738.665 266.249 734.89 274.066C733.026 277.984 731.153 281.897 729.393 285.862C727.603 289.811 725.869 293.785 724.234 297.802C720.896 305.803 717.879 313.934 715.218 322.183C712.569 330.436 710.345 338.828 708.741 347.395V347.39Z" fill="url(#paint2_linear_659_17448)"/>
<path d="M701.056 347.388C700.314 337.751 699.356 328.157 698.043 318.615C696.656 309.087 695.125 299.58 693.071 290.178C692.845 288.994 692.568 287.828 692.308 286.652L691.519 283.131L691.12 281.372L690.682 279.623L689.815 276.118L689.386 274.364L688.922 272.619L687.999 269.132C687.704 267.966 687.348 266.816 687.023 265.659L686.048 262.185C685.35 259.882 684.674 257.571 683.941 255.277L682.853 251.834L681.704 248.408C680.941 246.123 680.139 243.851 679.311 241.587C678.483 239.324 677.638 237.065 676.71 234.836C677.278 235.902 677.811 236.986 678.345 238.07C678.856 239.163 679.381 240.255 679.866 241.361C680.365 242.462 680.85 243.568 681.314 244.686C681.778 245.801 682.263 246.911 682.701 248.038C684.518 252.522 686.126 257.088 687.665 261.68C688.393 263.987 689.16 266.285 689.828 268.614L690.834 272.105L691.337 273.851L691.805 275.605C693.053 280.284 694.159 284.998 695.19 289.73L696.599 296.855L697.826 304.016C698.207 306.406 698.502 308.813 698.845 311.207C699.196 313.601 699.469 316.008 699.716 318.415C700.722 328.044 701.212 337.724 701.056 347.392V347.388Z" fill="url(#paint3_linear_659_17448)"/>
<path d="M692.988 347.388C690.461 341.903 687.136 336.915 683.481 332.205C681.643 329.859 679.727 327.569 677.729 325.354C675.752 323.121 673.706 320.944 671.591 318.833C669.505 316.696 667.36 314.611 665.175 312.574C663.012 310.51 660.771 308.525 658.547 306.519C654.06 302.553 649.487 298.671 644.822 294.857C650.007 297.931 654.91 301.465 659.635 305.217C662.01 307.08 664.295 309.056 666.562 311.05C668.812 313.065 670.997 315.164 673.134 317.301C677.369 321.623 681.366 326.211 684.838 331.195C686.581 333.681 688.172 336.275 689.572 338.974C690.959 341.672 692.156 344.48 692.988 347.383V347.388Z" fill="url(#paint4_linear_659_17448)"/>
<path d="M644.84 347.388H613.966C607.763 342.069 602.127 332.279 602.127 314.293C602.127 314.293 619.94 311.098 634.405 328.584C637.908 332.815 641.211 338.26 644.02 345.251C644.298 345.947 644.575 346.657 644.84 347.388Z" fill="url(#paint5_linear_659_17448)"/>
<path d="M638.632 343.108C638.22 342.59 637.925 341.98 637.782 341.332C636.317 334.781 627.062 296.489 605.092 268.421C603.957 266.968 603.428 265.087 603.853 263.289C604.429 260.856 608.669 258.458 615.791 263.986C628.25 273.654 635.073 281.624 646.912 340.213C647.037 340.836 647.029 341.48 646.881 342.098C646.045 345.663 641.489 346.695 639.213 343.835L638.632 343.108Z" fill="url(#paint6_linear_659_17448)"/>
<path d="M656.102 347.387H648.308C647.636 346.378 646.916 345.154 646.17 343.674C643.7 338.773 640.882 331.038 637.995 318.863L635.762 309.652C633.569 300.603 631.913 291.431 630.855 282.186C630.478 278.882 630.179 275.574 629.962 272.257C629.321 262.489 629.321 252.243 631.28 246.179C632.052 243.789 635.238 243.419 636.512 245.583C637.852 247.859 639.512 251.864 641.406 258.841C641.406 258.841 645.36 271.944 649.274 288.515C650.146 292.215 651.021 296.089 651.845 300.028C653.592 308.368 655.126 316.996 656.033 324.905C657.056 333.802 657.277 341.781 656.098 347.387H656.102Z" fill="url(#paint7_linear_659_17448)"/>
<path d="M679.554 309.722C679.554 309.722 688.094 318.867 680.122 328.587C680.122 328.587 676.706 332.587 670.442 326.302C664.789 320.626 654.494 330.79 648.776 318.937C647.813 316.948 647.237 314.797 646.972 312.599C646.634 309.809 645.399 304.141 640.891 299.976C639.984 299.136 639.313 298.06 638.944 296.881C638.775 296.345 638.641 295.736 638.58 295.057C638.19 290.752 642.135 287.287 646.37 288.075C650.124 288.771 655.426 289.276 660.194 288.001C660.194 288.001 674.426 283.426 677.274 304.581C677.274 304.581 677.274 308.011 679.55 309.726L679.554 309.722Z" fill="url(#paint8_linear_659_17448)"/>
<path d="M697.77 314.294C697.77 314.294 689.264 318.817 683.039 310.433C681.674 308.596 680.053 306.96 678.111 305.75C676.416 304.692 674.196 303.578 671.578 302.864C665.314 301.149 663.606 289.714 663.606 289.714C663.606 289.714 662.466 281.139 659.622 278.853C659.622 278.853 654.498 272.563 659.622 263.418C659.622 263.418 661.898 257.703 660.762 249.698C660.762 249.698 659.054 243.408 667.026 237.122C667.026 237.122 668.305 235.838 669.666 232.3C671.751 226.88 678.978 225.701 682.433 230.362C683.2 231.398 683.954 232.683 684.669 234.267C684.669 234.267 685.809 237.697 697.193 241.697C697.193 241.697 702.425 242.746 703.357 254.416C703.496 256.171 703.904 257.903 704.662 259.492C705.256 260.732 706.114 262.121 707.337 263.331C709.933 265.912 711.693 269.238 712.019 272.894C712.248 275.48 712.144 278.727 711.308 282.653C711.039 283.907 710.77 285.161 710.532 286.419C709.487 291.995 705.763 308.623 697.757 314.299L697.77 314.294Z" fill="url(#paint9_linear_659_17448)"/>
<path d="M712.031 321.972C712.196 323.656 713.172 327.343 718.564 327.1C721.642 326.96 724.533 325.559 726.649 323.313C727.316 322.607 728.023 321.75 728.734 320.723C730.719 317.854 733.776 315.9 737.231 315.499C737.937 315.417 738.696 315.373 739.515 315.377C741.05 315.386 743.377 314.79 744.648 313.924C746.754 312.487 749.004 309.745 749.004 304.582C749.004 304.582 749.572 299.437 755.268 295.437C760.96 291.437 758.116 281.717 758.116 281.717C758.116 281.717 756.976 274.286 760.964 269.141C762.529 267.122 762.867 264.923 762.694 262.999C762.473 260.51 761.329 258.194 759.603 256.392C757.774 254.485 754.687 250.733 754.115 246.659C753.721 243.851 751.185 241.775 748.393 242.21C747.331 242.376 746.13 242.785 744.808 243.564C743.958 244.064 743.213 244.722 742.554 245.453C740.573 247.664 735.011 253.253 729.085 253.71C721.685 254.281 718.837 257.14 717.129 262.856C717.129 262.856 714.281 270.286 709.157 272.576C704.033 274.861 701.185 278.866 704.033 289.156C704.033 289.156 705.299 295.515 702.742 299.472C701.415 301.527 700.813 303.986 701.346 306.376C701.914 308.926 703.375 311.843 706.882 313.736C706.882 313.736 709.808 314.994 711.364 318.955C711.741 319.922 711.932 320.949 712.031 321.981V321.972Z" fill="url(#paint10_linear_659_17448)"/>
<path d="M737.985 347.389H736.468C734.825 341.364 734.721 329.438 755.108 321.385C755.108 321.385 755.134 321.441 755.178 321.546C760.284 333.838 751.25 347.389 737.985 347.389Z" fill="url(#paint11_linear_659_17448)"/>
<path d="M736.81 347.389H738.327C739.97 341.364 740.074 329.438 719.687 321.385C719.687 321.385 719.661 321.441 719.618 321.546C714.511 333.838 723.545 347.389 736.81 347.389Z" fill="url(#paint12_linear_659_17448)"/>
<path d="M774.563 347.387H767.866C766.218 339.822 760.618 315.529 752.923 297.399C750.136 290.826 747.075 285.063 743.824 281.202C742.333 279.426 740.919 277.58 739.697 275.613C738.674 273.967 737.443 271.895 736.212 269.619C733.424 264.461 730.646 258.249 730.342 253.526C730.19 251.232 730.628 249.291 731.924 247.985C731.924 247.985 733.723 246.179 738.739 249.104C740.417 250.083 742.454 251.589 744.903 253.87C747.496 256.282 750.547 259.555 754.124 263.986C756.014 266.328 757.748 269.01 759.33 271.926C761.953 276.749 764.163 282.207 766.028 287.84C773.202 309.522 775.187 333.732 775.187 333.732C775.187 333.732 775.521 341.824 774.554 347.391L774.563 347.387Z" fill="url(#paint13_linear_659_17448)"/>
</g>
<g opacity="0.5">
<path d="M93.2733 250.844C95.7442 254.431 98.0288 258.139 100.257 261.883C102.463 265.639 104.592 269.439 106.621 273.3C108.675 277.144 110.591 281.061 112.468 285.001C114.328 288.944 116.088 292.94 117.77 296.967C119.417 301.006 121 305.08 122.456 309.198C123.874 313.329 125.235 317.482 126.401 321.691C128.764 330.096 130.55 338.698 131.261 347.39C129.652 338.824 127.428 330.431 124.78 322.178C122.118 313.93 119.101 305.799 115.767 297.798C114.137 293.785 112.395 289.811 110.609 285.858C108.844 281.897 106.98 277.979 105.112 274.062C101.336 266.249 97.4045 258.5 93.2646 250.844H93.2733Z" fill="url(#paint14_linear_659_17448)"/>
<path d="M163.296 234.839C162.368 237.067 161.523 239.327 160.69 241.59C159.863 243.854 159.056 246.126 158.293 248.411C156.72 252.964 155.341 257.578 153.945 262.183L152.97 265.657C152.649 266.815 152.294 267.964 151.999 269.131L151.071 272.617L150.607 274.363L150.178 276.117L149.316 279.621L148.878 281.371L148.479 283.129L147.69 286.651C147.43 287.826 147.148 288.997 146.927 290.177C144.872 299.579 143.342 309.086 141.955 318.614C140.641 328.155 139.683 337.749 138.938 347.386C138.782 337.719 139.271 328.038 140.273 318.409L140.667 314.801C140.802 313.599 140.984 312.402 141.144 311.201C141.487 308.803 141.781 306.4 142.163 304.01L143.394 296.85L144.807 289.724C145.843 284.992 146.944 280.274 148.197 275.599L148.665 273.845L149.168 272.099L150.174 268.608C150.841 266.28 151.609 263.986 152.337 261.674C153.876 257.086 155.484 252.52 157.301 248.032C157.738 246.905 158.224 245.795 158.688 244.681C159.152 243.562 159.637 242.456 160.136 241.355C160.621 240.249 161.146 239.157 161.657 238.064C162.19 236.98 162.724 235.897 163.291 234.83L163.296 234.839Z" fill="url(#paint15_linear_659_17448)"/>
<path d="M195.179 294.858C190.515 298.667 185.942 302.549 181.451 306.515C179.222 308.517 176.986 310.506 174.822 312.57C172.638 314.611 170.492 316.692 168.407 318.833C166.296 320.949 164.245 323.121 162.273 325.354C161.766 325.902 161.28 326.464 160.79 327.03C160.305 327.596 159.806 328.153 159.334 328.727C158.38 329.872 157.439 331.03 156.52 332.205C152.866 336.915 149.545 341.904 147.014 347.384C147.842 344.476 149.038 341.669 150.425 338.97C151.825 336.275 153.421 333.681 155.159 331.191C158.631 326.203 162.628 321.615 166.863 317.297C169.005 315.16 171.181 313.057 173.435 311.046C175.702 309.048 177.991 307.076 180.362 305.213C185.088 301.461 189.986 297.927 195.171 294.854L195.179 294.858Z" fill="url(#paint16_linear_659_17448)"/>
<path d="M57.6617 347.387C58.0042 346.299 58.299 344.993 58.5461 343.448C58.5461 343.448 57.575 325.654 52.282 304.956C50.3487 297.377 47.8344 289.412 44.5788 281.785C36.5592 263.003 24.0355 246.301 4.56723 242.571C2.98497 242.27 1.32035 243.032 0.670108 244.508C-0.032154 246.105 -1.80081 247.407 6.17116 253.126C12.1534 257.418 19.9867 278.473 24.1655 293.473C27.6942 306.127 32.2416 318.471 37.942 330.298C38.4449 331.338 38.9521 332.379 39.4723 333.402C42.225 338.869 45.138 343.953 47.8604 347.387H51.363H55.2515H57.6617Z" fill="url(#paint17_linear_659_17448)"/>
<path d="M52.2861 304.578V304.956C52.2991 326.795 53.5085 339.888 55.2512 347.388H68.3081L71.6373 322.298C71.6373 322.298 73.5273 306.902 73.9652 287.841C74.429 267.879 73.2976 243.89 66.7475 229.36C66.3963 228.581 66.0322 227.833 65.6507 227.11C64.0641 224.115 59.6512 224.507 58.5848 227.724C57.1109 232.185 55.4376 239.92 54.1848 253.318C53.0664 265.306 52.2817 281.821 52.2817 304.573L52.2861 304.578Z" fill="url(#paint18_linear_659_17448)"/>
<path d="M195.162 347.388H226.036C232.239 342.069 237.874 332.279 237.874 314.293C237.874 314.293 220.062 311.098 205.596 328.584C202.094 332.815 198.79 338.26 195.981 345.251C195.704 345.947 195.427 346.657 195.162 347.388Z" fill="url(#paint19_linear_659_17448)"/>
<path d="M201.369 343.108C201.781 342.59 202.076 341.98 202.219 341.332C203.684 334.781 212.939 296.489 234.909 268.421C236.045 266.968 236.574 265.087 236.149 263.289C235.572 260.856 231.333 258.458 224.21 263.986C211.752 273.654 204.928 281.624 193.09 340.213C192.964 340.836 192.973 341.48 193.12 342.098C193.957 345.663 198.513 346.695 200.789 343.835L201.369 343.108Z" fill="url(#paint20_linear_659_17448)"/>
<path d="M183.904 347.387H191.698C192.37 346.378 193.09 345.154 193.836 343.674C196.307 338.773 199.124 331.038 202.011 318.863L204.244 309.652C206.437 300.603 208.093 291.431 209.151 282.186C209.528 278.882 209.827 275.574 210.044 272.257C210.686 262.489 210.686 252.243 208.726 246.179C207.955 243.789 204.768 243.419 203.494 245.583C202.154 247.859 200.494 251.864 198.6 258.841C198.6 258.841 194.646 271.944 190.732 288.515C189.86 292.215 188.985 296.089 188.161 300.028C186.414 308.368 184.88 316.996 183.974 324.905C182.951 333.802 182.729 341.781 183.909 347.387H183.904Z" fill="url(#paint21_linear_659_17448)"/>
<path d="M160.452 309.722C160.452 309.722 151.913 318.867 159.885 328.587C159.885 328.587 163.3 332.587 169.564 326.302C175.217 320.626 185.513 330.79 191.231 318.937C192.193 316.948 192.769 314.797 193.034 312.599C193.372 309.809 194.608 304.141 199.116 299.976C200.022 299.136 200.694 298.06 201.062 296.881C201.231 296.345 201.366 295.736 201.426 295.057C201.817 290.752 197.872 287.287 193.636 288.075C189.882 288.771 184.581 289.276 179.812 288.001C179.812 288.001 165.581 283.426 162.733 304.581C162.733 304.581 162.733 308.011 160.457 309.726L160.452 309.722Z" fill="url(#paint22_linear_659_17448)"/>
<path d="M142.232 314.294C142.232 314.294 150.737 318.817 156.962 310.433C158.328 308.596 159.949 306.96 161.891 305.75C163.586 304.692 165.805 303.578 168.424 302.864C174.688 301.149 176.396 289.714 176.396 289.714C176.396 289.714 177.536 281.139 180.379 278.853C180.379 278.853 185.503 272.563 180.379 263.418C180.379 263.418 178.104 257.703 179.239 249.698C179.239 249.698 180.947 243.408 172.975 237.122C172.975 237.122 171.697 235.838 170.335 232.3C168.25 226.88 161.024 225.701 157.569 230.362C156.802 231.398 156.047 232.683 155.332 234.267C155.332 234.267 154.192 237.697 142.808 241.697C142.808 241.697 137.576 242.746 136.644 254.416C136.505 256.171 136.098 257.903 135.339 259.492C134.745 260.732 133.887 262.121 132.665 263.331C130.068 265.912 128.308 269.238 127.983 272.894C127.753 275.48 127.857 278.727 128.694 282.653C128.963 283.907 129.231 285.161 129.47 286.419C130.515 291.995 134.238 308.623 142.245 314.299L142.232 314.294Z" fill="url(#paint23_linear_659_17448)"/>
<path d="M127.974 321.972C127.809 323.656 126.834 327.343 121.441 327.1C118.364 326.96 115.472 325.559 113.357 323.313C112.689 322.607 111.983 321.75 111.272 320.723C109.286 317.854 106.23 315.9 102.775 315.499C102.069 315.417 101.31 315.373 100.491 315.377C98.956 315.386 96.6282 314.79 95.358 313.924C93.2512 312.487 91.0014 309.745 91.0014 304.582C91.0014 304.582 90.4335 299.437 84.7374 295.437C79.0456 291.437 81.8893 281.717 81.8893 281.717C81.8893 281.717 83.0294 274.286 79.0413 269.141C77.4763 267.122 77.1382 264.923 77.3116 262.999C77.5327 260.51 78.6771 258.194 80.4024 256.392C82.2318 254.485 85.3183 250.733 85.8905 246.659C86.285 243.851 88.8209 241.775 91.6126 242.21C92.6747 242.376 93.8755 242.785 95.1976 243.564C96.0473 244.064 96.7929 244.722 97.4518 245.453C99.4329 247.664 104.995 253.253 110.92 253.71C118.32 254.281 121.168 257.14 122.876 262.856C122.876 262.856 125.724 270.286 130.848 272.576C135.972 274.861 138.82 278.866 135.972 289.156C135.972 289.156 134.706 295.515 137.264 299.472C138.59 301.527 139.193 303.986 138.66 306.376C138.092 308.926 136.631 311.843 133.124 313.736C133.124 313.736 130.198 314.994 128.642 318.955C128.265 319.922 128.074 320.949 127.974 321.981V321.972Z" fill="url(#paint24_linear_659_17448)"/>
<path d="M102.021 347.389H103.538C105.181 341.364 105.285 329.438 84.898 321.385C84.898 321.385 84.872 321.441 84.8287 321.546C79.7221 333.838 88.7561 347.389 102.021 347.389Z" fill="url(#paint25_linear_659_17448)"/>
<path d="M103.192 347.389H101.675C100.032 341.364 99.9276 329.438 120.315 321.385C120.315 321.385 120.341 321.441 120.384 321.546C125.491 333.838 116.457 347.389 103.192 347.389Z" fill="url(#paint26_linear_659_17448)"/>
<path d="M65.4431 347.387H72.1406C73.7879 339.822 79.3887 315.529 87.0832 297.399C89.8706 290.826 92.931 285.063 96.1823 281.202C97.6735 279.426 99.0867 277.58 100.309 275.613C101.332 273.967 102.563 271.895 103.794 269.619C106.582 264.461 109.361 258.249 109.664 253.526C109.816 251.232 109.378 249.291 108.082 247.985C108.082 247.985 106.283 246.179 101.267 249.104C99.5895 250.083 97.5521 251.589 95.1029 253.87C92.5106 256.282 89.4587 259.555 85.8824 263.986C83.9924 266.328 82.2584 269.01 80.6761 271.926C78.0535 276.749 75.8427 282.207 73.9786 287.84C66.8043 309.522 64.8189 333.732 64.8189 333.732C64.8189 333.732 64.4851 341.824 65.4518 347.391L65.4431 347.387Z" fill="url(#paint27_linear_659_17448)"/>
</g>
<path d="M384.789 15.9794C384.789 21.1244 383.519 25.0768 380.979 27.8409C378.439 30.605 374.797 31.9848 370.055 31.9848C365.312 31.9848 361.671 30.605 359.131 27.8409C356.59 25.0768 355.32 21.1114 355.32 15.9402C355.32 10.769 356.595 6.81658 359.139 4.09169C361.688 1.36244 365.338 0 370.094 0C374.849 0 378.486 1.3755 381.005 4.12216C383.524 6.87317 384.785 10.8256 384.785 15.9837L384.789 15.9794ZM362.204 15.9794C362.204 19.4529 362.859 22.0646 364.172 23.8232C365.486 25.5818 367.445 26.4567 370.055 26.4567C375.291 26.4567 377.91 22.9657 377.91 15.9794C377.91 8.99301 375.304 5.48025 370.098 5.48025C367.489 5.48025 365.52 6.36388 364.194 8.12679C362.867 9.8897 362.204 12.5101 362.204 15.9794Z" fill="url(#paint28_linear_659_17448)"/>
<path d="M412.2 19.6353C412.2 23.505 411.185 26.5303 409.152 28.711C407.119 30.8918 404.293 31.9844 400.664 31.9844C398.393 31.9844 396.39 31.4838 394.652 30.487C392.914 29.4902 391.583 28.0538 390.651 26.182C389.719 24.3103 389.255 22.1295 389.255 19.6353C389.255 15.7526 390.265 12.7361 392.281 10.5814C394.296 8.42672 397.136 7.35156 400.79 7.35156C403.062 7.35156 405.064 7.84779 406.803 8.84024C408.537 9.83269 409.872 11.2561 410.804 13.1104C411.736 14.9647 412.2 17.1411 412.2 19.6353ZM395.84 19.6353C395.84 21.9859 396.225 23.7662 396.993 24.9719C397.76 26.1777 399.013 26.7784 400.751 26.7784C402.49 26.7784 403.712 26.1777 404.466 24.9806C405.221 23.7836 405.598 22.0033 405.598 19.6353C405.598 17.2674 405.216 15.5175 404.453 14.3423C403.69 13.167 402.442 12.5793 400.708 12.5793C398.974 12.5793 397.743 13.1626 396.984 14.3335C396.225 15.5045 395.84 17.2717 395.84 19.6353Z" fill="url(#paint29_linear_659_17448)"/>
<path d="M430.532 31.9829C427.753 31.9829 425.573 30.9687 423.99 28.9446H423.652C423.878 30.9295 423.99 32.0743 423.99 32.3877V42.0162H417.536V7.79405H422.785L423.696 10.8759H423.99C425.499 8.52533 427.736 7.3457 430.701 7.3457C433.497 7.3457 435.682 8.42957 437.264 10.5973C438.846 12.765 439.635 15.7772 439.635 19.6295C439.635 22.1672 439.267 24.3697 438.525 26.2415C437.784 28.1132 436.731 29.5366 435.361 30.5116C433.991 31.491 432.383 31.9785 430.536 31.9785L430.532 31.9829ZM428.629 12.5343C427.034 12.5343 425.872 13.0262 425.135 14.0099C424.402 14.9937 424.021 16.6216 423.99 18.8895V19.5903C423.99 22.1411 424.368 23.9693 425.122 25.0749C425.876 26.1805 427.073 26.7333 428.711 26.7333C431.603 26.7333 433.05 24.3393 433.05 19.5511C433.05 17.2136 432.695 15.4594 431.98 14.2929C431.269 13.1219 430.15 12.5387 428.624 12.5387L428.629 12.5343Z" fill="url(#paint30_linear_659_17448)"/>
<path d="M461.475 24.5003C461.475 26.9379 460.63 28.7922 458.943 30.0676C457.257 31.343 454.734 31.9785 451.375 31.9785C449.654 31.9785 448.184 31.861 446.97 31.626C445.756 31.3909 444.621 31.047 443.563 30.5943V25.2403C444.764 25.8062 446.112 26.2806 447.616 26.6637C449.12 27.0467 450.443 27.2383 451.587 27.2383C453.928 27.2383 455.103 26.5592 455.103 25.1968C455.103 24.6875 454.947 24.274 454.639 23.9519C454.327 23.6341 453.794 23.2728 453.031 22.868C452.268 22.4632 451.253 21.9931 449.983 21.4533C448.162 20.6872 446.827 19.9777 445.973 19.3291C445.119 18.6762 444.499 17.9319 444.109 17.0874C443.719 16.2429 443.528 15.207 443.528 13.9751C443.528 11.864 444.343 10.2316 445.973 9.07814C447.603 7.92463 449.914 7.3457 452.905 7.3457C455.896 7.3457 458.527 7.96816 461.224 9.21743L459.277 13.8924C458.094 13.3831 456.984 12.9652 455.952 12.6388C454.921 12.3123 453.872 12.1513 452.796 12.1513C450.893 12.1513 449.94 12.6693 449.94 13.7009C449.94 14.2798 450.248 14.7847 450.859 15.2113C451.47 15.6379 452.818 16.2691 454.89 17.1048C456.737 17.8579 458.094 18.5587 458.956 19.2072C459.815 19.8602 460.452 20.6089 460.859 21.462C461.267 22.3108 461.475 23.3251 461.475 24.5003Z" fill="url(#paint31_linear_659_17448)"/>
<path d="M476.864 28.5192C476.864 27.3309 477.18 26.4298 477.817 25.8204C478.45 25.211 479.378 24.9063 480.592 24.9063C481.806 24.9063 482.668 25.2197 483.31 25.8422C483.951 26.4646 484.272 27.357 484.272 28.5192C484.272 29.6814 483.947 30.5215 483.297 31.1657C482.647 31.81 481.745 32.1321 480.587 32.1321C479.43 32.1321 478.485 31.8187 477.835 31.1875C477.184 30.5563 476.859 29.6683 476.859 28.5192H476.864ZM483.193 21.2499H478.03L476.95 0.482422H484.272L483.193 21.2499Z" fill="url(#paint32_linear_659_17448)"/>
<path d="M744.704 344.775H94.8944C91.5478 344.775 91.5435 349.999 94.8944 349.999H744.704C748.05 349.999 748.055 344.775 744.704 344.775Z" fill="url(#paint33_linear_659_17448)"/>
<path d="M77.3378 344.775H41.2494C37.9028 344.775 37.8984 349.999 41.2494 349.999H77.3378C80.6844 349.999 80.6887 344.775 77.3378 344.775Z" fill="url(#paint34_linear_659_17448)"/>
<path d="M798.349 344.775H762.26C758.914 344.775 758.909 349.999 762.26 349.999H798.349C801.695 349.999 801.699 344.775 798.349 344.775Z" fill="url(#paint35_linear_659_17448)"/>
<path d="M289.261 219.547L275.29 218.594L300.129 220.287L314.105 221.236L289.261 219.547Z" fill="url(#paint36_linear_659_17448)"/>
<path d="M221.134 252.142L217.46 306.523L231.435 307.475L235.108 253.094L221.134 252.142Z" fill="url(#paint37_linear_659_17448)"/>
<path d="M230.436 114.39L223.634 215.084L237.608 216.036L244.41 115.342L230.436 114.39Z" fill="url(#paint38_linear_659_17448)"/>
<path d="M235.179 64.5802L221.207 63.627L285.455 68.0016L299.427 68.9505L235.179 64.5802Z" fill="url(#paint39_linear_659_17448)"/>
<path d="M197.191 213.279L183.22 212.33L223.626 215.077L237.597 216.03L197.191 213.279Z" fill="url(#paint40_linear_659_17448)"/>
<path d="M221.207 63.627L141.14 209.766L138.661 246.517L152.632 247.466L155.112 210.714L235.178 64.5802L221.207 63.627Z" fill="url(#paint41_linear_659_17448)"/>
<path d="M289.261 219.548L314.101 221.237L311.599 258.288L286.76 256.599L283.088 310.98L231.424 307.462L235.096 253.082L152.632 247.471L155.112 210.72L235.178 64.5859L299.427 68.9606L289.261 219.552V219.548ZM237.597 216.031L244.395 115.336L197.191 213.28L237.597 216.031Z" fill="url(#paint42_linear_659_17448)"/>
<path d="M443.85 143.102C443.78 142.127 443.698 141.122 443.603 140.094C443.555 139.581 443.503 139.059 443.451 138.527C443.013 134.296 441.652 130.553 439.359 127.301C437.924 125.269 435.874 123.871 433.203 123.11C431.604 122.653 429.779 122.422 427.732 122.422H413.917C419.37 122.422 423.25 124.05 425.543 127.297C426.974 129.33 428.045 131.55 428.751 133.966C428.894 134.449 429.02 134.941 429.133 135.437C429.358 136.434 429.527 137.461 429.636 138.519C430.073 142.754 430.29 146.545 430.29 149.888V267.49H444.106V149.897C444.106 147.808 444.019 145.54 443.85 143.102Z" fill="url(#paint43_linear_659_17448)"/>
<path d="M363.562 292.864C358.105 282.626 355.378 270.712 355.378 257.122V148.714C355.378 134.737 357.94 122.475 363.068 111.941C363.389 111.284 363.718 110.635 364.061 109.996C364.165 109.795 364.282 109.604 364.39 109.408C364.633 108.968 364.871 108.533 365.123 108.102C365.266 107.858 365.418 107.619 365.565 107.375C365.79 107.001 366.012 106.626 366.246 106.261C366.406 106.008 366.575 105.765 366.74 105.516C366.97 105.168 367.195 104.816 367.433 104.476C367.607 104.224 367.793 103.98 367.971 103.732C368.209 103.401 368.443 103.07 368.686 102.744C368.881 102.487 369.081 102.239 369.28 101.991C369.523 101.682 369.757 101.373 370.004 101.068C370.216 100.807 370.442 100.559 370.659 100.302C370.901 100.014 371.14 99.7272 371.387 99.4486C371.617 99.1918 371.855 98.9437 372.085 98.6912C372.336 98.4213 372.579 98.1471 372.835 97.8816C373.069 97.6378 373.316 97.4027 373.554 97.1633C373.819 96.8978 374.079 96.6279 374.348 96.3711C374.59 96.1361 374.846 95.9141 375.093 95.6834C375.371 95.4265 375.644 95.1654 375.93 94.9129C376.181 94.6866 376.446 94.4689 376.706 94.2513C376.996 94.0032 377.278 93.7507 377.577 93.5069C377.842 93.2893 378.115 93.0804 378.384 92.8671C378.683 92.6277 378.977 92.3882 379.285 92.1532C379.567 91.9399 379.853 91.7353 380.139 91.5264C380.447 91.3 380.746 91.0737 381.058 90.856C381.349 90.6515 381.648 90.4599 381.943 90.2597C382.263 90.0421 382.575 89.8244 382.901 89.6111C383.204 89.4152 383.516 89.2281 383.824 89.0365C384.149 88.832 384.474 88.623 384.808 88.4228C385.124 88.2313 385.454 88.0528 385.779 87.8656C386.121 87.6697 386.455 87.4695 386.802 87.278C387.452 86.9167 388.115 86.5685 388.792 86.2333C389.013 86.1201 389.247 86.0157 389.472 85.9068C389.928 85.6848 390.383 85.4628 390.847 85.2539C391.124 85.1277 391.41 85.0102 391.692 84.8883C392.117 84.7055 392.537 84.5183 392.966 84.3398C393.27 84.2136 393.586 84.096 393.894 83.9742C394.31 83.8088 394.726 83.6477 395.151 83.491C395.476 83.3735 395.806 83.2603 396.135 83.1428C396.556 82.9948 396.976 82.8468 397.401 82.7075C397.743 82.5943 398.09 82.4898 398.437 82.381C398.862 82.2504 399.287 82.1155 399.72 81.9893C400.076 81.8848 400.44 81.7847 400.8 81.6889C401.233 81.5714 401.667 81.4539 402.104 81.3407C402.473 81.2449 402.846 81.1535 403.218 81.0665C403.773 80.9315 404.328 80.8009 404.892 80.6747C404.974 80.6573 405.061 80.6355 405.143 80.6181C405.906 80.4527 406.678 80.3004 407.458 80.1567C407.566 80.135 407.67 80.1175 407.779 80.0958C408.55 79.9565 409.326 79.8259 410.115 79.6997C410.237 79.6823 410.354 79.6605 410.475 79.6431C411.26 79.5255 412.053 79.4124 412.851 79.3123C412.976 79.2948 413.106 79.2818 413.232 79.2644C414.034 79.1643 414.849 79.0729 415.668 78.9945C415.794 78.9814 415.924 78.9684 416.05 78.9597C416.882 78.8813 417.719 78.8073 418.569 78.7464C418.686 78.7377 418.803 78.729 418.92 78.7203C419.787 78.6593 420.658 78.6071 421.542 78.5636C421.638 78.5592 421.737 78.5549 421.837 78.5505C422.747 78.5113 423.666 78.4765 424.598 78.4547C424.659 78.4547 424.72 78.4547 424.785 78.4547C425.756 78.433 426.736 78.4199 427.728 78.4199H413.913C412.92 78.4199 411.94 78.433 410.969 78.4547C410.909 78.4547 410.848 78.4547 410.783 78.4547C409.851 78.4765 408.932 78.507 408.022 78.5505C407.926 78.5549 407.827 78.5592 407.727 78.5636C406.842 78.6071 405.967 78.6593 405.104 78.7203C404.987 78.729 404.87 78.7377 404.753 78.7464C403.903 78.8073 403.067 78.8813 402.234 78.9597C402.109 78.9727 401.979 78.9858 401.853 78.9945C401.034 79.0772 400.219 79.1686 399.417 79.2644C399.287 79.2818 399.161 79.2948 399.035 79.3123C398.233 79.4124 397.44 79.5255 396.66 79.6431C396.538 79.6605 396.417 79.6823 396.3 79.6997C395.511 79.8215 394.735 79.9521 393.963 80.0958C393.855 80.1132 393.751 80.135 393.643 80.1567C392.862 80.3004 392.091 80.4571 391.328 80.6181C391.245 80.6355 391.159 80.6573 391.076 80.6747C390.773 80.74 390.474 80.8053 390.175 80.8749C389.915 80.9359 389.659 81.0012 389.403 81.0665C389.03 81.1579 388.657 81.2449 388.289 81.3407C387.851 81.4539 387.418 81.5714 386.984 81.6889C386.624 81.789 386.26 81.8891 385.905 81.9893C385.471 82.1155 385.046 82.2461 384.622 82.381C384.275 82.4898 383.928 82.5943 383.585 82.7075C383.161 82.8468 382.74 82.9948 382.32 83.1428C381.99 83.256 381.661 83.3691 381.336 83.491C380.911 83.6477 380.495 83.8131 380.079 83.9742C379.771 84.096 379.454 84.2136 379.151 84.3398C378.722 84.5183 378.297 84.7011 377.876 84.8883C377.595 85.0102 377.308 85.1277 377.031 85.2539C376.567 85.4672 376.112 85.6848 375.657 85.9068C375.431 86.0157 375.202 86.1201 374.976 86.2333C374.304 86.5728 373.641 86.9211 372.987 87.278C372.974 87.2867 372.961 87.2911 372.948 87.2998C372.614 87.4826 372.293 87.6785 371.963 87.8656C371.638 88.0528 371.313 88.2313 370.992 88.4228C370.659 88.623 370.338 88.832 370.008 89.0365C369.701 89.2281 369.388 89.4152 369.085 89.6111C368.76 89.8201 368.448 90.0421 368.127 90.2597C367.832 90.4599 367.533 90.6515 367.243 90.856C366.935 91.0737 366.636 91.3 366.332 91.522C366.046 91.731 365.751 91.9399 365.47 92.1532C365.166 92.3839 364.876 92.6233 364.577 92.8584C364.304 93.076 364.026 93.2849 363.757 93.5026C363.458 93.7463 363.168 94.0032 362.877 94.2556C362.622 94.4733 362.362 94.6866 362.114 94.9086C361.833 95.161 361.56 95.4222 361.282 95.679C361.035 95.9097 360.779 96.1361 360.537 96.3711C360.263 96.6323 360.003 96.9022 359.739 97.1677C359.5 97.4071 359.253 97.6422 359.019 97.8859C358.755 98.1601 358.499 98.4474 358.239 98.7304C358.018 98.9741 357.788 99.2092 357.567 99.4573C357.311 99.7446 357.069 100.041 356.821 100.332C356.609 100.58 356.392 100.828 356.184 101.081C355.937 101.381 355.699 101.695 355.46 102.004C355.261 102.256 355.057 102.504 354.866 102.761C354.624 103.083 354.39 103.418 354.151 103.749C353.973 103.997 353.787 104.241 353.614 104.494C353.375 104.837 353.15 105.186 352.92 105.534C352.755 105.782 352.586 106.026 352.426 106.278C352.192 106.644 351.971 107.018 351.745 107.393C351.598 107.636 351.446 107.871 351.303 108.119C351.052 108.55 350.813 108.986 350.57 109.425C350.462 109.621 350.349 109.813 350.241 110.013C349.899 110.653 349.569 111.301 349.248 111.959C344.12 122.497 341.558 134.755 341.558 148.732V257.14C341.558 270.729 344.285 282.643 349.742 292.881C355.196 303.123 363.276 311.15 373.971 316.957C381.323 320.948 389.915 323.569 399.742 324.818C404.211 325.384 408.932 325.671 413.913 325.671H427.728C411.797 325.671 398.48 322.763 387.786 316.961C377.092 311.154 369.011 303.128 363.558 292.885L363.562 292.864Z" fill="url(#paint44_linear_659_17448)"/>
<path d="M492.068 111.942C497.192 122.48 499.762 134.738 499.762 148.715V257.123C499.762 270.516 497.031 282.378 491.578 292.716C486.12 303.054 478.04 311.133 467.35 316.94C456.655 322.746 443.447 325.65 427.733 325.65C411.802 325.65 398.485 322.742 387.79 316.94C377.096 311.133 369.016 303.106 363.562 292.864C358.105 282.626 355.378 270.712 355.378 257.123V148.715C355.378 134.738 357.94 122.476 363.068 111.942C368.196 101.408 376.108 93.1853 386.806 87.2784C397.501 81.3716 411.143 78.416 427.733 78.416C444.318 78.416 457.908 81.3673 468.494 87.2784C479.08 93.1853 486.939 101.408 492.068 111.942ZM444.106 267.5V149.899C444.106 146.551 443.885 142.764 443.451 138.529C443.013 134.298 441.652 130.555 439.359 127.303C437.066 124.051 433.186 122.428 427.733 122.428C422.279 122.428 418.404 124.056 416.111 127.303C413.817 130.555 412.452 134.294 412.018 138.529C411.576 142.764 411.364 146.556 411.364 149.899V267.5H444.106Z" fill="url(#paint45_linear_659_17448)"/>
<path d="M668.391 207.057L654.975 210.579L678.826 204.315L692.242 200.789L668.391 207.057Z" fill="url(#paint46_linear_659_17448)"/>
<path d="M641.805 307.303L628.388 310.829L614.698 258.955L628.115 255.43L641.805 307.303Z" fill="url(#paint47_linear_659_17448)"/>
<path d="M618.783 220.085L605.366 223.611L580.011 127.561L593.427 124.035L618.783 220.085Z" fill="url(#paint48_linear_659_17448)"/>
<path d="M568.782 79.6159L555.366 83.1417L617.056 66.936L630.473 63.4102L568.782 79.6159Z" fill="url(#paint49_linear_659_17448)"/>
<path d="M579.988 230.278L566.572 233.804L605.365 223.614L618.782 220.088L579.988 230.278Z" fill="url(#paint50_linear_659_17448)"/>
<path d="M555.366 83.141L526.261 244.697L535.516 279.751L548.933 276.23L539.678 241.172L568.783 79.6152L555.366 83.141Z" fill="url(#paint51_linear_659_17448)"/>
<path d="M668.391 207.059L692.242 200.795L701.571 242.665L677.72 242.4L691.414 294.273L641.805 307.305L628.111 255.432L548.928 276.23L539.673 241.172L568.778 79.6159L630.469 63.4102L668.387 207.055L668.391 207.059ZM618.782 220.091L593.427 124.041L579.984 230.281L618.782 220.091Z" fill="url(#paint52_linear_659_17448)"/>
<g opacity="0.25">
<mask id="mask0_659_17448" style="mask-type:luminance" maskUnits="userSpaceOnUse" x="159" y="71" width="149" height="234">
<path d="M238.351 301.384L242.022 247.004L159.559 241.393L161.501 212.599L238.875 71.375L292.499 75.0227L282.333 225.614L307.172 227.303L305.551 251.327L280.712 249.638L277.04 304.018L238.351 301.384ZM187.142 219.137L243.644 222.981L250.879 115.774L238.537 112.488L187.138 219.137H187.142Z" fill="white"/>
</mask>
<g mask="url(#mask0_659_17448)">
<path d="M135.318 197.263L122.747 175.398L331.479 60.918L344.05 82.7824L135.318 197.263Z" fill="#FF7FA3"/>
<path d="M154.392 298.683L141.821 276.818L350.553 162.338L363.124 184.202L154.392 298.683Z" fill="#FF7FA3"/>
<path d="M172.165 340.037L156.251 312.361L364.984 197.881L380.897 225.556L172.165 340.037Z" fill="#FF7FA3"/>
<path d="M129.032 229.858L122.747 218.927L331.479 104.447L337.765 115.377L129.032 229.858Z" fill="#FF7FA3"/>
</g>
</g>
<g opacity="0.25">
<mask id="mask1_659_17448" style="mask-type:luminance" maskUnits="userSpaceOnUse" x="546" y="71" width="148" height="229">
<path d="M646.396 299.448L632.702 247.575L553.52 268.373L546.268 240.906L574.393 84.7821L625.883 71.2578L663.801 214.902L687.652 208.638L693.699 231.552L669.848 237.816L683.543 289.689L646.392 299.448H646.396ZM572.403 238.913L626.655 224.661L599.661 122.4L587.042 123.231L572.407 238.913H572.403Z" fill="white"/>
</mask>
<g mask="url(#mask1_659_17448)">
<path d="M516.86 241.403L498.167 218.455L655.973 39.709L674.665 56.1323L516.86 241.403Z" fill="#FF7FA3"/>
<path d="M566.729 323.436L548.037 307.013L705.842 134.801L724.534 151.22L566.729 323.436Z" fill="#FF7FA3"/>
<path d="M596.445 356.386L572.785 335.601L730.59 163.389L754.251 184.174L596.445 356.386Z" fill="#FF7FA3"/>
<path d="M521.229 267.258L511.883 265.574L669.689 80.3027L679.035 88.5122L521.229 267.258Z" fill="#FF7FA3"/>
</g>
</g>
<g opacity="0.25">
<mask id="mask2_659_17448" style="mask-type:luminance" maskUnits="userSpaceOnUse" x="361" y="84" width="133" height="236">
<path d="M427.733 319.124C412.968 319.124 400.57 316.456 390.881 311.198C381.236 305.961 374.174 298.958 369.293 289.786C364.373 280.554 361.876 269.563 361.876 257.122V148.719C361.876 135.808 364.243 124.399 368.907 114.81C373.476 105.425 380.356 98.2907 389.936 93.002C399.607 87.6567 412.322 84.9492 427.728 84.9492C443.135 84.9492 455.771 87.6523 465.33 92.989C474.814 98.2777 481.646 105.416 486.22 114.814C490.888 124.408 493.255 135.817 493.255 148.719V257.122C493.255 269.367 490.754 280.314 485.825 289.66C480.935 298.918 473.878 305.966 464.25 311.193C454.562 316.452 442.272 319.12 427.728 319.12L427.733 319.124ZM427.733 115.898C418.191 115.898 413.262 120.046 410.805 123.529C407.865 127.694 406.097 132.517 405.551 137.858C405.091 142.237 404.861 146.294 404.861 149.898V274.029H450.608V149.903C450.608 146.359 450.374 142.307 449.919 137.858C449.364 132.509 447.595 127.69 444.665 123.533C442.207 120.051 437.278 115.902 427.733 115.902V115.898Z" fill="white"/>
</mask>
<g mask="url(#mask2_659_17448)">
<path d="M369.215 340.655L354.359 314.821L532.331 203.379L547.182 229.209L369.215 340.655Z" fill="#FF7FA3"/>
<path d="M346.6 308.404L337.024 291.75L514.991 188.574L524.567 196.958L346.6 308.404Z" fill="#FF7FA3"/>
<path d="M510.109 83.2667L494.72 56.502L316.749 159.678L332.138 186.443L510.109 83.2667Z" fill="#FF7FA3"/>
<path d="M511.329 115.144L503.392 101.34L325.421 204.516L333.358 218.32L511.329 115.144Z" fill="#FF7FA3"/>
</g>
</g>
<defs>
<linearGradient id="paint0_linear_659_17448" x1="781.46" y1="294.949" x2="840.004" y2="294.949" gradientUnits="userSpaceOnUse">
<stop stop-color="#FF4B70"/>
<stop offset="1" stop-color="#824C89"/>
</linearGradient>
<linearGradient id="paint1_linear_659_17448" x1="765.946" y1="286.23" x2="787.72" y2="286.23" gradientUnits="userSpaceOnUse">
<stop stop-color="#FF4B70"/>
<stop offset="1" stop-color="#824C89"/>
</linearGradient>
<linearGradient id="paint2_linear_659_17448" x1="707.666" y1="299.117" x2="747.652" y2="299.117" gradientUnits="userSpaceOnUse">
<stop stop-color="#FF4B70"/>
<stop offset="1" stop-color="#824C89"/>
</linearGradient>
<linearGradient id="paint3_linear_659_17448" x1="675.735" y1="291.11" x2="702.139" y2="291.11" gradientUnits="userSpaceOnUse">
<stop stop-color="#FF4B70"/>
<stop offset="1" stop-color="#824C89"/>
</linearGradient>
<linearGradient id="paint4_linear_659_17448" x1="644.215" y1="321.123" x2="694.007" y2="321.123" gradientUnits="userSpaceOnUse">
<stop stop-color="#FF4B70"/>
<stop offset="1" stop-color="#824C89"/>
</linearGradient>
<linearGradient id="paint5_linear_659_17448" x1="602.127" y1="330.73" x2="644.84" y2="330.73" gradientUnits="userSpaceOnUse">
<stop stop-color="#FF4B70"/>
<stop offset="1" stop-color="#824C89"/>
</linearGradient>
<linearGradient id="paint6_linear_659_17448" x1="603.71" y1="303.053" x2="646.998" y2="303.053" gradientUnits="userSpaceOnUse">
<stop stop-color="#FF4B70"/>
<stop offset="1" stop-color="#824C89"/>
</linearGradient>
<linearGradient id="paint7_linear_659_17448" x1="629.581" y1="295.771" x2="656.899" y2="295.771" gradientUnits="userSpaceOnUse">
<stop stop-color="#FF4B70"/>
<stop offset="1" stop-color="#824C89"/>
</linearGradient>
<linearGradient id="paint8_linear_659_17448" x1="638.554" y1="308.712" x2="683.525" y2="308.712" gradientUnits="userSpaceOnUse">
<stop stop-color="#FF4B70"/>
<stop offset="1" stop-color="#824C89"/>
</linearGradient>
<linearGradient id="paint9_linear_659_17448" x1="657.351" y1="271.488" x2="712.136" y2="271.488" gradientUnits="userSpaceOnUse">
<stop stop-color="#FF4B70"/>
<stop offset="1" stop-color="#824C89"/>
</linearGradient>
<linearGradient id="paint10_linear_659_17448" x1="701.151" y1="284.624" x2="762.733" y2="284.624" gradientUnits="userSpaceOnUse">
<stop stop-color="#FF4B70"/>
<stop offset="1" stop-color="#824C89"/>
</linearGradient>
<linearGradient id="paint11_linear_659_17448" x1="735.809" y1="334.387" x2="756.626" y2="334.387" gradientUnits="userSpaceOnUse">
<stop stop-color="#FF4B70"/>
<stop offset="1" stop-color="#824C89"/>
</linearGradient>
<linearGradient id="paint12_linear_659_17448" x1="738.986" y1="334.387" x2="718.17" y2="334.387" gradientUnits="userSpaceOnUse">
<stop stop-color="#FF4B70"/>
<stop offset="1" stop-color="#824C89"/>
</linearGradient>
<linearGradient id="paint13_linear_659_17448" x1="730.316" y1="297.408" x2="775.252" y2="297.408" gradientUnits="userSpaceOnUse">
<stop stop-color="#FF4B70"/>
<stop offset="1" stop-color="#824C89"/>
</linearGradient>
<linearGradient id="paint14_linear_659_17448" x1="92.3543" y1="299.117" x2="132.34" y2="299.117" gradientUnits="userSpaceOnUse">
<stop stop-color="#FF4B70"/>
<stop offset="1" stop-color="#824C89"/>
</linearGradient>
<linearGradient id="paint15_linear_659_17448" x1="137.867" y1="291.113" x2="164.271" y2="291.113" gradientUnits="userSpaceOnUse">
<stop stop-color="#FF4B70"/>
<stop offset="1" stop-color="#824C89"/>
</linearGradient>
<linearGradient id="paint16_linear_659_17448" x1="145.999" y1="321.123" x2="195.791" y2="321.123" gradientUnits="userSpaceOnUse">
<stop stop-color="#FF4B70"/>
<stop offset="1" stop-color="#824C89"/>
</linearGradient>
<linearGradient id="paint17_linear_659_17448" x1="58.5461" y1="294.949" x2="0.00252637" y2="294.949" gradientUnits="userSpaceOnUse">
<stop stop-color="#FF4B70"/>
<stop offset="1" stop-color="#824C89"/>
</linearGradient>
<linearGradient id="paint18_linear_659_17448" x1="74.0605" y1="286.23" x2="52.2861" y2="286.23" gradientUnits="userSpaceOnUse">
<stop stop-color="#FF4B70"/>
<stop offset="1" stop-color="#824C89"/>
</linearGradient>
<linearGradient id="paint19_linear_659_17448" x1="237.879" y1="330.73" x2="195.166" y2="330.73" gradientUnits="userSpaceOnUse">
<stop stop-color="#FF4B70"/>
<stop offset="1" stop-color="#824C89"/>
</linearGradient>
<linearGradient id="paint20_linear_659_17448" x1="236.296" y1="303.053" x2="193.007" y2="303.053" gradientUnits="userSpaceOnUse">
<stop stop-color="#FF4B70"/>
<stop offset="1" stop-color="#824C89"/>
</linearGradient>
<linearGradient id="paint21_linear_659_17448" x1="210.425" y1="295.771" x2="183.107" y2="295.771" gradientUnits="userSpaceOnUse">
<stop stop-color="#FF4B70"/>
<stop offset="1" stop-color="#824C89"/>
</linearGradient>
<linearGradient id="paint22_linear_659_17448" x1="201.452" y1="308.712" x2="156.482" y2="308.712" gradientUnits="userSpaceOnUse">
<stop stop-color="#FF4B70"/>
<stop offset="1" stop-color="#824C89"/>
</linearGradient>
<linearGradient id="paint23_linear_659_17448" x1="182.655" y1="271.488" x2="127.87" y2="271.488" gradientUnits="userSpaceOnUse">
<stop stop-color="#FF4B70"/>
<stop offset="1" stop-color="#824C89"/>
</linearGradient>
<linearGradient id="paint24_linear_659_17448" x1="138.855" y1="284.624" x2="77.2726" y2="284.624" gradientUnits="userSpaceOnUse">
<stop stop-color="#FF4B70"/>
<stop offset="1" stop-color="#824C89"/>
</linearGradient>
<linearGradient id="paint25_linear_659_17448" x1="104.197" y1="334.387" x2="83.3808" y2="334.387" gradientUnits="userSpaceOnUse">
<stop stop-color="#FF4B70"/>
<stop offset="1" stop-color="#824C89"/>
</linearGradient>
<linearGradient id="paint26_linear_659_17448" x1="101.016" y1="334.387" x2="121.832" y2="334.387" gradientUnits="userSpaceOnUse">
<stop stop-color="#FF4B70"/>
<stop offset="1" stop-color="#824C89"/>
</linearGradient>
<linearGradient id="paint27_linear_659_17448" x1="109.69" y1="297.408" x2="64.7539" y2="297.408" gradientUnits="userSpaceOnUse">
<stop stop-color="#FF4B70"/>
<stop offset="1" stop-color="#824C89"/>
</linearGradient>
<linearGradient id="paint28_linear_659_17448" x1="340.464" y1="0.00435281" x2="467.218" y2="67.8432" gradientUnits="userSpaceOnUse">
<stop stop-color="#FF4B70"/>
<stop offset="1" stop-color="#824C89"/>
</linearGradient>
<linearGradient id="paint29_linear_659_17448" x1="345.81" y1="-9.97717" x2="472.559" y2="57.866" gradientUnits="userSpaceOnUse">
<stop stop-color="#FF4B70"/>
<stop offset="1" stop-color="#824C89"/>
</linearGradient>
<linearGradient id="paint30_linear_659_17448" x1="349.217" y1="-16.3469" x2="475.966" y2="51.4962" gradientUnits="userSpaceOnUse">
<stop stop-color="#FF4B70"/>
<stop offset="1" stop-color="#824C89"/>
</linearGradient>
<linearGradient id="paint31_linear_659_17448" x1="357.284" y1="-31.4209" x2="484.038" y2="36.4224" gradientUnits="userSpaceOnUse">
<stop stop-color="#FF4B70"/>
<stop offset="1" stop-color="#824C89"/>
</linearGradient>
<linearGradient id="paint32_linear_659_17448" x1="365.373" y1="-46.5328" x2="492.126" y2="21.3102" gradientUnits="userSpaceOnUse">
<stop stop-color="#FF4B70"/>
<stop offset="1" stop-color="#824C89"/>
</linearGradient>
<linearGradient id="paint33_linear_659_17448" x1="419.769" y1="350.682" x2="419.83" y2="344.092" gradientUnits="userSpaceOnUse">
<stop stop-color="#FF4B70"/>
<stop offset="1" stop-color="#824C89"/>
</linearGradient>
<linearGradient id="paint34_linear_659_17448" x1="59.2914" y1="347.775" x2="59.3002" y2="347" gradientUnits="userSpaceOnUse">
<stop stop-color="#FF4B70"/>
<stop offset="1" stop-color="#824C89"/>
</linearGradient>
<linearGradient id="paint35_linear_659_17448" x1="780.302" y1="347.775" x2="780.311" y2="347" gradientUnits="userSpaceOnUse">
<stop stop-color="#FF4B70"/>
<stop offset="1" stop-color="#824C89"/>
</linearGradient>
<linearGradient id="paint36_linear_659_17448" x1="275.279" y1="218.608" x2="314.093" y2="221.23" gradientUnits="userSpaceOnUse">
<stop stop-color="#F25555"/>
<stop offset="1" stop-color="#F238ED"/>
</linearGradient>
<linearGradient id="paint37_linear_659_17448" x1="110.214" y1="86.6" x2="261.929" y2="337.077" gradientUnits="userSpaceOnUse">
<stop stop-color="#BE307E"/>
<stop offset="1" stop-color="#701587"/>
</linearGradient>
<linearGradient id="paint38_linear_659_17448" x1="171.172" y1="38.1399" x2="303.08" y2="302.656" gradientUnits="userSpaceOnUse">
<stop stop-color="#BE307E"/>
<stop offset="1" stop-color="#701587"/>
</linearGradient>
<linearGradient id="paint39_linear_659_17448" x1="221.203" y1="63.6382" x2="299.428" y2="68.9218" gradientUnits="userSpaceOnUse">
<stop stop-color="#F25555"/>
<stop offset="1" stop-color="#F238ED"/>
</linearGradient>
<linearGradient id="paint40_linear_659_17448" x1="183.208" y1="212.338" x2="237.593" y2="216.011" gradientUnits="userSpaceOnUse">
<stop stop-color="#F25555"/>
<stop offset="1" stop-color="#F238ED"/>
</linearGradient>
<linearGradient id="paint41_linear_659_17448" x1="146.644" y1="79.0791" x2="265.793" y2="303.513" gradientUnits="userSpaceOnUse">
<stop stop-color="#F14178"/>
<stop offset="1" stop-color="#701587"/>
</linearGradient>
<linearGradient id="paint42_linear_659_17448" x1="157.124" y1="180.847" x2="316.096" y2="191.584" gradientUnits="userSpaceOnUse">
<stop stop-color="#FF4B70"/>
<stop offset="1" stop-color="#824C89"/>
</linearGradient>
<linearGradient id="paint43_linear_659_17448" x1="372.249" y1="68.2766" x2="501.661" y2="332.432" gradientUnits="userSpaceOnUse">
<stop stop-color="#BE307E"/>
<stop offset="1" stop-color="#701587"/>
</linearGradient>
<linearGradient id="paint44_linear_659_17448" x1="334.9" y1="80.9925" x2="466.46" y2="334.609" gradientUnits="userSpaceOnUse">
<stop stop-color="#F14178"/>
<stop offset="1" stop-color="#701587"/>
</linearGradient>
<linearGradient id="paint45_linear_659_17448" x1="392.806" y1="59.4158" x2="469.54" y2="372.245" gradientUnits="userSpaceOnUse">
<stop stop-color="#FF4B70"/>
<stop offset="1" stop-color="#824C89"/>
</linearGradient>
<linearGradient id="paint46_linear_659_17448" x1="654.982" y1="210.641" x2="692.253" y2="200.869" gradientUnits="userSpaceOnUse">
<stop stop-color="#F25555"/>
<stop offset="1" stop-color="#F238ED"/>
</linearGradient>
<linearGradient id="paint47_linear_659_17448" x1="459.074" y1="139.243" x2="679.634" y2="325.332" gradientUnits="userSpaceOnUse">
<stop stop-color="#BE307E"/>
<stop offset="1" stop-color="#701587"/>
</linearGradient>
<linearGradient id="paint48_linear_659_17448" x1="500.814" y1="74.9962" x2="707.218" y2="280.264" gradientUnits="userSpaceOnUse">
<stop stop-color="#BE307E"/>
<stop offset="1" stop-color="#701587"/>
</linearGradient>
<linearGradient id="paint49_linear_659_17448" x1="555.387" y1="83.2251" x2="630.503" y2="63.53" gradientUnits="userSpaceOnUse">
<stop stop-color="#F25555"/>
<stop offset="1" stop-color="#F238ED"/>
</linearGradient>
<linearGradient id="paint50_linear_659_17448" x1="566.582" y1="233.874" x2="618.802" y2="220.182" gradientUnits="userSpaceOnUse">
<stop stop-color="#F25555"/>
<stop offset="1" stop-color="#F238ED"/>
</linearGradient>
<linearGradient id="paint51_linear_659_17448" x1="490.667" y1="121.112" x2="672.127" y2="292.629" gradientUnits="userSpaceOnUse">
<stop stop-color="#F14178"/>
<stop offset="1" stop-color="#701587"/>
</linearGradient>
<linearGradient id="paint52_linear_659_17448" x1="532.24" y1="212.843" x2="684.897" y2="172.818" gradientUnits="userSpaceOnUse">
<stop stop-color="#FF4B70"/>
<stop offset="1" stop-color="#824C89"/>
</linearGradient>
</defs>
</svg>
