<svg viewBox="0 0 29.5 28" fill="none" xmlns="http://www.w3.org/2000/svg">
<g id="Layer_1-2">
<g id="Group">
<g id="Group_2">
<path id="Vector" d="M10.0425 18.8052C10.4154 19.2619 10.9092 19.5977 11.2885 20.0479C11.4204 20.2048 11.5485 20.3645 11.652 20.5422C11.6357 20.6098 11.6232 20.6191 11.5529 20.5891C11.4515 20.546 11.3506 20.5002 11.2509 20.4539C10.4666 20.092 9.64739 19.8538 8.78895 19.7508C8.47828 19.7137 8.16652 19.6832 7.85476 19.6909C7.22196 19.7067 6.59517 19.7759 5.976 19.9209C5.02273 20.1443 4.12886 20.5166 3.26879 20.975C2.46867 21.4017 1.71815 21.907 0.995975 22.4542C0.937655 22.4984 0.879881 22.5785 0.794855 22.5371C0.708739 22.4951 0.739261 22.4002 0.739261 22.3272C0.737081 19.91 0.737626 17.4927 0.737626 15.0755C0.737626 11.113 0.737626 7.15003 0.738171 3.18759C0.738171 2.83332 0.703288 2.9009 0.991614 2.68071C1.08209 2.61149 1.17802 2.54881 1.26413 2.47414C1.36442 2.38747 1.49087 2.3575 1.60587 2.3019C2.85238 1.42875 4.17356 0.707117 5.65225 0.305423C7.26884 -0.133334 8.87289 -0.108262 10.4633 0.438412C11.6858 0.858638 12.7705 1.51923 13.7755 2.32098C14.0143 2.39238 14.1658 2.58696 14.3516 2.73248C14.3778 2.75265 14.398 2.78045 14.4263 2.79789C14.5075 2.84803 14.5309 2.92216 14.5309 3.01373C14.5309 3.32658 14.5309 3.63889 14.5309 3.95174C14.5309 4.21663 14.532 4.48152 14.5309 4.74641C14.5309 4.80473 14.5364 4.86414 14.5124 4.92027C14.4721 4.97314 14.4132 4.97641 14.3538 4.97968C13.4027 5.0271 12.4969 5.25547 11.6264 5.64027C10.9582 5.93568 10.3489 6.32321 9.79292 6.79249C9.1296 7.3517 8.58347 8.01283 8.14199 8.76063C7.62856 9.62996 7.30972 10.5674 7.16038 11.5638C7.08461 12.0707 7.06663 12.5824 7.09442 13.0926C7.1304 13.7516 7.25085 14.3974 7.45306 15.0275C7.74684 15.9448 8.19377 16.7793 8.79822 17.5281C9.02223 17.8056 9.26314 18.0688 9.51386 18.3217C9.54819 18.3561 9.5858 18.3844 9.6305 18.4035C9.66592 18.4198 9.67791 18.4602 9.71116 18.4792C9.72969 18.4956 9.74713 18.5136 9.76621 18.5294C9.78365 18.5457 9.79673 18.567 9.81472 18.5833C9.83271 18.6128 9.85778 18.6346 9.88666 18.6526C9.93299 18.7098 9.98913 18.7572 10.0431 18.8057L10.0425 18.8052Z" fill="#06C270"/>
<path id="Vector_2" d="M15.8234 2.29982C16.9576 1.39887 18.1899 0.679422 19.595 0.287538C20.6508 -0.00678339 21.7229 -0.0721882 22.8097 0.0776978C23.9864 0.239575 25.0841 0.640179 26.1339 1.18086C26.7819 1.51497 27.4038 1.89432 27.9952 2.32163C28.2345 2.37722 28.3898 2.57016 28.5926 2.68353C28.8062 2.8029 28.8438 2.97785 28.8438 3.20677C28.8384 9.5434 28.8395 15.88 28.8395 22.2167C28.8395 22.2973 28.8455 22.3791 28.8329 22.4592C28.8198 22.5437 28.7664 22.5693 28.6901 22.5306C28.634 22.5023 28.5866 22.4608 28.537 22.4227C27.7875 21.8559 27.0081 21.337 26.1726 20.9031C25.5807 20.5952 24.974 20.3221 24.338 20.121C23.7155 19.9242 23.0822 19.782 22.4292 19.7269C22.1764 19.7057 21.924 19.6833 21.67 19.6871C20.6928 19.7013 19.7487 19.8823 18.8358 20.2322C18.5813 20.3297 18.3344 20.4442 18.0847 20.5527C18.058 20.5641 18.0313 20.5805 18.0013 20.5799C17.9632 20.5794 17.9218 20.5766 17.9447 20.5178C18.1676 20.1891 18.4216 19.8872 18.711 19.6146C18.9143 19.4239 19.1165 19.232 19.3193 19.0407C19.3977 18.9764 19.4773 18.9126 19.534 18.8265C19.5912 18.7644 19.6594 18.7115 19.7068 18.6407C19.74 18.6096 19.7836 18.5894 19.8054 18.5464C19.873 18.4979 19.9335 18.4412 19.9973 18.3872C20.1592 18.2684 20.2812 18.1092 20.4131 17.9626C20.6835 17.6623 20.944 17.3544 21.1691 17.0164C21.7714 16.1128 22.1704 15.1284 22.3677 14.0629C22.4745 13.4868 22.517 12.9025 22.4838 12.3177C22.4347 11.469 22.263 10.6449 21.9523 9.84972C21.6575 9.09593 21.258 8.40645 20.75 7.77965C20.1891 7.08745 19.5198 6.51789 18.7573 6.05842C17.8635 5.51992 16.8982 5.1809 15.867 5.03156C15.6822 5.00486 15.4953 4.98415 15.3078 4.97924C15.2233 4.97706 15.1388 4.96779 15.0696 4.90948C15.0407 4.85824 15.0472 4.8021 15.0472 4.7476C15.0456 4.1813 15.0478 3.61555 15.0451 3.04925C15.0445 2.9288 15.0794 2.84159 15.1791 2.76747C15.2669 2.70261 15.3508 2.62957 15.4288 2.55109C15.5416 2.43826 15.6789 2.36305 15.8234 2.29873V2.29982Z" fill="#06C270"/>
<path id="Vector_3" d="M17.9453 20.517C17.9873 20.5824 18.0249 20.5225 18.0554 20.5077C18.6484 20.2254 19.26 19.997 19.9009 19.8472C20.6149 19.6798 21.3382 19.6046 22.0691 19.6422C23.1674 19.6989 24.2187 19.9638 25.2303 20.3938C26.461 20.9176 27.5827 21.6218 28.6412 22.4323C28.6804 22.4623 28.7224 22.5266 28.7671 22.5059C28.8222 22.4808 28.7916 22.4067 28.7916 22.3549C28.7927 15.9267 28.7922 9.49849 28.7954 3.06974C28.7954 2.94438 28.7573 2.86753 28.6548 2.79777C28.4308 2.64516 28.2144 2.48001 27.9953 2.32031C28.4701 2.32304 28.9442 2.32576 29.419 2.32849C29.5781 2.32958 29.5787 2.32849 29.5787 2.48382C29.5787 9.38294 29.5787 16.2821 29.5787 23.1812C29.5787 23.2854 29.5262 23.3376 29.4211 23.3376C25.3737 23.3376 21.3262 23.3376 17.2782 23.3376C17.1234 23.3376 17.124 23.3376 17.125 23.179C17.13 22.2802 17.3845 21.4534 17.8429 20.6854C17.8767 20.6293 17.911 20.5732 17.9453 20.5176V20.517Z" fill="#05A660"/>
<path id="Vector_4" d="M1.60569 2.30523C1.36914 2.47801 1.13423 2.65351 0.894955 2.82248C0.814834 2.87916 0.782677 2.94238 0.782677 3.04213C0.784857 9.49213 0.784857 15.9421 0.785402 22.3921C0.785402 22.4335 0.762511 22.4913 0.809929 22.512C0.848627 22.5289 0.879694 22.4799 0.910216 22.4564C1.83297 21.7501 2.80423 21.1216 3.85616 20.6218C4.86721 20.1411 5.92131 19.8059 7.03864 19.6887C8.33584 19.553 9.59106 19.7351 10.806 20.2071C11.0599 20.3057 11.3047 20.4245 11.5527 20.5357C11.5816 20.5488 11.6148 20.6011 11.6524 20.545C11.7216 20.5891 11.7391 20.6693 11.7767 20.7336C12.2269 21.5037 12.4454 22.3376 12.4542 23.2288C12.4552 23.316 12.4275 23.3525 12.3408 23.341C12.3228 23.3389 12.3043 23.341 12.2857 23.341C8.24536 23.341 4.20444 23.341 0.164057 23.341C0.0546857 23.3418 0 23.2887 0 23.1819C0 16.286 0 9.3902 0 2.49382C0 2.38699 0.0546857 2.33339 0.164057 2.33303C0.579922 2.33303 0.995788 2.33303 1.41165 2.33303C1.47815 2.33303 1.54355 2.3303 1.60623 2.30469L1.60569 2.30523Z" fill="#05A660"/>
<path id="Vector_5" d="M19.8254 18.5778C19.7938 18.6056 19.7622 18.6334 19.7306 18.6618C19.6418 18.6645 19.7137 18.6165 19.7088 18.5931L19.7077 18.5947C19.7361 18.5675 19.7633 18.5391 19.7775 18.5015C20.0625 18.0808 20.3285 17.6496 20.5236 17.1776C20.9046 16.2532 21.0589 15.2934 20.9804 14.2966C20.8817 13.0441 20.4528 11.9175 19.6772 10.9309C18.7555 9.75747 17.551 9.02602 16.0996 8.69518C15.79 8.62487 15.4755 8.59163 15.1599 8.57146C15.1408 8.55892 15.1136 8.56274 15.0994 8.54039C15.082 8.50551 15.0874 8.46845 15.0874 8.43193C15.0874 7.96483 15.0869 7.49773 15.0874 7.03063C15.0874 6.89546 15.1005 6.88347 15.2313 6.88729C15.8919 6.90691 16.5269 7.05407 17.1466 7.27372C17.6513 7.45249 18.1276 7.69013 18.5757 7.98227C19.1082 8.32946 19.5834 8.7426 20.0053 9.21897C20.4577 9.72967 20.8207 10.2971 21.1068 10.914C21.3804 11.5049 21.5647 12.1229 21.6611 12.7672C21.7009 13.0326 21.7184 13.2991 21.7331 13.5673C21.781 14.4345 21.6481 15.2749 21.3706 16.0925C21.1297 16.8037 20.7804 17.4611 20.3203 18.0568C20.28 18.1091 20.2282 18.1522 20.1923 18.2078C20.0625 18.3239 19.9579 18.465 19.8249 18.5778H19.8254Z" fill="#86FFC3"/>
<path id="Vector_6" d="M9.68914 18.5081C9.65753 18.4966 9.63845 18.4716 9.61992 18.4454C9.39427 18.2088 9.17189 17.9701 8.99203 17.6949C8.40284 16.7939 8.0284 15.8134 7.89214 14.744C7.84745 14.3936 7.81638 14.0426 7.82783 13.6888C7.85508 12.8173 8.0175 11.9736 8.35597 11.1669C8.64975 10.4666 9.04 9.82559 9.54143 9.25384C10.0974 8.61996 10.7438 8.10217 11.4878 7.70157C12.2083 7.3135 12.9725 7.06442 13.7791 6.94233C13.971 6.91344 14.1645 6.88673 14.3601 6.89109C14.4419 6.89273 14.492 6.92107 14.4915 7.01427C14.4904 7.50372 14.4915 7.99317 14.4904 8.48207C14.4904 8.50441 14.4893 8.52621 14.4757 8.54529C14.455 8.57145 14.419 8.55347 14.3961 8.57363C11.5314 8.74477 9.14737 10.8677 8.66501 13.7003C8.38595 15.3381 8.71461 16.8582 9.62591 18.2503C9.64172 18.2743 9.6548 18.301 9.66897 18.326C9.6984 18.3849 9.73928 18.4367 9.77907 18.4885C9.79379 18.5081 9.80905 18.5282 9.82376 18.5479C9.83521 18.5762 9.83793 18.5996 9.79651 18.6007C9.78179 18.5876 9.76653 18.5746 9.75182 18.5615C9.73765 18.5364 9.71257 18.5233 9.68968 18.507L9.68914 18.5081Z" fill="#86FFC3"/>
<path id="Vector_7" d="M14.3961 8.57419C14.4201 8.56492 14.4435 8.55511 14.4675 8.54585C14.4707 8.03133 14.5034 7.51354 14.4598 7.00284C14.4064 6.37495 14.45 5.74925 14.4288 5.12354C14.4266 5.0565 14.413 4.98129 14.4762 4.92787C14.4767 4.282 14.4773 3.63558 14.4795 2.98971C14.4795 2.92812 14.4544 2.88833 14.4086 2.85073C14.1966 2.67631 13.9867 2.49918 13.7758 2.32258C14.0587 2.34166 14.3421 2.32858 14.6255 2.33076C14.9678 2.33348 15.3101 2.33076 15.6524 2.33185C15.7123 2.33185 15.769 2.32531 15.8241 2.30078C15.611 2.47955 15.3979 2.65833 15.1837 2.83601C15.1368 2.87471 15.0981 2.91177 15.0986 2.98045C15.1014 3.62414 15.1024 4.26783 15.1041 4.91098C15.139 4.94368 15.1482 4.98565 15.1482 5.03089C15.152 5.62171 15.1842 6.21471 15.139 6.80281C15.0954 7.37456 15.1313 7.94412 15.1095 8.51369C15.1095 8.52514 15.1128 8.53549 15.1155 8.54585C15.1302 8.55457 15.1455 8.56329 15.1602 8.57201C14.9057 8.55402 14.6512 8.54748 14.3966 8.57364L14.3961 8.57419Z" fill="#05A660"/>
<path id="Vector_8" d="M14.789 24.1107C15.4185 24.1107 16.0475 24.1113 16.677 24.1102C16.7675 24.1102 16.8531 24.12 16.9316 24.1679C17.0662 24.2508 17.1338 24.374 17.1185 24.5293C17.1038 24.683 17.0231 24.798 16.8727 24.8536C16.81 24.877 16.7446 24.8858 16.6776 24.8858C15.4153 24.8858 14.1529 24.8858 12.8906 24.8858C12.7348 24.8858 12.5985 24.8405 12.5124 24.701C12.3554 24.4465 12.5238 24.1265 12.8236 24.1134C12.9964 24.1058 13.1697 24.1113 13.3425 24.1113C13.8243 24.1113 14.3066 24.1113 14.7885 24.1113L14.789 24.1107Z" fill="#05A660"/>
<path id="Vector_9" d="M14.8 25.669C15.4289 25.669 16.0585 25.6701 16.6874 25.6685C16.8471 25.6685 16.9763 25.7246 17.063 25.8587C17.2063 26.0805 17.0717 26.3814 16.8079 26.4337C16.7719 26.4408 16.7349 26.443 16.6983 26.443C15.4251 26.443 14.1525 26.443 12.8793 26.4435C12.6972 26.4435 12.5555 26.3765 12.4836 26.201C12.3784 25.9443 12.5599 25.675 12.846 25.6707C13.1807 25.6658 13.5159 25.669 13.8505 25.669C14.1672 25.669 14.4833 25.669 14.8 25.669Z" fill="#05A660"/>
<path id="Vector_10" d="M14.788 27.2277C15.1815 27.2277 15.575 27.2249 15.968 27.2288C16.1337 27.2304 16.2699 27.3334 16.3228 27.4817C16.3762 27.631 16.3326 27.7934 16.21 27.9024C16.1282 27.9749 16.0279 28.0005 15.9238 28.0005C15.1662 28.0027 14.4092 28.0038 13.6516 28.0005C13.4494 27.9994 13.3175 27.9019 13.2591 27.7356C13.2057 27.5836 13.2504 27.4206 13.3747 27.3165C13.4581 27.2467 13.5562 27.226 13.6625 27.2266C14.0375 27.2277 14.4124 27.2266 14.7874 27.2266V27.2277H14.788Z" fill="#05A660"/>
<path id="Vector_11" d="M19.7089 18.5938C19.7187 18.6156 19.6893 18.6504 19.7307 18.6624C19.6936 18.7425 19.6086 18.7769 19.5552 18.8412C19.5214 18.8379 19.5203 18.8205 19.535 18.796C19.5928 18.7284 19.6511 18.6613 19.7089 18.5938Z" fill="#80CBE7"/>
<path id="Vector_12" d="M19.5357 18.7969C19.5422 18.8121 19.5493 18.8269 19.5558 18.8421C19.4915 18.925 19.4272 19.0078 19.3209 19.0421C19.3923 18.9604 19.4643 18.8786 19.5357 18.7969Z" fill="#5AB3D6"/>
<path id="Vector_13" d="M10.0434 18.8081C9.97034 18.7798 9.91583 18.728 9.86514 18.6708C9.8646 18.6517 9.87114 18.6359 9.88749 18.625C9.95453 18.673 9.99977 18.7405 10.0434 18.8081Z" fill="#74BDD9"/>
<path id="Vector_14" d="M9.77868 18.4905C9.71927 18.4518 9.68002 18.399 9.66858 18.3281C9.716 18.375 9.76124 18.4235 9.77868 18.4905Z" fill="#39D98A"/>
<path id="Vector_15" d="M9.88638 18.621C9.87874 18.6363 9.87166 18.6515 9.86403 18.6668C9.83351 18.6521 9.81279 18.6275 9.7959 18.5997C9.80516 18.5823 9.81388 18.5643 9.82315 18.5469C9.84441 18.5714 9.86566 18.5965 9.88638 18.621Z" fill="#39D98A"/>
<path id="Vector_16" d="M19.7778 18.5039C19.7761 18.5513 19.7522 18.5818 19.708 18.5971C19.7195 18.5573 19.7434 18.5263 19.7778 18.5039Z" fill="#80CBE7"/>
<path id="Vector_17" d="M14.4766 4.92969C14.4788 4.97002 14.482 5.01035 14.482 5.05069C14.4826 6.17728 14.4831 7.30443 14.4826 8.43102C14.4826 8.47027 14.4951 8.51223 14.4673 8.54821C14.4651 8.10727 14.4629 7.66579 14.4608 7.22485C14.4608 7.20305 14.4608 7.1807 14.4608 7.1589C14.4608 7.00266 14.3837 6.93144 14.2297 6.94524C13.6748 6.9943 13.1309 7.10113 12.6027 7.27935C11.7176 7.57749 10.9229 8.03205 10.2193 8.64904C9.53197 9.25131 8.99347 9.96531 8.58905 10.7812C8.2217 11.523 8.0015 12.3079 7.91811 13.1331C7.7982 14.3218 7.97697 15.4631 8.43971 16.5614C8.71877 17.2236 9.09649 17.8259 9.57176 18.3655C9.59356 18.39 9.61972 18.4118 9.62027 18.4489C9.39789 18.2881 9.21639 18.0842 9.03326 17.8847C8.65718 17.4743 8.33071 17.0252 8.05601 16.5401C7.58182 15.7024 7.26897 14.8091 7.12181 13.8569C7.04441 13.3571 7.01825 12.8546 7.03787 12.3509C7.06894 11.5557 7.22046 10.7834 7.48862 10.0329C7.75078 9.29927 8.12032 8.62342 8.58687 8.00262C9.3592 6.97522 10.331 6.18709 11.4963 5.64369C12.2474 5.29323 13.0349 5.06322 13.8618 4.9722C14.0667 4.94985 14.27 4.9286 14.476 4.93023L14.4766 4.92969Z" fill="#57EBA1"/>
<path id="Vector_18" d="M9.68909 18.5053C9.73324 18.4966 9.73978 18.5309 9.75122 18.5598C9.72506 18.5483 9.70326 18.5309 9.68909 18.5053Z" fill="#39D98A"/>
<path id="Vector_19" d="M15.1154 8.54557C15.086 8.51941 15.0964 8.48398 15.0964 8.45237C15.0964 7.3007 15.0964 6.14958 15.0964 4.99791C15.0964 4.96848 15.1013 4.93959 15.104 4.91016C16.0638 4.95648 16.9882 5.15597 17.8712 5.5424C18.529 5.83018 19.1389 6.19754 19.6943 6.65156C20.3135 7.15736 20.8449 7.74545 21.2798 8.41749C21.7682 9.17182 22.1159 9.98666 22.3252 10.8604C22.4266 11.2822 22.4871 11.7101 22.5198 12.1439C22.5978 13.1773 22.4664 14.184 22.1399 15.1634C21.8282 16.0976 21.3589 16.9457 20.7179 17.6973C20.5217 17.9273 20.3129 18.1443 20.0977 18.3552C20.0688 18.3835 20.0426 18.4152 20.0006 18.4261C19.9886 18.3628 20.0524 18.3459 20.0775 18.3051C20.0998 18.2685 20.1353 18.2402 20.1538 18.1999C20.3462 17.9355 20.544 17.675 20.7097 17.3921C20.8711 17.1158 21.0117 16.8307 21.1398 16.5364C21.3305 16.0982 21.4673 15.6469 21.5611 15.1809C21.6298 14.8386 21.6657 14.4925 21.6832 14.1426C21.7186 13.4313 21.6396 12.7331 21.457 12.0475C21.1807 11.007 20.689 10.0793 19.9783 9.26775C19.2447 8.43002 18.3573 7.80922 17.3267 7.39663C16.7506 7.16608 16.1521 7.01728 15.5324 6.95787C15.4299 6.94806 15.3269 6.94588 15.225 6.93443C15.1394 6.92462 15.1176 6.95079 15.1182 7.03363C15.1214 7.49364 15.1198 7.95366 15.1198 8.41313C15.1198 8.45728 15.1171 8.50142 15.1154 8.54503V8.54557Z" fill="#57EBA1"/>
<path id="Vector_20" d="M20.1537 18.1992C20.1537 18.3093 20.0365 18.3398 20.0006 18.4254C19.9483 18.4837 19.9003 18.547 19.8251 18.5791C19.9357 18.4532 20.0262 18.311 20.1537 18.1998V18.1992Z" fill="#70CFF4"/>
</g>
</g>
<path id="R" d="M17.1311 17.0962C17.2024 17.1674 17.2675 17.2201 17.3264 17.2542C17.3852 17.2852 17.4317 17.3023 17.4658 17.3053C17.4999 17.3084 17.5479 17.31 17.6099 17.31C17.675 17.31 17.7633 17.2806 17.8749 17.2217L18.0236 17.5564C17.816 17.8136 17.5603 17.9949 17.2566 18.1002C17.1296 18.1436 17.0273 18.1653 16.9498 18.1653C16.6554 18.1653 16.4075 18.0909 16.2061 17.9422C16.0047 17.7934 15.8311 17.6214 15.6855 17.4262C15.5398 17.231 15.4019 17.0078 15.2717 16.7568C15.03 16.2982 14.8441 15.8318 14.7139 15.3577C14.435 15.3948 14.1298 15.4134 13.7982 15.4134V16.4361C13.7982 16.6871 13.8168 17.0884 13.854 17.64L13.8726 17.9189C13.6092 17.9995 13.2946 18.0398 12.9289 18.0398C12.5664 18.0398 12.3355 17.9995 12.2363 17.9189C12.3262 17.2651 12.3711 16.7661 12.3711 16.4221V12.6941C12.3711 12.4183 12.3463 12.2417 12.2968 12.1642C12.2472 12.0867 12.2146 12.0371 12.1991 12.0154C12.1836 11.9906 12.1557 11.9674 12.1155 11.9457C12.0783 11.9209 12.0519 11.9039 12.0364 11.8946C12.0023 11.8791 11.9481 11.8589 11.8737 11.8341C11.8273 11.7133 11.804 11.594 11.804 11.4762C11.804 11.3554 11.8056 11.281 11.8087 11.2531C12.6392 11.126 13.5565 11.0625 14.5605 11.0625H14.8255C15.4856 11.0749 16.0496 11.2376 16.5175 11.5506C16.7469 11.7055 16.9297 11.907 17.066 12.1549C17.2024 12.4028 17.2706 12.6833 17.2706 12.9962C17.2706 13.5169 17.1451 13.9616 16.8941 14.3304C16.6461 14.696 16.2355 14.9718 15.6622 15.1578C15.9039 15.4832 16.1069 15.7621 16.2712 15.9945C16.4354 16.2269 16.5687 16.4113 16.6709 16.5477C16.7732 16.684 16.8569 16.7909 16.9219 16.8684C16.9901 16.9459 17.0598 17.0218 17.1311 17.0962ZM15.8946 13.0055C15.8946 12.1874 15.4081 11.7784 14.435 11.7784C14.2522 11.7784 14.0399 11.7908 13.7982 11.8155V14.6929C14.8952 14.6464 15.5507 14.3551 15.7645 13.819C15.8513 13.5928 15.8946 13.3216 15.8946 13.0055Z" fill="url(#paint0_linear_717_21659)"/>
</g>
<defs>
<linearGradient id="paint0_linear_717_21659" x1="11.804" y1="11.0625" x2="19.3111" y2="12.8972" gradientUnits="userSpaceOnUse">
<stop stop-color="#06B6D4"/>
<stop offset="1" stop-color="#4ADE80"/>
</linearGradient>
</defs>
</svg>
