<svg width="201" height="34" viewBox="0 0 201 34" fill="none" xmlns="http://www.w3.org/2000/svg">
<path d="M17 5H189C195.627 5 201 10.3726 201 17C201 23.6274 195.627 29 189 29H17V5Z" fill="#8F90A6" fill-opacity="0.15"/>
<path d="M17 6H118V28H17V6Z" fill="url(#paint0_linear_3862_735)"/>
<circle cx="17" cy="17" r="16" fill="#2A4D69" stroke="url(#paint1_linear_3862_735)" stroke-width="2"/>
<g clip-path="url(#clip0_3862_735)">
<path d="M17 24.0713L9.58344 28L11 19.6783L5 13.785L13.2917 12.5713L17 5L20.7083 12.5713L29 13.785L23 19.6783L24.4166 28L17 24.0713Z" fill="#EB8225"/>
<path d="M17 5.99365L20.4186 12.9732L28.0624 14.0924L22.5314 19.5251L23.8372 27.1966L17 23.5747L10.1632 27.1966L11.4689 19.5251L5.9375 14.0924L13.5814 12.9732L17 5.99365Z" fill="#F4C23C"/>
<g style="mix-blend-mode:multiply">
<path d="M17 11.0938L18.7739 14.7156L22.7404 15.2963L19.8702 18.1151L20.5477 22.0957L17 20.2164L13.4527 22.0957L14.1302 18.1151L11.26 15.2963L15.2261 14.7156L17 11.0938Z" fill="#F4C23C"/>
</g>
<g style="mix-blend-mode:screen" opacity="0.7">
<path d="M17 5.99365V16.5002L13.5814 12.9732L17 5.99365Z" fill="#F4C23C"/>
</g>
<g style="mix-blend-mode:multiply">
<path d="M5.9375 14.0923L17 16.5L11.4689 19.5249L5.9375 14.0923Z" fill="#F4C23C"/>
</g>
<g style="mix-blend-mode:screen" opacity="0.7">
<path d="M10.1632 27.1964L17 16.5L11.469 19.5249L10.1632 27.1964Z" fill="#F4C23C"/>
</g>
<g style="mix-blend-mode:multiply">
<path d="M23.8372 27.1964L17 16.5V23.5745L23.8372 27.1964Z" fill="#F4C23C"/>
</g>
<g style="mix-blend-mode:multiply">
<path d="M28.0625 14.0923L17 16.5L22.5314 19.5249L28.0625 14.0923Z" fill="#F4C23C"/>
</g>
<g style="mix-blend-mode:screen" opacity="0.7">
<path d="M20.4186 12.9731L17 16.5001L28.0625 14.0924L20.4186 12.9731Z" fill="#F4C23C"/>
</g>
<g style="mix-blend-mode:screen">
<path d="M18.6211 9.30305L18.3742 8.79883L13.6001 12.9346L13.5814 12.9729L13.5513 12.9772L8.90283 17.0044L9.29111 17.386L18.6211 9.30305Z" fill="url(#paint2_radial_3862_735)"/>
<path d="M10.7596 23.6921L22.7404 13.3126L20.4186 12.9728L19.8925 11.8984L11.291 19.3501L11.469 19.5247L10.7596 23.6921Z" fill="url(#paint3_radial_3862_735)"/>
</g>
</g>
<line opacity="0.75" x1="109.25" y1="7" x2="109.25" y2="27" stroke="#1C1C28" stroke-width="0.5"/>
<path d="M101.945 20V14.1818H104.172C104.593 14.1818 104.942 14.2481 105.221 14.3807C105.501 14.5114 105.71 14.6903 105.848 14.9176C105.989 15.1449 106.059 15.4025 106.059 15.6903C106.059 15.9271 106.013 16.1297 105.922 16.2983C105.831 16.465 105.709 16.6004 105.556 16.7045C105.402 16.8087 105.231 16.8835 105.042 16.929V16.9858C105.248 16.9972 105.446 17.0606 105.635 17.1761C105.827 17.2898 105.983 17.4508 106.104 17.6591C106.225 17.8674 106.286 18.1193 106.286 18.4148C106.286 18.7159 106.213 18.9867 106.067 19.2273C105.921 19.4659 105.702 19.6544 105.408 19.7926C105.114 19.9309 104.745 20 104.3 20H101.945ZM102.999 19.1193H104.132C104.515 19.1193 104.791 19.0464 104.959 18.9006C105.13 18.7528 105.215 18.5634 105.215 18.3324C105.215 18.16 105.172 18.0047 105.087 17.8665C105.002 17.7263 104.881 17.6165 104.723 17.5369C104.566 17.4555 104.379 17.4148 104.161 17.4148H102.999V19.1193ZM102.999 16.6562H104.042C104.223 16.6562 104.387 16.6231 104.533 16.5568C104.679 16.4886 104.793 16.393 104.877 16.2699C104.962 16.1449 105.005 15.9972 105.005 15.8267C105.005 15.6013 104.925 15.4157 104.766 15.2699C104.609 15.1241 104.375 15.0511 104.064 15.0511H102.999V16.6562Z" fill="#1C1C28"/>
<line x1="147.25" y1="7" x2="147.25" y2="27" stroke="#8F90A6" stroke-opacity="0.75" stroke-width="0.5"/>
<path d="M140.426 20H139.301L141.35 14.1818H142.651L144.702 20H143.577L142.023 15.375H141.978L140.426 20ZM140.463 17.7188H143.532V18.5653H140.463V17.7188Z" fill="#8F90A6"/>
<line x1="185.25" y1="7" x2="185.25" y2="27" stroke="#8F90A6" stroke-opacity="0.75" stroke-width="0.5"/>
<path d="M172.735 20H171.61L173.658 14.1818H174.96L177.011 20H175.886L174.332 15.375H174.286L172.735 20ZM172.772 17.7188H175.84V18.5653H172.772V17.7188ZM179.447 19.0682V15.1364H180.339V19.0682H179.447ZM177.928 17.5483V16.6562H181.859V17.5483H177.928Z" fill="#8F90A6"/>
<path d="M40.1413 14.1818V20H39.0874V15.2074H39.0533L37.6925 16.0767V15.1108L39.1385 14.1818H40.1413ZM41.6186 20V19.2386L43.6385 17.2585C43.8317 17.0634 43.9927 16.8902 44.1214 16.7386C44.2502 16.5871 44.3468 16.4403 44.4112 16.2983C44.4756 16.1562 44.5078 16.0047 44.5078 15.8438C44.5078 15.66 44.4661 15.5028 44.3828 15.3722C44.2995 15.2396 44.1849 15.1373 44.0391 15.0653C43.8932 14.9934 43.7275 14.9574 43.5419 14.9574C43.3506 14.9574 43.183 14.9972 43.0391 15.0767C42.8951 15.1544 42.7834 15.2652 42.7038 15.4091C42.6262 15.553 42.5874 15.7244 42.5874 15.9233H41.5845C41.5845 15.554 41.6688 15.233 41.8374 14.9602C42.0059 14.6875 42.2379 14.4763 42.5334 14.3267C42.8307 14.1771 43.1716 14.1023 43.5561 14.1023C43.9463 14.1023 44.2891 14.1752 44.5845 14.321C44.88 14.4669 45.1091 14.6667 45.272 14.9205C45.4368 15.1742 45.5192 15.464 45.5192 15.7898C45.5192 16.0076 45.4775 16.2216 45.3942 16.4318C45.3108 16.642 45.1641 16.875 44.9538 17.1307C44.7455 17.3864 44.4529 17.696 44.076 18.0597L43.0732 19.0795V19.1193H45.6072V20H41.6186ZM48.7379 20.1108C48.2701 20.1108 47.8686 19.9924 47.5334 19.7557C47.2 19.517 46.9434 19.1733 46.7635 18.7244C46.5855 18.2737 46.4964 17.7311 46.4964 17.0966C46.4983 16.4621 46.5883 15.9223 46.7663 15.4773C46.9463 15.0303 47.2029 14.6894 47.5362 14.4545C47.8714 14.2197 48.272 14.1023 48.7379 14.1023C49.2038 14.1023 49.6044 14.2197 49.9396 14.4545C50.2749 14.6894 50.5315 15.0303 50.7095 15.4773C50.8894 15.9242 50.9794 16.464 50.9794 17.0966C50.9794 17.733 50.8894 18.2765 50.7095 18.7273C50.5315 19.1761 50.2749 19.5189 49.9396 19.7557C49.6063 19.9924 49.2057 20.1108 48.7379 20.1108ZM48.7379 19.2216C49.1016 19.2216 49.3885 19.0426 49.5987 18.6847C49.8108 18.3248 49.9169 17.7955 49.9169 17.0966C49.9169 16.6345 49.8686 16.2462 49.772 15.9318C49.6754 15.6174 49.5391 15.3807 49.3629 15.2216C49.1868 15.0606 48.9785 14.9801 48.7379 14.9801C48.3762 14.9801 48.0902 15.16 47.88 15.5199C47.6697 15.8778 47.5637 16.4034 47.5618 17.0966C47.5599 17.5606 47.6063 17.9508 47.701 18.267C47.7976 18.5833 47.9339 18.822 48.1101 18.983C48.2862 19.142 48.4955 19.2216 48.7379 19.2216ZM54.0739 20.1108C53.6061 20.1108 53.2045 19.9924 52.8693 19.7557C52.536 19.517 52.2794 19.1733 52.0994 18.7244C51.9214 18.2737 51.8324 17.7311 51.8324 17.0966C51.8343 16.4621 51.9242 15.9223 52.1023 15.4773C52.2822 15.0303 52.5388 14.6894 52.8722 14.4545C53.2074 14.2197 53.608 14.1023 54.0739 14.1023C54.5398 14.1023 54.9403 14.2197 55.2756 14.4545C55.6108 14.6894 55.8674 15.0303 56.0455 15.4773C56.2254 15.9242 56.3153 16.464 56.3153 17.0966C56.3153 17.733 56.2254 18.2765 56.0455 18.7273C55.8674 19.1761 55.6108 19.5189 55.2756 19.7557C54.9422 19.9924 54.5417 20.1108 54.0739 20.1108ZM54.0739 19.2216C54.4375 19.2216 54.7244 19.0426 54.9347 18.6847C55.1468 18.3248 55.2528 17.7955 55.2528 17.0966C55.2528 16.6345 55.2045 16.2462 55.108 15.9318C55.0114 15.6174 54.875 15.3807 54.6989 15.2216C54.5227 15.0606 54.3144 14.9801 54.0739 14.9801C53.7121 14.9801 53.4261 15.16 53.2159 15.5199C53.0057 15.8778 52.8996 16.4034 52.8977 17.0966C52.8958 17.5606 52.9422 17.9508 53.0369 18.267C53.1335 18.5833 53.2699 18.822 53.446 18.983C53.6222 19.142 53.8314 19.2216 54.0739 19.2216Z" fill="#1C1C28"/>
<defs>
<linearGradient id="paint0_linear_3862_735" x1="67.5" y1="28" x2="67.5" y2="6" gradientUnits="userSpaceOnUse">
<stop stop-color="#96E6A1"/>
<stop offset="1" stop-color="#D4FC79"/>
</linearGradient>
<linearGradient id="paint1_linear_3862_735" x1="17" y1="33" x2="17" y2="1" gradientUnits="userSpaceOnUse">
<stop stop-color="#96E6A1"/>
<stop offset="1" stop-color="#D4FC79"/>
</linearGradient>
<radialGradient id="paint2_radial_3862_735" cx="0" cy="0" r="1" gradientUnits="userSpaceOnUse" gradientTransform="translate(13.762 13.0924) scale(4.56991 4.60484)">
<stop stop-color="#FCAC41"/>
<stop offset="1"/>
</radialGradient>
<radialGradient id="paint3_radial_3862_735" cx="0" cy="0" r="1" gradientUnits="userSpaceOnUse" gradientTransform="translate(16.75 17.7953) scale(5.92147 5.96672)">
<stop stop-color="#FCAC41"/>
<stop offset="1"/>
</radialGradient>
<clipPath id="clip0_3862_735">
<rect width="24" height="23" fill="white" transform="translate(5 5)"/>
</clipPath>
</defs>
</svg>
