<svg viewBox="0 0 588 350" fill="none" xmlns="http://www.w3.org/2000/svg">
<g clip-path="url(#clip0_659_17688)">
<path d="M424.532 81.5843C424.532 81.5843 443.272 59.0036 479.181 73.393C515.103 87.7823 550.26 146.842 517.577 218.311" stroke="#274D79" stroke-width="0.78" stroke-miterlimit="10"/>
<path d="M428.182 97.3269C426.542 101.545 410.207 95.1972 411.848 90.9786L414.13 85.1082C415.88 80.603 420.965 78.3777 425.476 80.1252C429.986 81.8727 432.214 86.9513 430.465 91.4565L428.182 97.3269Z" fill="#03AA99"/>
<path d="M411.847 90.9786C409.988 95.1016 426.528 101.545 428.182 97.3269C429.426 94.064 413.187 88.0024 411.847 90.9786Z" fill="#3B55CE"/>
<path d="M418.299 94.145C418.122 94.6774 417.343 94.8822 416.55 94.6228C415.757 94.3634 415.265 93.7218 415.443 93.1893C415.62 92.6569 416.399 92.4521 417.192 92.7115C417.985 92.9709 418.477 93.6125 418.299 94.145Z" fill="#000E5B"/>
<path d="M424.095 96.2758C423.917 96.8083 423.138 97.0131 422.345 96.7537C421.552 96.4943 421.06 95.8526 421.238 95.3202C421.416 94.7878 422.195 94.583 422.988 94.8424C423.78 95.1018 424.272 95.7434 424.095 96.2758Z" fill="#000E5B"/>
<path d="M514.98 302.341C514.98 302.341 507.913 300.402 503.32 293.945C498.714 287.487 501.174 272.088 509.157 267.678C517.14 263.268 523.277 258.053 522.047 246.094C520.817 234.135 524.808 224.633 534.937 223.404C545.065 222.175 549.057 222.025 559.186 212.905C569.314 203.786 577.611 202.339 581.603 207.499C585.594 212.673 582.519 219.65 580.372 225.82C578.226 231.991 585.895 238.285 587.439 244.483C588.97 250.695 587.74 258.695 579.757 263.118C571.775 267.541 566.252 271.091 567.168 279.132C568.084 287.173 563.478 299.378 546.296 302.327H514.98V302.341Z" fill="#3DC19A"/>
<path d="M568.699 220.414C568.699 220.414 531.301 249.725 524.671 302.341" stroke="#3B55CE" stroke-width="1.57" stroke-miterlimit="10" stroke-linecap="round"/>
<path d="M479.974 198.557C474.083 202.256 474.452 208.673 474.752 216.809C475.053 224.946 472.729 227.909 468.055 233.329C463.394 238.749 465.909 247.022 474.014 250.708C482.12 254.394 489.187 260.073 484.881 269.643C480.589 279.213 482.12 296.647 503.307 302.34L530.549 302.408C530.549 302.408 549.672 291.282 552.119 270.995C554.58 250.708 538.3 248.906 533.693 242.148C529.087 235.376 530.454 226.148 530.536 216.809C530.618 207.471 523.565 202.748 514.037 203.267C504.524 203.785 500.806 203.267 495.898 199.894C490.991 196.536 484.881 195.471 479.96 198.557H479.974Z" fill="#91DBAC"/>
<path d="M489.447 210.598C489.501 210.871 522.58 233.315 520.954 302.231" stroke="#3B55CE" stroke-width="1.57" stroke-miterlimit="10" stroke-linecap="round"/>
<path d="M565.924 306.328H2.14604C0.956831 306.328 0 305.358 0 304.184C0 302.997 0.9705 302.027 2.14604 302.027H565.924C567.114 302.027 568.071 302.997 568.071 304.184C568.071 305.372 567.1 306.328 565.924 306.328Z" fill="#638BE2"/>
<path d="M282.949 283.731C287.555 287.431 300.705 302.298 350.925 302.298C364.935 302.298 380.067 302.885 392.356 299.554C424.122 290.939 444.927 279.403 444.927 279.403L383.484 258.516L328.398 258.83L282.962 283.731H282.949Z" fill="#1E4174"/>
<path d="M325.227 274.967L301.197 279.527L302.072 292.605L329 291.936L325.227 274.967Z" fill="#FF9A8D"/>
<path d="M325.227 274.967C325.227 274.967 383.471 258.516 401.582 253.916C422.318 248.646 453.784 234.366 464.378 247.608C474.985 260.851 462.04 278.49 433.363 286.23C404.671 293.957 326.17 293.207 326.17 293.207L325.227 274.981V274.967Z" fill="#1E4174"/>
<path d="M278.588 271.541C278.588 271.541 277.645 274.544 277.796 280.906C277.946 287.268 281.172 292.101 281.5 301.385C281.5 301.385 285.108 295.46 284.931 285.835C284.753 276.21 278.588 271.541 278.588 271.541Z" fill="#8FC9C6"/>
<path d="M313.431 292.894C309.672 293.29 303.37 296.225 299.516 298.273C295.661 300.307 293.597 302.45 286.708 302.396C286.708 302.396 286.681 284.211 285.942 278.586C285.204 272.961 284.07 271.992 284.07 271.992C284.07 271.992 290.453 272.402 293.624 274.095C296.796 275.787 297.151 276.566 302.742 276.784C308.332 277.003 310.629 277.303 313.075 277.262C316.793 283.064 315.304 290.095 313.431 292.88V292.894Z" fill="#03AA99"/>
<path d="M297.151 295.049C297.151 295.049 299.283 285.616 296.153 279.158" stroke="#AAEEED" stroke-width="0.92" stroke-miterlimit="10" stroke-linecap="round"/>
<path d="M301.101 293.945C301.101 293.945 303.179 286.764 300.131 279.896" stroke="#AAEEED" stroke-width="0.92" stroke-miterlimit="10" stroke-linecap="round"/>
<path d="M305.544 292.155C305.544 292.155 307.416 287.363 304.929 280.277" stroke="#AAEEED" stroke-width="0.92" stroke-miterlimit="10" stroke-linecap="round"/>
<path d="M286.721 302.395C284.548 302.354 281.882 302.299 281.513 301.384C281.144 300.47 283.687 295.05 282.675 284.292C282.128 278.517 278.069 271.732 278.602 271.541C279.135 271.35 282.306 270.162 284.083 272.005C285.86 273.848 294.854 285.644 286.721 302.395Z" fill="#AAEEED"/>
<path d="M431.066 154.774C438.639 149.422 454.974 136.971 463.558 110.227C466.278 101.735 466.524 95.9191 466.455 92.0283C462.027 88.3012 462.491 81.2567 458.445 76.888C452.759 70.7446 447.674 62.9355 458.787 62.9355C464.979 62.9355 470.679 63.1813 473.727 66.1301C476.147 68.4647 480.712 75.3727 481.546 77.7754C483.446 83.209 481.245 90.0624 480.999 98.3356C480.767 106.609 475.313 158.391 435.317 180.139L431.053 154.76L431.066 154.774Z" fill="#FF9A8D"/>
<path d="M344.364 135.264C344.364 135.264 344.186 141.885 343.612 144.63C343.038 147.36 343.612 148.807 335.247 150.241C335.247 150.241 338.65 161.19 353.139 163.06C367.628 164.93 373.547 153.558 373.11 153.558C372.672 153.558 368.64 151.906 367.341 151.06C366.043 150.227 367 134.254 367 134.254L344.364 135.264Z" fill="#FF9A8D"/>
<path d="M366.808 138.295C366.808 138.295 365.031 143.906 356.242 144.479C347.439 145.053 344.172 139.51 344.172 139.51L344.377 135.25L367.013 134.24L366.822 138.281L366.808 138.295Z" fill="#BA5964"/>
<path d="M330.53 111.21C330.53 111.21 325.979 110.5 323.983 113.844C321.987 117.189 324.489 123.428 329.218 124.466C333.756 125.462 335.246 122.923 335.246 122.923L330.53 111.21Z" fill="#FF9A8D"/>
<path d="M326.553 114.555C327.591 114.009 329.245 113.858 330.271 114.473C330.653 114.705 330.134 115.346 329.792 115.265C327.837 114.828 325.555 115.032 324.926 117.326C324.899 117.449 324.789 117.326 324.803 117.258C324.885 116.029 325.432 115.128 326.553 114.555Z" fill="#BA5964"/>
<path d="M327.441 114.609C327.633 114.486 328.179 114.937 328.152 115.087C327.865 115.264 327.428 115.674 327.264 116.111C326.963 116.861 326.936 117.476 327.1 118.268C327.496 120.097 328.712 121.285 330.585 121.462C330.612 121.462 330.681 121.558 330.64 121.571C329.123 122.172 327.113 120.793 326.566 119.428C325.951 117.926 325.76 115.701 327.455 114.609H327.441Z" fill="#BA5964"/>
<path d="M374.517 102.772C374.517 102.772 378.481 100.424 381.57 102.786C384.659 105.147 384.66 111.878 380.654 114.595C376.813 117.202 374.49 115.387 374.49 115.387L374.517 102.772Z" fill="#FF9A8D"/>
<path d="M379.451 104.411C378.29 104.301 376.69 104.752 375.966 105.708C375.692 106.062 376.417 106.472 376.704 106.267C378.358 105.134 380.559 104.479 381.98 106.39C382.062 106.486 382.103 106.349 382.076 106.281C381.543 105.161 380.695 104.533 379.451 104.411Z" fill="#BA5964"/>
<path d="M378.645 104.793C378.413 104.752 378.085 105.366 378.167 105.489C378.495 105.557 379.055 105.776 379.383 106.117C379.944 106.704 380.203 107.264 380.326 108.069C380.627 109.913 379.944 111.469 378.276 112.329C378.249 112.343 378.221 112.452 378.276 112.452C379.916 112.452 381.256 110.418 381.27 108.957C381.27 107.332 380.627 105.189 378.659 104.807L378.645 104.793Z" fill="#BA5964"/>
<path d="M358.224 80.7645C354.697 79.5494 350.924 79.1672 347.302 79.8634C343.68 80.5597 340.112 82.1707 337.283 84.6007C330.681 90.2664 328.125 99.2358 329.737 107.646C329.737 107.646 329.737 107.673 329.737 107.687C330.202 110.089 330.804 112.465 331.542 114.799L332.581 118.062C333.387 120.615 335.219 125.503 338.13 129.967C343.912 138.827 353.317 140.274 358.716 139.237C364.129 138.199 372.316 133.366 374.394 123.004C375.447 117.775 375.337 112.574 375.132 109.898L374.886 106.485C374.709 104.041 374.38 101.611 373.916 99.2085C373.916 99.2085 373.916 99.1812 373.916 99.1676C372.289 90.7715 366.452 83.5905 358.21 80.7645H358.224Z" fill="#FF9A8D"/>
<path d="M361.477 105.91C361.231 104.64 362.065 103.398 363.35 103.152C364.621 102.907 365.865 103.739 366.111 105.023C366.357 106.292 365.523 107.535 364.238 107.78C362.967 108.026 361.723 107.193 361.477 105.91Z" fill="#001C45"/>
<path d="M362.038 97.3921L373.123 99.4945C373.123 99.4945 372.33 96.4501 368.394 94.8528C366.671 94.1565 364.73 94.2248 363.555 94.8664C361.846 95.8084 362.038 97.3784 362.038 97.3784V97.3921Z" fill="#001C45"/>
<path d="M342.997 100.763L334.891 108.6C334.891 108.6 333.879 105.623 336.299 102.128C337.351 100.599 339.005 99.5891 340.359 99.4935C342.3 99.3434 343.01 100.763 343.01 100.763H342.997Z" fill="#001C45"/>
<path d="M346.673 109.079C346.427 107.809 345.197 106.963 343.912 107.208C342.627 107.454 341.794 108.683 342.04 109.966C342.286 111.236 343.516 112.082 344.801 111.837C346.072 111.591 346.919 110.362 346.673 109.079Z" fill="#001C45"/>
<path d="M354.861 106.773C353.795 107.059 353.016 117.981 354.492 119.537C355.107 120.179 356.638 120.643 357.486 120.397C358.361 120.316 359.604 119.319 359.946 118.486C360.753 116.493 355.968 106.636 354.875 106.759L354.861 106.773Z" fill="#BA5964"/>
<path d="M318.064 87.1138C318.064 87.1138 326.485 85.4756 329.683 89.7897" stroke="#001C45" stroke-width="1.71" stroke-miterlimit="10" stroke-linecap="round"/>
<path d="M317.818 78.8398C317.818 78.8398 328.261 80.601 329.833 90.567" stroke="#001C45" stroke-width="1.71" stroke-miterlimit="10" stroke-linecap="round"/>
<path d="M333.196 89.8026C333.196 89.8026 339.087 98.6492 348.765 101.27C358.442 103.892 363.91 92.6968 362.926 87.6046C362.926 87.6046 372.385 102.813 374.517 102.772C374.517 102.772 376.827 96.6423 376.075 89.7889C375.324 82.9356 372.07 79.5225 368.571 76.9969C365.236 74.5941 361.983 76.0412 360.643 76.915C358.88 73.5975 353.699 66.5939 343.489 67.7407C332.061 69.024 327.632 76.9013 329.286 88.9152C329.286 88.9152 324.994 87.7002 322.438 92.6832C319.868 97.6526 322.725 107.305 326.143 111.892C326.143 111.892 329.122 110.95 330.544 111.223C330.544 111.223 328.535 103.277 330.421 96.301C331.952 90.6217 333.209 89.8162 333.209 89.8162L333.196 89.8026Z" fill="#001C45"/>
<path d="M338.841 149.49C339.866 153.613 345.703 160.153 354.192 160.548C362.68 160.944 369.692 155.251 370.84 152.739C377.921 153.395 386.929 155.32 389.95 155.866C394.228 156.644 398.383 160.453 396.853 172.494C395.363 184.18 386.081 258.038 386.081 258.038C386.081 258.038 361.545 267.554 328.384 258.83C328.384 258.83 308.318 178.665 306.528 171.73C304.737 164.794 302.564 157.463 308.906 155.279C315.249 153.094 338.828 149.49 338.828 149.49H338.841Z" fill="#3ED9C7"/>
<path d="M366.22 234.775C366.685 234.871 367.163 234.939 367.628 234.98C372.303 235.471 370.171 230.188 368.708 228.113C366.466 224.932 350.911 212.904 350.911 212.904L338.828 213.928L325.213 219.526L319.623 223.867C320.757 228.386 321.851 232.755 322.862 236.809C327.947 233.628 340.263 226.079 342.983 225.819C344.692 225.655 346.236 226.256 347.767 226.911C349.981 227.867 352.209 228.727 354.479 229.56C355.504 229.929 356.543 230.311 357.527 230.789C359.304 231.649 360.917 232.823 362.721 233.656C363.842 234.174 365.017 234.543 366.22 234.775Z" fill="#03AA99"/>
<path d="M418.45 209.506L427.253 213.697" stroke="#274D79" stroke-width="2.1" stroke-miterlimit="10" stroke-linecap="round"/>
<path d="M414.732 216.795L423.535 221" stroke="#274D79" stroke-width="2.1" stroke-miterlimit="10" stroke-linecap="round"/>
<path d="M291.765 247.608C303.343 249.301 323.874 249.71 341.999 233.314C356.597 220.113 369.925 194.924 403.837 205.996" stroke="#274D79" stroke-width="0.78" stroke-miterlimit="10"/>
<path d="M419.817 204.74C423.822 206.856 415.62 222.324 411.615 220.208L406.038 217.259C401.76 214.993 400.133 209.71 402.389 205.436C404.658 201.163 409.948 199.539 414.226 201.791L419.803 204.74H419.817Z" fill="#03AA99"/>
<path d="M299.953 167.402C299.953 167.402 272.519 216.932 267.53 225.287C262.541 233.643 263.566 243.022 264.591 245.37C265.616 247.718 279.846 249.329 292.913 244.346C305.967 239.363 339.593 222.298 342.094 220.987C342.094 220.987 345.293 223.089 348.505 224.605C352.989 226.735 356.625 226.816 359.536 229.014C362.448 231.212 365.632 235.404 371.25 232.687C374.599 231.076 367.177 220.687 363.856 214.939C360.602 212.168 349.011 207.362 343.202 208.195C334.987 209.369 293.679 223.403 293.679 223.403L308.646 197.615L299.98 167.402H299.953Z" fill="#FF9A8D"/>
<path d="M310.342 154.828C303.603 156.944 301.006 160.234 294.417 172.207C287.829 184.18 279.108 198.747 279.108 198.747C279.108 198.747 286.188 209.778 301.798 212.918L312.392 195.034L310.328 154.842L310.342 154.828Z" fill="#3ED9C7"/>
<path d="M389.95 155.879C398.014 157.19 418.518 163.197 431.066 154.773C431.066 154.773 439.35 167.388 437.928 183.225C437.928 183.225 420.924 198.365 394.351 192.29L389.95 155.866V155.879Z" fill="#3ED9C7"/>
<path d="M392.355 278.709L415.934 285.18L414.021 298.136L387.229 295.324L392.355 278.709Z" fill="#FF9A8D"/>
<path d="M392.356 278.708C392.356 278.708 338.158 260.032 318.064 252.687C297.971 245.329 268.528 230.626 256.896 242.981C245.263 255.336 254.982 273.725 282.962 283.732C310.943 293.739 389.95 296.811 389.95 296.811C392.369 290.941 393.148 284.907 392.356 278.708Z" fill="#85B8ED"/>
<path d="M439.103 279.021C439.103 279.021 439.801 282.093 439.144 288.428C438.488 294.762 434.88 299.309 433.814 308.537C433.814 308.537 430.697 302.339 431.64 292.769C432.583 283.199 439.117 279.035 439.117 279.035L439.103 279.021Z" fill="#8FC9C6"/>
<path d="M402.662 297.52C406.38 298.216 412.421 301.643 416.098 303.991C419.775 306.339 421.662 308.633 428.537 309.124C428.537 309.124 430.027 291.008 431.203 285.452C432.392 279.909 433.595 279.035 433.595 279.035C433.595 279.035 427.211 278.926 423.903 280.373C420.609 281.806 420.185 282.557 414.595 282.325C409.004 282.093 406.694 282.216 404.261 281.97C400.092 287.458 401.008 294.585 402.648 297.506L402.662 297.52Z" fill="#03AA99"/>
<path d="M418.737 300.962C418.737 300.962 417.356 291.378 421.006 285.193" stroke="#AAEEED" stroke-width="0.92" stroke-miterlimit="10" stroke-linecap="round"/>
<path d="M414.882 299.554C414.882 299.554 413.392 292.237 416.973 285.629" stroke="#AAEEED" stroke-width="0.92" stroke-miterlimit="10" stroke-linecap="round"/>
<path d="M410.604 297.424C410.604 297.424 409.114 292.496 412.176 285.629" stroke="#AAEEED" stroke-width="0.92" stroke-miterlimit="10" stroke-linecap="round"/>
<path d="M428.537 309.125C430.71 309.261 433.376 309.412 433.813 308.538C434.251 307.664 432.146 302.053 434.018 291.404C435.03 285.684 439.609 279.254 439.103 279.022C438.597 278.79 435.522 277.343 433.594 279.049C431.681 280.742 421.771 291.787 428.523 309.139L428.537 309.125Z" fill="#AAEEED"/>
<path d="M392.287 288.414H391.071C391.071 288.414 355.75 286.121 317.914 279.895C280.748 273.779 255.624 261.288 252.262 252.113C250.608 263.212 261.311 275.991 282.962 283.718C310.943 293.725 389.95 296.797 389.95 296.797C390.961 294.367 391.781 291.623 392.287 288.414Z" fill="#4E7EAC"/>
<mask id="mask0_659_17688" style="mask-type:luminance" maskUnits="userSpaceOnUse" x="252" y="238" width="141" height="59">
<path d="M392.356 278.708C392.356 278.708 338.158 260.032 318.064 252.687C297.971 245.329 268.528 230.626 256.896 242.981C245.263 255.336 254.982 273.725 282.962 283.732C310.943 293.739 389.95 296.811 389.95 296.811C392.369 290.941 393.148 284.907 392.356 278.708Z" fill="white"/>
</mask>
<g mask="url(#mask0_659_17688)">
<path d="M385.329 275.527C385.288 280.415 384.277 291.391 382.131 298.135" stroke="#274D79" stroke-width="0.78" stroke-miterlimit="10"/>
</g>
<path d="M312.405 195.021C312.405 195.021 316.615 183.867 313.745 167.402C313.745 167.402 319.021 187.485 313.294 198.543L312.405 195.021Z" fill="#03AA99"/>
<path d="M394.351 192.289C394.351 192.289 395.896 179.606 393.135 167.77C393.135 167.77 396.484 174.568 396.306 192.698L394.351 192.289Z" fill="#03AA99"/>
<path d="M225.853 257.371C230.76 256.388 239.358 255.515 245.454 260.853C249.35 264.266 247.505 264.853 244.019 264.784C238.155 264.675 233.48 269.604 233.48 269.604C233.48 269.604 225.853 270.477 223.98 264.416C221.26 255.637 225.853 257.371 225.853 257.371Z" fill="#E09B36"/>
<path d="M207.195 302H244.88C253.478 302.191 259.356 301.536 263.58 297.795C268.487 293.453 269.334 285.726 268.555 279.815C267.639 277.44 262.431 279.201 256.007 278.108C250.184 277.126 246.808 274.504 243.486 270.067C240.178 265.658 238.401 263.897 231.854 260.702C228.259 258.955 225.347 259.132 225.347 259.132C225.347 259.132 227.657 254.081 231.17 250.845C235.408 246.941 227.849 245.384 219.251 249.248C214.139 251.541 208.781 256.033 205.022 260.306C202.575 263.077 196.205 262.668 189.288 257.357C182.372 252.047 158.123 230.039 131.564 233.739C105.005 237.439 86.5658 259.159 83.8594 274.777C81.1529 290.395 86.3608 299.256 90.8716 302.027L207.222 302H207.195Z" fill="#FABA50"/>
<path d="M86.1012 274.9C78.7063 270.899 59.8157 270.64 45.5726 281.971C31.6849 293.016 25.9029 316.061 37.3438 333.454C48.7848 350.846 71.407 351.393 74.3322 348.935C77.2574 346.478 62.2625 337.59 58.2028 326.259C58.2028 326.259 66.3085 331.406 70.9286 331.897C75.5487 332.389 63.8754 320.47 62.6589 307.829C61.4423 295.187 67.6891 281.33 83.053 281.944L86.1012 274.9Z" fill="#FABA50"/>
<path d="M268.131 288.251C267.298 288.415 267.612 283.855 266.601 284.292C265.603 284.729 267.216 287.064 267.216 287.064C264.359 286.367 260.34 282.272 261.953 279.746C263.607 277.139 268.227 278.326 269.321 278.777C270.975 279.473 272.109 284.961 268.131 288.251Z" fill="#001C45"/>
<path d="M126.985 253.657C126.985 253.657 137.169 254.49 141.078 265.494C144.987 276.497 140.641 283.105 137.428 286.655C137.428 286.655 151.877 285.276 158.301 289.522C164.725 293.767 164.151 302.013 164.151 302.013H167.651C167.651 302.013 167.801 291.938 161.035 287.692C154.269 283.446 148.555 282.928 144.769 283.187C144.769 283.187 148.746 274.613 144.195 264.538C139.643 254.463 131.004 253.084 126.985 253.657Z" fill="#E09B36"/>
<path d="M180.158 286.069C180.158 286.069 195.207 284.403 201.577 289.195C207.947 294 207.195 302.001 207.195 302.001L210.763 302.028C210.763 302.028 211.706 293.468 205.227 288.253C198.748 283.038 184.436 284.594 180.158 286.055V286.069Z" fill="#E09B36"/>
<path d="M223.42 279.119C223.42 279.119 222.791 275.378 227.234 274.395C232.018 273.33 233.303 276.907 233.303 276.907C233.303 276.907 230.884 275.979 227.699 276.757C225.361 277.33 223.434 279.119 223.434 279.119H223.42Z" fill="#001C45"/>
<path d="M241.49 30.2812L270.523 60.3296L260.791 71.2923L228.601 44.7935L241.477 30.2812H241.49ZM280.078 67.9339C280.953 68.6984 281.609 69.5858 282.06 70.596C282.511 71.5926 282.771 72.6302 282.839 73.6951C282.908 74.7599 282.771 75.8111 282.429 76.8487C282.087 77.8863 281.541 78.8283 280.789 79.6747C280.023 80.5484 279.135 81.2037 278.137 81.6679C277.139 82.1321 276.114 82.3915 275.062 82.4597C273.995 82.528 272.943 82.3915 271.904 82.0502C270.865 81.7089 269.908 81.1628 269.034 80.3846C268.186 79.6338 267.516 78.7464 267.038 77.7498C266.559 76.7395 266.286 75.7019 266.218 74.6507C266.149 73.5858 266.286 72.5346 266.614 71.4834C266.942 70.4322 267.489 69.4766 268.268 68.6028C269.02 67.7564 269.895 67.1011 270.906 66.6506C271.904 66.2 272.943 65.9406 274.009 65.8724C275.075 65.8041 276.141 65.9543 277.208 66.2956C278.274 66.6369 279.231 67.1966 280.078 67.9475V67.9339Z" fill="#3B55CE"/>
<path d="M301.703 40.5608L288.703 43.7964C287.842 41.1342 287.432 38.8133 287.46 36.8611C287.487 34.9088 287.774 33.216 288.293 31.7961C288.826 30.3763 289.51 29.1476 290.357 28.1374C291.205 27.1271 292.052 26.2124 292.9 25.4206C293.747 24.6288 294.485 23.8779 295.114 23.1816C295.743 22.4854 296.098 21.7072 296.194 20.8744C296.262 20.3693 296.18 19.8232 295.948 19.2362C295.716 18.6491 295.319 18.144 294.731 17.7208C294.144 17.2976 293.365 17.0109 292.394 16.8607C291.424 16.7105 290.221 16.8061 288.813 17.161C287.897 17.3931 286.817 17.7481 285.587 18.2259C284.357 18.7037 283.099 19.2908 281.801 19.987C280.502 20.6833 279.244 21.4342 278.028 22.2806C276.811 23.1134 275.745 23.9871 274.829 24.8881L269.375 10.253C270.182 9.44757 271.111 8.60114 272.15 7.7001C273.189 6.79906 274.365 5.93897 275.691 5.10619C277.003 4.27341 278.479 3.49524 280.092 2.77167C281.705 2.04811 283.482 1.43376 285.437 0.955937C288.594 0.164113 291.683 -0.136234 294.704 0.0275917C297.725 0.20507 300.5 0.860373 303.029 2.03446C305.557 3.19489 307.744 4.86045 309.59 7.03114C311.435 9.18818 312.761 11.8777 313.567 15.0723C314.169 17.5023 314.319 19.5365 313.991 21.1884C313.663 22.8267 313.089 24.2601 312.241 25.4752C311.408 26.6902 310.396 27.7824 309.221 28.7517C308.045 29.721 306.924 30.7449 305.844 31.8234C304.765 32.8883 303.835 34.117 303.042 35.4822C302.249 36.8474 301.812 38.5403 301.716 40.5472L301.703 40.5608ZM306.159 50.2129C306.446 51.346 306.487 52.4382 306.295 53.5303C306.104 54.6089 305.735 55.6055 305.188 56.5202C304.642 57.4349 303.931 58.2267 303.07 58.882C302.208 59.5373 301.211 60.0151 300.117 60.2882C298.983 60.5748 297.889 60.6158 296.809 60.4383C295.729 60.2608 294.731 59.8922 293.816 59.3462C292.9 58.8001 292.121 58.0902 291.451 57.2301C290.781 56.37 290.316 55.3734 290.029 54.2402C289.756 53.1344 289.701 52.0423 289.879 50.9364C290.057 49.8306 290.412 48.8203 290.959 47.9193C291.506 47.0046 292.216 46.2128 293.078 45.5302C293.939 44.8476 294.937 44.3698 296.071 44.0967C297.178 43.8237 298.258 43.7827 299.352 43.9738C300.431 44.165 301.429 44.5336 302.345 45.0797C303.261 45.6257 304.054 46.3493 304.737 47.2367C305.421 48.1241 305.899 49.1207 306.172 50.2265L306.159 50.2129Z" fill="#3B55CE"/>
</g>
<defs>
<clipPath id="clip0_659_17688">
<rect width="588" height="350" fill="white"/>
</clipPath>
</defs>
</svg>
