<svg width="24" height="24" viewBox="0 0 24 24" fill="none" xmlns="http://www.w3.org/2000/svg">
<path d="M22.5 5.25013V9.75013C22.5 9.94905 22.421 10.1398 22.2803 10.2805C22.1397 10.4211 21.9489 10.5001 21.75 10.5001H17.25C17.1016 10.5002 16.9565 10.4563 16.833 10.3739C16.7096 10.2915 16.6134 10.1743 16.5565 10.0372C16.4997 9.90011 16.4849 9.74922 16.5139 9.60365C16.5428 9.45809 16.6144 9.3244 16.7194 9.21951L18.3131 7.62576L17.3241 6.72107L17.3006 6.69857C16.2582 5.65653 14.9318 4.94475 13.4872 4.65214C12.0426 4.35954 10.5438 4.49909 9.17803 5.05335C7.81227 5.60762 6.6401 6.55202 5.80795 7.7686C4.9758 8.98517 4.52057 10.42 4.49913 11.8938C4.47769 13.3676 4.89098 14.815 5.68738 16.0553C6.48378 17.2955 7.62798 18.2736 8.97704 18.8674C10.3261 19.4612 11.8202 19.6443 13.2727 19.3938C14.7252 19.1434 16.0718 18.4705 17.1441 17.4592C17.2157 17.3915 17.2999 17.3385 17.3919 17.3034C17.484 17.2682 17.5821 17.2515 17.6806 17.2543C17.7791 17.257 17.8761 17.2791 17.966 17.3194C18.056 17.3596 18.1371 17.4171 18.2049 17.4887C18.2726 17.5603 18.3255 17.6445 18.3607 17.7366C18.3958 17.8287 18.4125 17.9267 18.4098 18.0252C18.407 18.1237 18.3849 18.2207 18.3447 18.3107C18.3045 18.4006 18.2469 18.4818 18.1753 18.5495C16.5077 20.1287 14.2967 21.0061 12 21.0001H11.8763C10.4023 20.9799 8.95579 20.598 7.66397 19.8879C6.37216 19.1777 5.27455 18.1612 4.46762 16.9275C3.6607 15.6938 3.16915 14.2808 3.0362 12.8127C2.90324 11.3446 3.13294 9.86628 3.70511 8.50772C4.27728 7.14916 5.1744 5.95194 6.31762 5.02128C7.46085 4.09063 8.81517 3.45504 10.2616 3.17038C11.7079 2.88571 13.2021 2.96069 14.6127 3.38871C16.0234 3.81674 17.3073 4.58471 18.3516 5.62513L19.3763 6.56263L21.2194 4.71576C21.3245 4.61052 21.4585 4.53891 21.6045 4.51004C21.7504 4.48117 21.9016 4.49634 22.0388 4.55362C22.1761 4.6109 22.2933 4.70771 22.3754 4.83173C22.4575 4.95575 22.5009 5.10139 22.5 5.25013Z" fill="currentColor"/>
</svg>
