<svg viewBox="0 0 32 32" fill="none" xmlns="http://www.w3.org/2000/svg">
<g filter="url(#filter0_dd_2584_454)">
<path d="M26 4H6C5.46957 4 4.96086 4.21071 4.58579 4.58579C4.21071 4.96086 4 5.46957 4 6V26C4 26.5304 4.21071 27.0391 4.58579 27.4142C4.96086 27.7893 5.46957 28 6 28H26C26.5304 28 27.0391 27.7893 27.4142 27.4142C27.7893 27.0391 28 26.5304 28 26V6C28 5.46957 27.7893 4.96086 27.4142 4.58579C27.0391 4.21071 26.5304 4 26 4ZM21.7075 16.7075L17.7075 20.7075C17.5199 20.8951 17.2654 21.0006 17 21.0006C16.7346 21.0006 16.4801 20.8951 16.2925 20.7075C16.1049 20.5199 15.9994 20.2654 15.9994 20C15.9994 19.7346 16.1049 19.4801 16.2925 19.2925L18.5863 17H11C10.7348 17 10.4804 16.8946 10.2929 16.7071C10.1054 16.5196 10 16.2652 10 16C10 15.7348 10.1054 15.4804 10.2929 15.2929C10.4804 15.1054 10.7348 15 11 15H18.5863L16.2925 12.7075C16.1049 12.5199 15.9994 12.2654 15.9994 12C15.9994 11.7346 16.1049 11.4801 16.2925 11.2925C16.4801 11.1049 16.7346 10.9994 17 10.9994C17.2654 10.9994 17.5199 11.1049 17.7075 11.2925L21.7075 15.2925C21.8005 15.3854 21.8742 15.4957 21.9246 15.6171C21.9749 15.7385 22.0008 15.8686 22.0008 16C22.0008 16.1314 21.9749 16.2615 21.9246 16.3829C21.8742 16.5043 21.8005 16.6146 21.7075 16.7075Z" fill="currentColor"/>
</g>
<defs>
<filter id="filter0_dd_2584_454" x="-2" y="-1.5" width="36" height="36" filterUnits="userSpaceOnUse" color-interpolation-filters="sRGB">
<feFlood flood-opacity="0" result="BackgroundImageFix"/>
<feColorMatrix in="SourceAlpha" type="matrix" values="0 0 0 0 0 0 0 0 0 0 0 0 0 0 0 0 0 0 127 0" result="hardAlpha"/>
<feOffset dy="0.5"/>
<feGaussianBlur stdDeviation="1"/>
<feColorMatrix type="matrix" values="0 0 0 0 0.376471 0 0 0 0 0.380392 0 0 0 0 0.439216 0 0 0 0.16 0"/>
<feBlend mode="normal" in2="BackgroundImageFix" result="effect1_dropShadow_2584_454"/>
<feColorMatrix in="SourceAlpha" type="matrix" values="0 0 0 0 0 0 0 0 0 0 0 0 0 0 0 0 0 0 127 0" result="hardAlpha"/>
<feOffset/>
<feGaussianBlur stdDeviation="0.5"/>
<feColorMatrix type="matrix" values="0 0 0 0 0.156863 0 0 0 0 0.160784 0 0 0 0 0.239216 0 0 0 0.08 0"/>
<feBlend mode="normal" in2="effect1_dropShadow_2584_454" result="effect2_dropShadow_2584_454"/>
<feBlend mode="normal" in="SourceGraphic" in2="effect2_dropShadow_2584_454" result="shape"/>
</filter>
</defs>
</svg>
