<svg width="24" height="24" viewBox="0 0 24 24" fill="none" xmlns="http://www.w3.org/2000/svg">
<path d="M6.96937 12.5307L14.4694 20.0307C14.5743 20.1357 14.708 20.2073 14.8535 20.2362C14.9991 20.2652 15.15 20.2504 15.2871 20.1936C15.4242 20.1368 15.5414 20.0405 15.6238 19.9171C15.7062 19.7936 15.7501 19.6485 15.75 19.5001V4.5001C15.7501 4.35168 15.7062 4.20656 15.6238 4.08312C15.5414 3.95967 15.4242 3.86345 15.2871 3.80664C15.15 3.74982 14.9991 3.73497 14.8535 3.76396C14.708 3.79294 14.5743 3.86447 14.4694 3.96948L6.96937 11.4695C6.89964 11.5391 6.84432 11.6218 6.80658 11.7129C6.76884 11.8039 6.74941 11.9015 6.74941 12.0001C6.74941 12.0987 6.76884 12.1963 6.80658 12.2873C6.84432 12.3784 6.89964 12.4611 6.96937 12.5307Z" fill="currentColor"/>
</svg>
