<svg  viewBox="0 0 16 16" fill="none" xmlns="http://www.w3.org/2000/svg">
<path d="M13.3535 9.64597L8.35354 4.64597C8.3071 4.59948 8.25196 4.5626 8.19126 4.53744C8.13056 4.51228 8.0655 4.49933 7.99979 4.49933C7.93408 4.49933 7.86902 4.51228 7.80832 4.53744C7.74762 4.5626 7.69248 4.59948 7.64604 4.64597L2.64604 9.64597C2.55222 9.73979 2.49951 9.86704 2.49951 9.99972C2.49951 10.1324 2.55222 10.2597 2.64604 10.3535C2.73986 10.4473 2.86711 10.5 2.99979 10.5C3.13247 10.5 3.25972 10.4473 3.35354 10.3535L7.99979 5.7066L12.646 10.3535C12.6925 10.3999 12.7476 10.4368 12.8083 10.4619C12.869 10.4871 12.9341 10.5 12.9998 10.5C13.0655 10.5 13.1305 10.4871 13.1912 10.4619C13.2519 10.4368 13.3071 10.3999 13.3535 10.3535C13.4 10.307 13.4368 10.2519 13.462 10.1912C13.4871 10.1305 13.5001 10.0654 13.5001 9.99972C13.5001 9.93402 13.4871 9.86897 13.462 9.80827C13.4368 9.74758 13.4 9.69243 13.3535 9.64597Z" fill="currentColor"/>
</svg>
