<svg  viewBox="0 0 17 16" fill="none" xmlns="http://www.w3.org/2000/svg">
<path d="M13.5615 6.35403L8.56155 11.354C8.51511 11.4005 8.45997 11.4374 8.39927 11.4626C8.33857 11.4877 8.27351 11.5007 8.2078 11.5007C8.14209 11.5007 8.07703 11.4877 8.01633 11.4626C7.95563 11.4374 7.90048 11.4005 7.85405 11.354L2.85405 6.35403C2.76023 6.26021 2.70752 6.13296 2.70752 6.00028C2.70752 5.8676 2.76023 5.74035 2.85405 5.64653C2.94787 5.55271 3.07512 5.5 3.2078 5.5C3.34048 5.5 3.46773 5.55271 3.56155 5.64653L8.2078 10.2934L12.854 5.64653C12.9005 5.60007 12.9557 5.56322 13.0163 5.53808C13.077 5.51294 13.1421 5.5 13.2078 5.5C13.2735 5.5 13.3385 5.51294 13.3992 5.53808C13.4599 5.56322 13.5151 5.60007 13.5615 5.64653C13.608 5.69298 13.6449 5.74813 13.67 5.80883C13.6951 5.86953 13.7081 5.93458 13.7081 6.00028C13.7081 6.06598 13.6951 6.13103 13.67 6.19173C13.6449 6.25242 13.608 6.30757 13.5615 6.35403Z" fill="currentColor"/>
</svg>
