<svg width="32" height="32" viewBox="0 0 32 32" fill="none" xmlns="http://www.w3.org/2000/svg">
<circle cx="16" cy="16" r="16" fill="#E3FFF1"/>
<path d="M24.1632 12.2891L14.1632 22.2891C14.0761 22.3765 13.9727 22.4459 13.8587 22.4932C13.7447 22.5405 13.6226 22.5649 13.4992 22.5649C13.3758 22.5649 13.2536 22.5405 13.1397 22.4932C13.0257 22.4459 12.9222 22.3765 12.8351 22.2891L8.46012 17.9141C8.37292 17.8269 8.30374 17.7234 8.25655 17.6095C8.20935 17.4955 8.18506 17.3734 8.18506 17.2501C8.18506 17.1267 8.20935 17.0046 8.25655 16.8907C8.30374 16.7767 8.37292 16.6732 8.46012 16.586C8.54733 16.4988 8.65086 16.4296 8.7648 16.3824C8.87874 16.3352 9.00086 16.3109 9.12418 16.3109C9.24751 16.3109 9.36963 16.3352 9.48357 16.3824C9.59751 16.4296 9.70104 16.4988 9.78825 16.586L13.5 20.2977L22.8367 10.9626C23.0128 10.7864 23.2517 10.6875 23.5007 10.6875C23.7498 10.6875 23.9887 10.7864 24.1648 10.9626C24.3409 11.1387 24.4399 11.3776 24.4399 11.6266C24.4399 11.8757 24.3409 12.1146 24.1648 12.2907L24.1632 12.2891Z" fill="#049352"/>
</svg>
