<svg viewBox="0 0 24 24" fill="none" xmlns="http://www.w3.org/2000/svg">
<path d="M8.99995 18.9994C8.99995 19.8394 9.12995 20.6594 9.36995 21.4194C5.52995 20.0894 2.62995 16.5594 2.32995 12.4294C2.02995 8.03938 4.55995 3.93938 8.64995 2.21938C9.70995 1.77938 10.25 2.09938 10.48 2.32938C10.7 2.54938 11.01 3.07938 10.57 4.08938C10.12 5.12938 9.89995 6.22938 9.89995 7.36938C9.90995 9.40938 10.71 11.2994 12.01 12.7494C10.18 14.2094 8.99995 16.4694 8.99995 18.9994Z" fill="#F2F2F5"/>
<path opacity="0.4" d="M21.21 17.72C19.23 20.41 16.09 21.99 12.74 21.99C12.58 21.99 12.42 21.98 12.26 21.97C11.26 21.93 10.29 21.74 9.37 21.42C9.13 20.66 9 19.84 9 19C9 16.47 10.18 14.21 12.01 12.75C13.48 14.4 15.59 15.47 17.92 15.57C18.55 15.6 19.18 15.55 19.8 15.44C20.92 15.24 21.37 15.66 21.53 15.93C21.7 16.2 21.88 16.79 21.21 17.72Z" fill="#F2F2F5"/>
</svg>
