<svg width="150" height="36" viewBox="0 0 150 36" fill="none" xmlns="http://www.w3.org/2000/svg">
<path d="M121.125 21.8935L122.149 21.3944L123.112 11.9669C123.319 11.0291 124.465 10.8335 125.116 11.4697L125.212 12.6689L124.141 23.7197C125.686 23.7142 127.174 22.7453 128.306 21.7088L129.296 11.945C129.562 10.9066 130.772 10.7823 131.318 11.6616L130.346 23.7234C130.777 24.1621 134.011 22.3925 134.423 21.7637C134.822 19.7308 135.058 16.2885 137.342 15.4878C141.643 13.9796 141.275 21.2171 137.921 22.6649C136.973 23.0744 136.205 22.5315 136.59 24.142C137.115 26.3357 139.744 24.7928 140.631 23.5808C142.09 21.5863 141.123 18.091 143.175 16.1094C144.458 14.8699 146.877 14.9869 147.294 16.9466C147.864 19.6266 146.184 22.9574 143.298 22.9976C143.539 27.0121 146.801 24.9007 148.048 22.685C148.376 22.1037 148.431 20.941 149.216 20.9776C151.147 21.0726 148.981 24.6246 148.348 25.3687C146.952 27.0121 144.007 28.1071 142.311 26.2864C141.985 25.9354 141.855 25.3796 141.694 25.1859C141.623 25.0999 140.442 26.3833 139.989 26.6246C137.688 27.8585 134.887 27.2297 134.6 24.27L132.65 25.1859C133.75 26.6556 133.874 28.5697 133.692 30.3703C133.47 32.5659 131.721 35.0338 129.466 33.4909C127.394 32.0759 128.063 26.9536 128.219 24.7252C128.267 24.0342 126.922 25.1749 126.608 25.2864C128.29 27.4911 128.049 34.3428 124.421 33.9461C120.793 33.5494 122.115 26.2535 122.007 23.7215C121.506 23.9793 120.777 23.7928 120.351 23.9318C120.231 23.972 119.166 25.3815 118.698 25.7014C116.678 27.0743 113.745 26.6392 112.695 24.2663C111.07 25.5332 109.22 26.6904 107.063 26.237C103.135 25.4107 104.588 13.8444 109.25 15.3928C109.362 15.4293 110.612 16.4055 110.671 16.486C110.994 16.9375 110.721 19.963 110.009 20.2171C108.085 20.9045 108.551 18.517 108.53 17.3232C107.542 17.4987 107.056 19.4731 106.955 20.3579C106.642 23.0799 107.13 25.4893 110.251 23.9373C113.371 22.3852 111.627 17.4768 115.677 16.0033C116.506 15.7017 118.842 15.5262 119.628 15.8461C120.263 16.1039 121.123 17.7181 121.123 18.3268L121.125 21.8935ZM138.49 17.5225C136.878 17.4055 136.853 19.7893 136.555 20.9776C138.208 21.0087 139.134 18.9996 138.49 17.5225ZM143.471 20.9794C144.951 21.3469 146.363 17.9338 145.127 17.5261C143.97 17.1459 143.487 20.1531 143.471 20.9794ZM116.514 17.8716C114.112 18.5389 113.128 24.61 116.248 24.61C116.834 24.61 118.256 23.7709 118.091 23.1183C118.033 22.8879 116.514 21.2847 116.514 20.7052V17.8716ZM118.739 20.8807C118.867 21.0288 118.952 21.2006 119.085 21.3414C119.527 21.3724 119.48 18.0069 118.904 17.8716C117.618 18.2811 118.084 20.122 118.739 20.8807ZM123.963 26.0981C124.008 27.1108 123.144 31.5897 124.584 31.5897C126.268 31.5897 126.22 25.8202 123.963 26.0981ZM130.17 26.0981C129.963 26.2809 129.926 30.0212 129.988 30.5806C130.034 30.9827 130.124 31.522 130.605 31.5824C132.496 31.6262 132.464 25.9738 130.17 26.0981Z" fill="currentColor"/>
<path d="M3.92205 25.0879C3.57258 21.6657 3.16457 18.2252 3.02798 14.7902C4.05687 13.9292 4.74162 14.4611 4.96869 15.6896C5.91598 20.801 5.63037 26.7149 6.63088 31.8902C6.88279 32.8536 7.76267 33.6982 8.70819 33.8627C8.91752 33.8993 9.18893 33.8481 9.41777 33.8627C9.60226 34.1662 10.0901 34.0455 10.3899 34.0492C13.1094 34.0784 17.1026 34.7475 17.5744 31.212C17.7359 30.0018 17.5975 28.8866 17.5602 27.7404C17.5425 27.203 18.0179 26.6143 17.3988 26.1866C17.4094 26.1335 17.3988 26.0604 17.3988 26.0037C17.6667 25.927 18.0818 26.2542 18.1102 25.735C18.3018 22.1227 18.9422 18.5378 19.171 14.9419C19.1976 14.527 19.2739 14.0005 19.0078 13.6531C18.6122 13.3679 12.7351 13.9548 11.6299 13.9456C9.91271 13.9328 7.70058 13.7409 5.96388 13.5709C4.63518 13.4411 3.3189 13.0261 1.97247 13.0243C1.17951 12.6623 0.352847 12.3662 0.104492 11.3845C-0.221916 10.0902 0.2198 7.42847 1.38174 6.65701C2.33791 6.02084 2.62706 6.3243 3.56903 6.44313C5.56119 6.69357 7.59059 7.06468 9.59871 7.17436C9.77434 7.1835 9.95351 7.16705 10.1309 7.17436C11.1225 7.21458 12.1514 7.1963 13.1466 7.17436C13.3826 7.16888 13.6203 7.1835 13.8562 7.17436C14.5232 7.14877 19.1657 6.83251 19.3466 6.61862C19.1639 5.61134 19.1284 3.92401 18.4667 3.15256C17.6826 2.23851 15.0199 2.32626 13.8562 2.23851C12.1763 2.11237 11.2787 2.13065 9.60049 2.23851C8.34985 2.31894 7.1134 2.16904 5.87695 2.60596C5.97452 2.96609 6.45349 3.01179 6.75329 3.07029C9.01863 3.52183 12.0432 3.39021 14.3884 3.33537C14.713 3.32805 15.0199 3.16352 15.2754 3.15256C16.5278 3.09954 17.915 2.92404 17.2427 4.72472C16.9482 5.10862 14.5605 5.31885 13.952 5.35358C11.3993 5.49983 7.44158 5.44499 4.9882 4.79784C1.72589 3.93681 1.69573 1.63889 4.9882 0.6828C8.1281 -0.227592 16.7052 -0.393948 19.5417 1.22392C21.5162 2.35002 20.5139 5.59672 21.6687 6.34258C21.965 6.53453 22.3872 6.53636 22.71 6.73197C23.7886 7.38094 24.2339 10.4357 23.8684 11.5545C23.4125 12.9511 21.6332 12.8341 21.3494 13.5288L19.2632 32.7677C18.1102 36.4294 12.6978 36.1003 9.69096 35.8755C7.67397 35.7237 5.27381 35.1223 4.67776 32.8171C4.15266 30.786 4.15444 27.3236 3.9256 25.0915L3.92205 25.0879ZM21.6261 8.48511C21.2039 8.21821 15.8555 9.12677 14.8266 9.18344C10.8653 9.40281 6.86859 9.07558 2.98717 8.32058L2.3113 8.57468C2.11084 9.17796 1.75782 10.0408 2.05762 10.6514C2.30597 11.1578 5.59312 11.4905 6.31689 11.56C10.3172 11.9475 16.9553 12.0499 20.8438 11.1815C22.3801 10.8379 22.2116 9.74284 21.6261 8.48511Z" fill="currentColor"/>
<path d="M45.4459 14.1999C45.6783 14.454 45.6871 14.9787 45.6588 15.3169C45.5222 16.9475 44.1953 20.1613 44.6423 21.7024C44.7753 22.1649 45.2011 22.3349 45.5914 22.026C46.6699 21.1759 46.7586 17.6605 47.1773 16.1651C47.3511 15.5436 47.5746 14.295 48.2452 14.1579C50.9132 13.6113 48.9938 17.3004 48.8643 18.8177C48.7898 19.7006 48.5787 22.0205 49.8151 21.8231C51.5997 21.5397 52.9143 18.8067 53.6025 17.304C53.9786 16.485 54.1986 14.5984 55.1725 14.5271C57.193 14.3772 55.9353 16.9676 55.7987 18.1065C55.7384 18.6001 55.4758 21.6969 55.6018 21.8322C56.9181 21.6476 57.6614 20.1595 58.5625 19.2966C61.4736 19.5471 58.2645 22.9473 57.1859 23.7407C56.8507 23.9875 55.8945 24.3038 55.765 24.514C55.435 25.046 55.6586 26.6346 55.5805 27.386C55.3588 29.5084 54.1915 33.287 51.5128 32.7203C47.6687 31.9068 50.0085 26.9088 51.5323 24.9034C51.8907 24.4317 53.5032 23.0607 53.5635 22.9309C53.7232 22.5909 53.6416 22.1905 53.6504 21.8322L51.3266 23.547C49.9198 24.2782 48.2257 24.2892 47.179 22.9309C45.8468 24.7188 44.3318 25.0222 42.9233 23.1137C42.1321 23.8705 41.8714 24.6164 40.7183 24.8577C37.385 25.5505 37.5092 21.9455 37.6955 19.5489C37.7558 18.7756 38.4423 14.9202 38.7474 14.4174C39.2743 13.5473 40.603 13.9019 40.7059 14.9915C40.4522 16.9037 39.7107 19.0901 39.6362 21.0022C39.567 22.7718 40.1985 23.4263 41.3179 21.8194C42.7034 19.8286 42.769 16.6038 43.6471 14.3498C44.0693 13.7447 44.9634 13.6698 45.4494 14.1999H45.4459ZM53.8278 25.854C53.3702 25.3915 52.2348 27.5359 52.1071 27.8265C51.7009 28.7424 51.394 29.5705 51.5235 30.6071C53.5298 30.7588 53.5298 27.3329 53.8278 25.854Z" fill="currentColor"/>
<path d="M80.4281 23.6951C80.6268 23.8139 81.5847 23.7628 81.8632 23.6951C82.7608 23.4831 84.0008 22.059 84.439 21.2327C84.7672 20.6129 84.7512 19.4814 85.6063 19.5271C87.4405 19.6258 85.553 22.8268 84.9943 23.5909C83.4722 25.6749 79.8037 26.9327 78.2674 24.1832L78.0084 24.1046C76.0624 26.196 73.3961 26.1996 72.9881 22.8633C72.7114 20.6002 73.8893 18.6496 73.2826 16.4376C71.7463 16.1378 70.9214 19.0682 70.5879 20.2985C70.4034 20.9804 70.0717 23.611 69.8446 23.9181C69.5786 24.2801 68.1275 24.2234 68.0139 23.6037C67.8951 21.7482 68.3882 19.8451 68.1399 17.9896C67.9554 16.6167 67.2352 15.6533 66.1318 16.9842C65.188 18.1231 64.576 20.4064 64.3064 21.867C63.9924 23.5708 64.6274 25.9546 62.0676 25.026C61.8796 24.9035 61.8033 24.6019 61.8015 24.3825C61.798 22.3953 62.4508 20.3223 62.3107 18.1487C62.2149 16.6697 60.9962 14.0282 63.5471 14.6826L64.1644 16.0537C65.6634 13.3993 68.9328 13.6443 69.8393 16.6021C70.7813 14.9075 72.3069 13.2476 74.2441 14.6223C77.0984 16.6478 74.4286 22.5526 75.4131 23.2893L75.8619 23.3734C78.0421 22.1065 77.6643 19.6258 78.1734 17.5143C78.5974 15.7502 79.5677 13.8764 81.5457 13.8453C85.1628 13.7887 83.9157 20.2089 81.1998 21.1815C80.6906 21.3643 80.2046 21.2692 79.7575 21.5252C79.4701 21.9018 80.2241 23.569 80.4299 23.6915L80.4281 23.6951ZM79.8604 19.5289C81.3647 19.5435 82.5462 17.3754 81.6344 16.1378C80.4884 15.4248 79.8303 18.8178 79.8604 19.5289Z" fill="currentColor"/>
<path d="M29.9892 11.3088L30.0141 12.0145C34.7718 10.3016 37.8798 13.2686 35.343 18.1112C39.5473 21.3579 36.2513 25.983 31.882 26.2791C30.8123 26.3522 29.4499 25.8495 28.8663 25.9098C28.4778 25.9501 28.2312 26.4546 27.825 26.418C27.3673 26.2791 26.9841 25.9117 26.8706 25.429L28.2224 11.3564C28.5701 10.903 29.5191 11.084 29.9892 11.3107V11.3088ZM29.4801 17.8644C31.3392 17.8918 34.825 17.3818 34.2308 14.7036C33.8689 13.0711 30.8017 13.2393 30.0141 14.1186C29.512 14.6799 29.6504 17.0216 29.4801 17.8644ZM34.7399 20.1203C33.5159 18.8845 30.7946 19.7894 29.3275 20.08C29.2921 20.8332 28.7208 23.5973 29.0313 24.0854C29.4482 24.738 32.141 24.4108 32.8453 24.164C34.3088 23.654 36.1661 21.5608 34.7399 20.1203Z" fill="currentColor"/>
<path d="M96.8266 14.7499C97.4387 15.3806 96.11 18.8814 96.0018 19.9362C95.9308 20.6236 95.7605 22.629 96.6102 22.7606C97.3943 22.7972 98.1571 21.896 98.5013 21.2324C98.9873 20.2964 99.0157 18.1886 100.291 18.578C101.631 18.9875 99.7093 22.4956 99.1718 23.203C97.4688 25.4425 95.0828 25.5211 93.944 22.7533C93.0517 23.788 92.1771 24.3876 90.7686 24.1957C86.6193 23.629 89.1028 12.2637 94.0681 14.0315C94.4123 14.154 94.7476 14.5507 95.0757 14.6092C95.5157 14.6878 96.3796 14.2893 96.8284 14.7518L96.8266 14.7499ZM90.8395 19.1849C90.7207 19.9746 90.9247 21.0112 90.8395 21.8356C93.002 23.2396 94.611 17.1027 94.1781 16.3806C92.5212 15.0699 91.0506 17.7901 90.8395 19.1849Z" fill="currentColor"/>
<path d="M17.3997 26.002C17.3997 26.0586 17.4103 26.1318 17.3997 26.1848C17.2879 26.6967 17.1301 26.8356 17.0449 27.6473C16.5393 27.7569 16.6635 27.3456 16.683 27.0074C16.7256 26.2597 17.0449 25.5395 16.6848 24.8265L17.0556 24.609C16.6334 23.662 17.1921 23.6273 17.2205 23.5048C17.3589 22.9289 17.1584 21.854 17.2241 21.1612C17.3287 20.0698 17.6232 18.9894 17.5913 17.8797C17.6179 17.8011 17.6977 17.8066 17.7545 17.7774C17.7776 20.6036 17.3216 23.1209 17.3997 26.0038V26.002Z" fill="#FBCF4D"/>
<path d="M16.6906 15.7645C17.0383 15.8156 17.3506 16.1209 17.7266 16.1575C17.8047 16.567 17.7444 16.9948 17.755 17.4097C17.7586 17.5322 17.755 17.6529 17.755 17.7754C17.6983 17.8046 17.6184 17.7991 17.5918 17.8777C17.6238 18.9874 17.3293 20.0678 17.2246 21.1592C17.159 21.852 17.3594 22.9269 17.2211 23.5028C17.1909 23.6253 16.6321 23.66 17.0561 24.607L16.6853 24.8245C17.0437 25.5375 16.7261 26.2577 16.6836 27.0054C16.664 27.3436 16.5416 27.7568 17.0454 27.6452C16.9284 28.7512 16.8343 30.0583 16.6906 31.1186L15.628 30.9376C15.628 31.2813 16.2596 31.1479 16.1585 31.5738L15.6263 32.3983C15.5713 32.4111 15.5074 32.3873 15.4489 32.3983C14.8936 32.4988 14.2266 32.6853 13.6749 32.7639C12.733 32.8992 12.5378 32.7219 11.8123 32.7475C10.9696 32.7767 10.1252 33.0857 9.2418 32.9467C8.59431 32.7822 8.64575 32.7548 8.17743 32.3983C8.02487 32.1314 8.1721 31.806 8.06034 31.5336C7.93794 31.2393 7.70201 31.4641 7.64524 30.9358C8.15614 31.0437 8.01954 30.6397 8.00713 30.296C7.98761 29.7183 7.80135 29.2064 7.80667 28.6525C7.81377 28.0566 8.23242 27.0767 8.18452 26.6617C8.16856 26.5228 7.8049 26.6252 7.80312 26.2833C7.80312 25.7934 8.17388 25.5393 8.17565 25.0877H7.46784C7.31528 25.8939 7.6204 26.7202 7.64347 27.4624C7.39511 27.5612 7.50155 27.8281 7.46607 28.0109C7.21949 27.3144 7.239 26.4844 7.11482 25.7129C7.05983 25.3693 7.31528 24.9817 6.75649 25.0859C6.71214 24.3931 6.80084 23.6819 6.75649 22.9854C6.6873 21.9233 6.03094 18.6346 6.25446 17.8924C6.40347 17.3951 6.97468 17.7735 7.37205 17.7827C8.09405 17.7991 8.87991 17.8119 9.59659 17.7735C9.9709 17.7534 10.3079 17.7863 10.7018 17.726C11.8371 17.5523 12.6833 16.6968 13.8523 17.2233L13.4993 16.3092C13.6128 16.2928 13.7388 16.322 13.8541 16.3092C14.4253 16.2434 15.7948 16.1447 16.327 16.216C16.8964 16.2928 16.68 16.3147 16.6906 15.7608V15.7645Z" fill="#FEDC02"/>
<path d="M7.64586 30.9379C7.70263 31.4662 7.93679 31.2414 8.06097 31.5357C8.1745 31.8081 8.02726 32.1335 8.17805 32.4004C8.14257 32.3729 7.95985 32.468 7.81439 32.2797C7.09948 31.3474 7.47911 30.4425 7.28752 29.6015C7.25736 29.4736 7.04094 29.6143 6.93628 28.7442C7.37799 28.8575 7.39573 28.3877 7.46847 28.0129C7.50395 27.8301 7.39751 27.5632 7.64586 27.4645C7.68312 28.576 7.53233 29.8721 7.64586 30.9379Z" fill="#FCD012"/>
<path d="M6.7583 25.0878C7.3171 24.9836 7.06165 25.373 7.11664 25.7149C7.24082 26.4845 7.2213 27.3163 7.46788 28.0128C7.39515 28.3875 7.37741 28.8573 6.9357 28.744C6.80265 27.6307 6.83458 26.2615 6.7583 25.0878Z" fill="#FBCF4D"/>
<path d="M16.6908 15.7646C16.6784 16.3185 16.8966 16.2966 16.3271 16.2198C15.795 16.1485 14.4237 16.2472 13.8542 16.313C14.3864 15.6567 15.9528 15.6567 16.6926 15.7646H16.6908Z" fill="#FADD39"/>
<path d="M16.6913 31.1206C16.6594 31.3601 16.3419 31.6435 16.3365 32.0347C16.1183 32.0402 16.1893 32.3765 16.1591 32.4003C16.0988 32.446 15.7706 32.3637 15.627 32.4003L16.1591 31.5758C16.2603 31.1499 15.627 31.2833 15.6287 30.9396L16.6913 31.1206Z" fill="#FBCF4D"/>
<path d="M7.64533 27.4644C7.62049 26.7221 7.31714 25.8958 7.4697 25.0878H8.17751C8.17751 25.543 7.80498 25.7953 7.80498 26.2852C7.80498 26.6289 8.16865 26.5247 8.18639 26.6636C8.23606 27.0768 7.8174 28.0585 7.80853 28.6544C7.80144 29.2084 7.9877 29.7184 8.00899 30.2979C8.02141 30.6416 8.158 31.0456 7.6471 30.9377C7.53357 29.872 7.68435 28.5758 7.6471 27.4644H7.64533Z" fill="#FADD39"/>
<path d="M15.4495 32.4002C15.5417 33.0455 14.3124 32.9194 13.8529 32.9486L13.6755 32.7658C14.2272 32.6872 14.8942 32.5007 15.4495 32.4002Z" fill="#FBCF4D"/>
</svg>
