<svg width="35" height="46" viewBox="0 0 35 46" fill="none" xmlns="http://www.w3.org/2000/svg">
<path d="M29.1978 10.3488C29.8891 15.8676 24.8149 18.3962 24.8149 18.3962C25.0464 -0.23063 10.5118 0.000134905 10.5118 0.000134905C13.512 2.29802 16.972 10.5763 8.20622 15.8643C8.07903 15.9423 7.95185 16.0203 7.82467 16.0983C-5.62728 24.5456 0.712257 45.4574 16.6002 45.9904C16.7992 45.9969 16.9948 46.0001 17.1937 46.0001C26.7487 46.0001 34.3503 38.2777 34.497 28.7546C34.6275 20.2618 29.1945 10.3455 29.1945 10.3455L29.1978 10.3488ZM20.1874 41.4499C14.2359 43.4097 7.81489 40.1888 5.84846 34.2539C3.88203 28.3223 7.11375 21.9227 13.0685 19.9628C13.0685 19.9628 7.1431 26.616 11.239 32.4793C11.239 32.4793 10.7075 28.6863 14.1316 26.9085C14.1316 26.9085 10.414 38.1704 20.9049 41.2126L20.1874 41.4499Z" fill="url(#paint0_linear_1305_7931)"/>
<defs>
<linearGradient id="paint0_linear_1305_7931" x1="-10.4814" y1="14.8585" x2="21.8243" y2="51.8192" gradientUnits="userSpaceOnUse">
<stop stop-color="#00CFDE"/>
<stop offset="1" stop-color="#05A660"/>
</linearGradient>
</defs>
</svg>
