<svg  viewBox="0 0 41 40" fill="none" xmlns="http://www.w3.org/2000/svg">
<path d="M32.4891 8.10106C30.132 5.72898 27.1238 4.11014 23.8457 3.44975C20.5675 2.78936 17.1671 3.11716 14.0755 4.3916C10.9839 5.66603 8.34027 7.82972 6.47978 10.6084C4.6193 13.387 3.62572 16.6555 3.625 19.9995V28.7495C3.625 29.9098 4.08594 31.0226 4.90641 31.8431C5.72688 32.6636 6.83968 33.1245 8 33.1245H10.5C11.6603 33.1245 12.7731 32.6636 13.5936 31.8431C14.4141 31.0226 14.875 29.9098 14.875 28.7495V22.4995C14.875 21.3392 14.4141 20.2264 13.5936 19.4059C12.7731 18.5854 11.6603 18.1245 10.5 18.1245H7.50625C7.95875 15.0009 9.52107 12.1447 11.9072 10.0787C14.2934 8.01279 17.3438 6.87531 20.5 6.87449H20.6C23.7422 6.88795 26.7745 8.03226 29.1421 10.0981C31.5098 12.1639 33.0545 15.0131 33.4938 18.1245H30.5C29.3397 18.1245 28.2269 18.5854 27.4064 19.4059C26.5859 20.2264 26.125 21.3392 26.125 22.4995V28.7495C26.125 29.9098 26.5859 31.0226 27.4064 31.8431C28.2269 32.6636 29.3397 33.1245 30.5 33.1245H33C33.5745 33.1245 34.1434 33.0113 34.6742 32.7915C35.205 32.5716 35.6873 32.2493 36.0936 31.8431C36.4999 31.4368 36.8221 30.9545 37.042 30.4237C37.2618 29.8929 37.375 29.324 37.375 28.7495V19.9995C37.3836 17.7923 36.9564 15.6051 36.118 13.5633C35.2796 11.5215 34.0463 9.66527 32.4891 8.10106ZM10.5 21.8745C10.6658 21.8745 10.8247 21.9403 10.9419 22.0576C11.0592 22.1748 11.125 22.3337 11.125 22.4995V28.7495C11.125 28.9153 11.0592 29.0742 10.9419 29.1914C10.8247 29.3086 10.6658 29.3745 10.5 29.3745H8C7.83424 29.3745 7.67527 29.3086 7.55806 29.1914C7.44085 29.0742 7.375 28.9153 7.375 28.7495V21.8745H10.5ZM33.625 28.7495C33.625 28.9153 33.5592 29.0742 33.4419 29.1914C33.3247 29.3086 33.1658 29.3745 33 29.3745H30.5C30.3342 29.3745 30.1753 29.3086 30.0581 29.1914C29.9408 29.0742 29.875 28.9153 29.875 28.7495V22.4995C29.875 22.3337 29.9408 22.1748 30.0581 22.0576C30.1753 21.9403 30.3342 21.8745 30.5 21.8745H33.625V28.7495Z" fill="currentColor"/>
</svg>
