<svg viewBox="0 0 28 28" fill="none" xmlns="http://www.w3.org/2000/svg">
<path d="M12.6875 3.9375V2.1875C12.6875 1.8394 12.8258 1.50556 13.0719 1.25942C13.3181 1.01328 13.6519 0.875 14 0.875C14.3481 0.875 14.6819 1.01328 14.9281 1.25942C15.1742 1.50556 15.3125 1.8394 15.3125 2.1875V3.9375C15.3125 4.2856 15.1742 4.61944 14.9281 4.86558C14.6819 5.11172 14.3481 5.25 14 5.25C13.6519 5.25 13.3181 5.11172 13.0719 4.86558C12.8258 4.61944 12.6875 4.2856 12.6875 3.9375ZM21.4375 14C21.4375 15.471 21.0013 16.909 20.1841 18.1321C19.3668 19.3551 18.2052 20.3084 16.8462 20.8714C15.4872 21.4343 13.9917 21.5816 12.549 21.2946C11.1063 21.0076 9.78105 20.2993 8.74089 19.2591C7.70074 18.219 6.99239 16.8937 6.70541 15.451C6.41843 14.0083 6.56572 12.5128 7.12865 11.1538C7.69157 9.79477 8.64486 8.63319 9.86795 7.81594C11.091 6.9987 12.529 6.5625 14 6.5625C15.9719 6.56453 17.8625 7.34877 19.2569 8.74313C20.6512 10.1375 21.4355 12.0281 21.4375 14ZM18.8125 14C18.8125 13.0482 18.5303 12.1177 18.0014 11.3263C17.4726 10.5349 16.721 9.91808 15.8417 9.55383C14.9623 9.18958 13.9947 9.09428 13.0611 9.27997C12.1276 9.46566 11.2701 9.92401 10.597 10.597C9.92401 11.2701 9.46566 12.1276 9.27997 13.0611C9.09428 13.9947 9.18958 14.9623 9.55383 15.8417C9.91808 16.721 10.5349 17.4726 11.3263 18.0014C12.1177 18.5303 13.0482 18.8125 14 18.8125C15.2759 18.8111 16.4991 18.3036 17.4014 17.4014C18.3036 16.4991 18.8111 15.2759 18.8125 14ZM5.63391 7.49109C5.75599 7.61318 5.90093 7.71003 6.06045 7.7761C6.21997 7.84218 6.39093 7.87618 6.56359 7.87618C6.73625 7.87618 6.90722 7.84218 7.06674 7.7761C7.22625 7.71003 7.37119 7.61318 7.49328 7.49109C7.61537 7.36901 7.71221 7.22407 7.77829 7.06455C7.84436 6.90503 7.87837 6.73407 7.87837 6.56141C7.87837 6.38875 7.84436 6.21778 7.77829 6.05826C7.71221 5.89875 7.61537 5.75381 7.49328 5.63172L6.18078 4.31922C5.93421 4.07265 5.59979 3.93413 5.25109 3.93413C4.90239 3.93413 4.56797 4.07265 4.32141 4.31922C4.07484 4.56579 3.93632 4.90021 3.93632 5.24891C3.93632 5.59761 4.07484 5.93203 4.32141 6.17859L5.63391 7.49109ZM5.63391 20.5067L4.32141 21.8192C4.19932 21.9413 4.10247 22.0862 4.0364 22.2458C3.97032 22.4053 3.93632 22.5762 3.93632 22.7489C3.93632 22.9216 3.97032 23.0925 4.0364 23.252C4.10247 23.4116 4.19932 23.5565 4.32141 23.6786C4.56797 23.9252 4.90239 24.0637 5.25109 24.0637C5.42375 24.0637 5.59472 24.0297 5.75424 23.9636C5.91375 23.8975 6.05869 23.8007 6.18078 23.6786L7.49328 22.3661C7.73985 22.1195 7.87837 21.7851 7.87837 21.4364C7.87837 21.0877 7.73985 20.7533 7.49328 20.5067C7.24671 20.2602 6.91229 20.1216 6.56359 20.1216C6.21489 20.1216 5.88047 20.2602 5.63391 20.5067ZM21.4375 7.875C21.6099 7.87514 21.7807 7.8413 21.94 7.77543C22.0993 7.70956 22.2441 7.61294 22.3661 7.49109L23.6786 6.17859C23.8007 6.05651 23.8975 5.91157 23.9636 5.75205C24.0297 5.59253 24.0637 5.42157 24.0637 5.24891C24.0637 5.07625 24.0297 4.90528 23.9636 4.74576C23.8975 4.58625 23.8007 4.44131 23.6786 4.31922C23.5565 4.19713 23.4116 4.10028 23.252 4.03421C23.0925 3.96814 22.9216 3.93413 22.7489 3.93413C22.5762 3.93413 22.4053 3.96814 22.2458 4.03421C22.0862 4.10028 21.9413 4.19713 21.8192 4.31922L20.5067 5.63172C20.3221 5.81529 20.1962 6.04964 20.1451 6.30496C20.094 6.56027 20.12 6.82502 20.2198 7.06551C20.3196 7.30601 20.4886 7.51139 20.7055 7.65554C20.9223 7.79968 21.1771 7.87608 21.4375 7.875ZM22.3661 20.5089C22.1195 20.2623 21.7851 20.1238 21.4364 20.1238C21.0877 20.1238 20.7533 20.2623 20.5067 20.5089C20.2602 20.7555 20.1216 21.0899 20.1216 21.4386C20.1216 21.7873 20.2602 22.1217 20.5067 22.3683L21.8192 23.6808C22.0658 23.9273 22.4002 24.0659 22.7489 24.0659C23.0976 24.0659 23.432 23.9273 23.6786 23.6808C23.9252 23.4342 24.0637 23.0998 24.0637 22.7511C24.0637 22.4024 23.9252 22.068 23.6786 21.8214L22.3661 20.5089ZM5.25 14C5.25 13.6519 5.11172 13.3181 4.86558 13.0719C4.61944 12.8258 4.2856 12.6875 3.9375 12.6875H2.1875C1.8394 12.6875 1.50556 12.8258 1.25942 13.0719C1.01328 13.3181 0.875 13.6519 0.875 14C0.875 14.3481 1.01328 14.6819 1.25942 14.9281C1.50556 15.1742 1.8394 15.3125 2.1875 15.3125H3.9375C4.2856 15.3125 4.61944 15.1742 4.86558 14.9281C5.11172 14.6819 5.25 14.3481 5.25 14ZM14 22.75C13.6519 22.75 13.3181 22.8883 13.0719 23.1344C12.8258 23.3806 12.6875 23.7144 12.6875 24.0625V25.8125C12.6875 26.1606 12.8258 26.4944 13.0719 26.7406C13.3181 26.9867 13.6519 27.125 14 27.125C14.3481 27.125 14.6819 26.9867 14.9281 26.7406C15.1742 26.4944 15.3125 26.1606 15.3125 25.8125V24.0625C15.3125 23.7144 15.1742 23.3806 14.9281 23.1344C14.6819 22.8883 14.3481 22.75 14 22.75ZM25.8125 12.6875H24.0625C23.7144 12.6875 23.3806 12.8258 23.1344 13.0719C22.8883 13.3181 22.75 13.6519 22.75 14C22.75 14.3481 22.8883 14.6819 23.1344 14.9281C23.3806 15.1742 23.7144 15.3125 24.0625 15.3125H25.8125C26.1606 15.3125 26.4944 15.1742 26.7406 14.9281C26.9867 14.6819 27.125 14.3481 27.125 14C27.125 13.6519 26.9867 13.3181 26.7406 13.0719C26.4944 12.8258 26.1606 12.6875 25.8125 12.6875Z" fill="#F2F2F5"/>
</svg>
