<svg width="20" height="20" viewBox="0 0 20 20" fill="none" xmlns="http://www.w3.org/2000/svg">
<g clip-path="url(#clip0_4001_363)">
<path d="M15.6123 18.7561H1.2373V3.13107H10.0186L11.2823 1.91357L11.2498 1.88107H1.2373C0.546992 1.88107 -0.0126953 2.44076 -0.0126953 3.13107V18.7561C-0.0126953 19.4464 0.546992 20.0061 1.2373 20.0061H15.6123C16.3026 20.0061 16.8623 19.4464 16.8623 18.7561V9.60264L15.6123 10.7958V18.7561ZM19.0279 0.809824C18.4639 0.269199 17.8414 -0.00488281 17.1773 -0.00488281C16.1379 -0.00488281 15.3798 0.666367 15.1736 0.872012C14.8811 1.16076 6.59607 9.43359 6.59607 9.43359C6.53107 9.49982 6.48357 9.58076 6.4592 9.67076C6.23482 10.4998 5.11014 14.1823 5.09889 14.2189C5.04076 14.4076 5.09264 14.6133 5.2317 14.7505C5.28013 14.7991 5.3377 14.8377 5.4011 14.8639C5.4645 14.8902 5.53247 14.9037 5.60109 14.9036C5.65484 14.9036 5.70891 14.8958 5.76201 14.8792C5.80014 14.8664 9.59982 13.6376 10.2251 13.4511C10.3076 13.4267 10.3823 13.382 10.4442 13.3217C10.8389 12.9323 18.4542 5.43516 19.0704 4.79859C19.7076 4.14109 20.0245 3.45764 20.0123 2.76545C20.0008 2.0817 19.6682 1.42357 19.0279 0.809824ZM18.1726 3.92855C17.8248 4.2873 15.1014 6.97856 10.0779 11.9273L9.69355 12.3064C9.11762 12.4845 7.73853 12.9276 6.69604 13.2639C7.03166 12.1554 7.43447 10.8164 7.61416 10.1829C8.68762 9.11107 15.7857 2.02389 16.0554 1.75764C16.1079 1.70512 16.587 1.2448 17.1773 1.2448C17.5123 1.2448 17.8351 1.39762 18.1629 1.71199C18.5548 2.08793 18.7567 2.44918 18.7623 2.78668C18.7686 3.13418 18.5701 3.51824 18.1726 3.92855Z" fill="currentColor"/>
</g>
<defs>
<clipPath id="clip0_4001_363">
<rect width="20" height="20" fill="white"/>
</clipPath>
</defs>
</svg>
