<svg width="30" height="30" viewBox="0 0 30 30" fill="none" xmlns="http://www.w3.org/2000/svg">
<path d="M15 2.8125C12.5895 2.8125 10.2332 3.52728 8.22899 4.86646C6.22477 6.20564 4.66267 8.10907 3.74022 10.336C2.81778 12.563 2.57643 15.0135 3.04668 17.3777C3.51694 19.7418 4.67769 21.9134 6.38214 23.6179C8.08659 25.3223 10.2582 26.4831 12.6223 26.9533C14.9865 27.4236 17.437 27.1822 19.664 26.2598C21.8909 25.3373 23.7944 23.7752 25.1335 21.771C26.4727 19.7668 27.1875 17.4105 27.1875 15C27.1841 11.7687 25.899 8.67077 23.6141 6.38591C21.3292 4.10104 18.2313 2.81591 15 2.8125ZM19.752 15.7711L13.6582 19.9898C13.5175 20.0871 13.3529 20.1441 13.1822 20.1545C13.0115 20.1649 12.8412 20.1285 12.6897 20.049C12.5382 19.9696 12.4113 19.8503 12.3228 19.7039C12.2343 19.5576 12.1875 19.3898 12.1875 19.2188V10.7813C12.1875 10.6102 12.2343 10.4424 12.3228 10.2961C12.4113 10.1497 12.5382 10.0304 12.6897 9.95096C12.8412 9.87154 13.0115 9.83507 13.1822 9.84551C13.3529 9.85594 13.5175 9.91288 13.6582 10.0102L19.752 14.2289C19.8767 14.3152 19.9786 14.4304 20.049 14.5647C20.1195 14.699 20.1562 14.8484 20.1562 15C20.1562 15.1516 20.1195 15.301 20.049 15.4353C19.9786 15.5696 19.8767 15.6848 19.752 15.7711Z" fill="#06C270"/>
</svg>
