<svg width="41" height="40" viewBox="0 0 41 40" fill="none" xmlns="http://www.w3.org/2000/svg">
<path d="M20.5 3.75C17.2861 3.75 14.1443 4.70305 11.472 6.48862C8.79969 8.27419 6.71689 10.8121 5.48697 13.7814C4.25704 16.7507 3.93524 20.018 4.56225 23.1702C5.18926 26.3224 6.73692 29.2179 9.00952 31.4905C11.2821 33.7631 14.1776 35.3108 17.3298 35.9378C20.482 36.5648 23.7493 36.243 26.7186 35.013C29.6879 33.7831 32.2258 31.7003 34.0114 29.028C35.797 26.3557 36.75 23.2139 36.75 20C36.7455 15.6916 35.0319 11.561 31.9855 8.51454C28.939 5.46806 24.8084 3.75455 20.5 3.75ZM26.8359 21.0281L18.7109 26.6531C18.5234 26.7828 18.3039 26.8587 18.0763 26.8727C17.8486 26.8866 17.6215 26.8379 17.4196 26.7321C17.2176 26.6262 17.0484 26.467 16.9304 26.2719C16.8124 26.0768 16.75 25.8531 16.75 25.625V14.375C16.75 14.147 16.8124 13.9232 16.9304 13.7281C17.0484 13.533 17.2176 13.3738 17.4196 13.2679C17.6215 13.1621 17.8486 13.1134 18.0763 13.1273C18.3039 13.1413 18.5234 13.2172 18.7109 13.3469L26.8359 18.9719C27.0022 19.0869 27.1382 19.2405 27.2321 19.4196C27.3259 19.5986 27.375 19.7978 27.375 20C27.375 20.2022 27.3259 20.4014 27.2321 20.5804C27.1382 20.7595 27.0022 20.9131 26.8359 21.0281Z" fill="#06C270"/>
</svg>
