<svg width="20" height="20" viewBox="0 0 20 20" fill="none" xmlns="http://www.w3.org/2000/svg">
<path fill-rule="evenodd" clip-rule="evenodd" d="M9.98619 2.86503V15.4959C9.98619 17.562 9.29749 17.9063 8.60878 18.2507C8.23266 18.4286 7.88461 18.6606 7.57573 18.9394C7.46209 18.9394 7.34846 18.9359 7.24171 18.9325C4.1081 18.7569 3.78786 16.1846 3.78786 16.1846C6.88702 14.4628 6.54267 11.708 6.54267 10.3306C6.59176 9.50574 6.85011 8.707 7.29336 8.00965C7.48 7.6966 7.59523 7.3462 7.63083 6.98348L7.87876 4.25966L8.42628 2.61365C8.51595 2.34651 8.73969 2.14633 9.01512 2.08679C9.07146 2.07294 9.12928 2.066 9.1873 2.06613C9.62836 2.06651 9.98581 2.42397 9.98619 2.86503Z" fill="#F9C795"/>
<path fill-rule="evenodd" clip-rule="evenodd" d="M9.64184 2.86504V15.4959C9.64184 17.562 8.95314 17.9063 8.26443 18.2507C7.89269 18.4279 7.54827 18.6575 7.24171 18.9325C4.1081 18.7569 3.78786 16.1846 3.78786 16.1846C6.88703 14.4628 6.54267 11.708 6.54267 10.3306C6.59176 9.50576 6.85011 8.70701 7.29336 8.00966C7.48 7.69661 7.59523 7.34622 7.63083 6.98349L7.87876 4.25967L8.42628 2.61367C8.51595 2.34652 8.73969 2.14634 9.01512 2.08681C9.38137 2.16604 9.64252 2.49032 9.64184 2.86504Z" fill="#FDD7AD"/>
<path fill-rule="evenodd" clip-rule="evenodd" d="M9.98622 0.898784V2.86503C9.98499 2.47298 9.70004 2.13949 9.31298 2.07711C8.92592 2.01474 8.55062 2.24183 8.4263 2.61366L7.87878 4.25966L8.1887 0.819583C8.22826 0.353592 8.61981 -0.00344968 9.08746 2.51472e-05C9.58367 0.00040495 9.98584 0.402571 9.98622 0.898784Z" fill="#F9C795"/>
<path fill-rule="evenodd" clip-rule="evenodd" d="M7.57574 18.9394V19.2872C7.57575 19.6662 7.2695 19.974 6.89048 19.9759L0.692147 20C0.508896 20.0009 0.332835 19.9288 0.202933 19.7995C0.0730299 19.6702 -2.28989e-06 19.4945 0 19.3113V17.6136C0.000570075 17.3625 0.137804 17.1316 0.358126 17.011C1.31252 16.4877 2.30472 16.0365 3.32644 15.6612C3.43195 15.623 3.54943 15.6387 3.64128 15.7031C3.73312 15.7675 3.78782 15.8727 3.78787 15.9848V16.1846C3.78787 16.1846 4.13222 18.9394 7.57574 18.9394Z" fill="#3B97D3"/>
<path fill-rule="evenodd" clip-rule="evenodd" d="M12.0936 4.25966L11.5461 2.61366C11.4218 2.24183 11.0465 2.01474 10.6594 2.07711C10.2724 2.13949 9.98743 2.47298 9.98621 2.86503V0.898784C9.98659 0.402571 10.3888 0.00040495 10.885 2.51472e-05C11.3526 -0.00344968 11.7442 0.353592 11.7837 0.819583L12.0936 4.25966Z" fill="#F9C795"/>
<path fill-rule="evenodd" clip-rule="evenodd" d="M16.1845 16.1846C16.1845 16.1846 15.8643 18.7569 12.7307 18.9325C12.6239 18.9359 12.5103 18.9394 12.3967 18.9394C12.0878 18.6606 11.7397 18.4286 11.3636 18.2507C10.6749 17.9063 9.98621 17.562 9.98621 15.4959V2.86503C9.98659 2.42397 10.344 2.06651 10.7851 2.06613C10.8431 2.066 10.9009 2.07294 10.9573 2.08679C11.2327 2.14633 11.4564 2.34651 11.5461 2.61365L12.0936 4.25966L12.3416 6.98348C12.3772 7.3462 12.4924 7.6966 12.679 8.00965C13.1223 8.707 13.3806 9.50574 13.4297 10.3306C13.4297 11.708 13.0854 14.4628 16.1845 16.1846Z" fill="#F9C795"/>
<path fill-rule="evenodd" clip-rule="evenodd" d="M16.1846 16.1846C16.1846 16.1846 15.8643 18.7569 12.7307 18.9325C12.4241 18.6575 12.0797 18.4279 11.708 18.2507C11.0193 17.9063 10.3306 17.562 10.3306 15.4959V2.86504C10.3299 2.49032 10.591 2.16604 10.9573 2.08681C11.2327 2.14634 11.4565 2.34652 11.5461 2.61367L12.0936 4.25967L12.3416 6.98349C12.3772 7.34622 12.4924 7.69661 12.679 8.00966C13.1223 8.70701 13.3807 9.50576 13.4297 10.3306C13.4297 11.708 13.0854 14.4628 16.1846 16.1846Z" fill="#FDD7AD"/>
<path fill-rule="evenodd" clip-rule="evenodd" d="M19.9724 17.6136V19.3113C19.9724 19.4945 19.8994 19.6702 19.7695 19.7995C19.6396 19.9288 19.4635 20.0009 19.2803 20L13.0819 19.9759C12.7029 19.974 12.3967 19.6662 12.3967 19.2872V18.9394C15.8402 18.9394 16.1846 16.1846 16.1846 16.1846V15.9848C16.1846 15.8727 16.2393 15.7675 16.3312 15.7031C16.423 15.6387 16.5405 15.623 16.646 15.6612C17.6677 16.0365 18.6599 16.4877 19.6143 17.011C19.8346 17.1316 19.9719 17.3625 19.9724 17.6136Z" fill="#3B97D3"/>
</svg>
