<svg viewBox="0 0 40 40" fill="none" xmlns="http://www.w3.org/2000/svg">
<path d="M34.8688 10.6906L32.3688 5.69063C32.2648 5.48295 32.1051 5.30833 31.9075 5.18635C31.7099 5.06436 31.4822 4.99983 31.25 5H8.75C8.51778 4.99983 8.2901 5.06436 8.09249 5.18635C7.89489 5.30833 7.73517 5.48295 7.63125 5.69063L5.13125 10.6906C5.04509 10.8645 5.00018 11.0559 5 11.25V32.5C5 33.163 5.26339 33.7989 5.73223 34.2678C6.20107 34.7366 6.83696 35 7.5 35H32.5C33.163 35 33.7989 34.7366 34.2678 34.2678C34.7366 33.7989 35 33.163 35 32.5V11.25C34.9998 11.0559 34.9549 10.8645 34.8688 10.6906ZM25.8844 24.6344L20.8844 29.6344C20.7683 29.7506 20.6304 29.8428 20.4787 29.9057C20.3269 29.9686 20.1643 30.001 20 30.001C19.8357 30.001 19.6731 29.9686 19.5213 29.9057C19.3696 29.8428 19.2317 29.7506 19.1156 29.6344L14.1156 24.6344C13.8811 24.3998 13.7493 24.0817 13.7493 23.75C13.7493 23.4183 13.8811 23.1002 14.1156 22.8656C14.3502 22.6311 14.6683 22.4993 15 22.4993C15.3317 22.4993 15.6498 22.6311 15.8844 22.8656L18.75 25.7328V16.25C18.75 15.9185 18.8817 15.6005 19.1161 15.3661C19.3505 15.1317 19.6685 15 20 15C20.3315 15 20.6495 15.1317 20.8839 15.3661C21.1183 15.6005 21.25 15.9185 21.25 16.25V25.7328L24.1156 22.8656C24.3502 22.6311 24.6683 22.4993 25 22.4993C25.3317 22.4993 25.6498 22.6311 25.8844 22.8656C26.1189 23.1002 26.2507 23.4183 26.2507 23.75C26.2507 24.0817 26.1189 24.3998 25.8844 24.6344ZM8.27187 10L9.52187 7.5H30.4781L31.7281 10H8.27187Z" fill="currentColor"/>
</svg>
