<svg  viewBox="0 0 24 24" fill="none" xmlns="http://www.w3.org/2000/svg">
<path d="M12 2.25C13.9284 2.25 15.8134 2.82183 17.4168 3.89317C19.0202 4.96452 20.2699 6.48726 21.0078 8.26884C21.7458 10.0504 21.9389 12.0108 21.5627 13.9021C21.1864 15.7934 20.2578 17.5307 18.8943 18.8943C17.5307 20.2579 15.7934 21.1865 13.9021 21.5627C12.0108 21.9389 10.0504 21.7458 8.26883 21.0078C6.48725 20.2699 4.96451 19.0202 3.89317 17.4168C2.82182 15.8134 2.25 13.9284 2.25 12C2.25273 9.41498 3.28083 6.93661 5.10872 5.10872C6.93661 3.28084 9.41497 2.25273 12 2.25ZM9.21937 12.5306L12.9694 16.2806C13.0391 16.3503 13.1218 16.4056 13.2128 16.4433C13.3039 16.481 13.4015 16.5004 13.5 16.5004C13.5985 16.5004 13.6961 16.481 13.7872 16.4433C13.8782 16.4056 13.9609 16.3503 14.0306 16.2806C14.1003 16.2109 14.1556 16.1282 14.1933 16.0372C14.231 15.9461 14.2504 15.8485 14.2504 15.75C14.2504 15.6515 14.231 15.5539 14.1933 15.4628C14.1556 15.3718 14.1003 15.2891 14.0306 15.2194L10.8103 12L14.0306 8.78063C14.1714 8.63989 14.2504 8.44902 14.2504 8.25C14.2504 8.05098 14.1714 7.86011 14.0306 7.71937C13.8899 7.57864 13.699 7.49958 13.5 7.49958C13.301 7.49958 13.1101 7.57864 12.9694 7.71937L9.21937 11.4694C9.14964 11.539 9.09432 11.6217 9.05658 11.7128C9.01883 11.8038 8.99941 11.9014 8.99941 12C8.99941 12.0986 9.01883 12.1962 9.05658 12.2872C9.09432 12.3783 9.14964 12.461 9.21937 12.5306Z" fill="currentColor"/>
</svg>
