<svg viewBox="0 0 40 40" fill="none" xmlns="http://www.w3.org/2000/svg">
<path d="M21.1187 13.1909C21.015 12.9829 20.8554 12.8079 20.6578 12.6856C20.4601 12.5633 20.2323 12.4985 19.9999 12.4985C19.7675 12.4985 19.5397 12.5633 19.3421 12.6856C19.1444 12.8079 18.9848 12.9829 18.8812 13.1909L7.63116 35.6909C7.4828 35.9874 7.45831 36.3307 7.56307 36.6453C7.66782 36.9598 7.89325 37.2199 8.18975 37.3683C8.48626 37.5166 8.82955 37.5411 9.14411 37.4363C9.45867 37.3316 9.71874 37.1062 9.8671 36.8097L12.0312 32.5003H27.9843L30.139 36.8097C30.2423 37.0162 30.4008 37.19 30.5969 37.3119C30.793 37.4338 31.019 37.499 31.2499 37.5003C31.463 37.5002 31.6724 37.4456 31.8585 37.3418C32.0445 37.2379 32.2009 37.0883 32.3128 36.907C32.4248 36.7257 32.4885 36.5188 32.498 36.306C32.5075 36.0932 32.4624 35.8814 32.3671 35.6909L21.1187 13.1909ZM19.9999 16.5456L24.228 25.0003H15.7718L19.9999 16.5456ZM24.9202 14.6472C25.049 13.9274 25.0183 13.1882 24.8304 12.4816C24.6424 11.775 24.3018 11.1182 23.8325 10.5575C23.3633 9.99686 22.7767 9.54592 22.1142 9.23651C21.4518 8.9271 20.7295 8.76674 19.9983 8.76674C19.2672 8.76674 18.5449 8.9271 17.8825 9.23651C17.22 9.54592 16.6334 9.99686 16.1641 10.5575C15.6949 11.1182 15.3542 11.775 15.1663 12.4816C14.9784 13.1882 14.9477 13.9274 15.0765 14.6472C15.1098 14.8103 15.1102 14.9785 15.0777 15.1418C15.0452 15.3051 14.9803 15.4603 14.887 15.5982C14.7936 15.7361 14.6737 15.8539 14.5342 15.9448C14.3946 16.0357 14.2384 16.0979 14.0745 16.1275C13.9107 16.1572 13.7425 16.1538 13.58 16.1176C13.4174 16.0814 13.2638 16.0131 13.128 15.9167C12.9922 15.8202 12.8771 15.6977 12.7894 15.5561C12.7016 15.4146 12.6431 15.257 12.6171 15.0925C12.4212 14.0119 12.465 12.9014 12.7454 11.8396C13.0258 10.7777 13.5359 9.79045 14.2398 8.94746C14.9437 8.10446 15.8242 7.42634 16.8189 6.96101C17.8137 6.49568 18.8986 6.25449 19.9968 6.25449C21.095 6.25449 22.1798 6.49568 23.1746 6.96101C24.1694 7.42634 25.0498 8.10446 25.7537 8.94746C26.4576 9.79045 26.9678 10.7777 27.2482 11.8396C27.5286 12.9014 27.5724 14.0119 27.3765 15.0925C27.3245 15.3805 27.1731 15.6412 26.9487 15.8291C26.7243 16.017 26.441 16.1201 26.1483 16.1206C26.0734 16.12 25.9987 16.1132 25.9249 16.1003C25.5991 16.0406 25.3103 15.8541 25.1219 15.5816C24.9335 15.3092 24.861 14.9731 24.9202 14.6472ZM10.0233 21.2831C8.62273 19.4277 7.76726 17.2185 7.55308 14.9036C7.33889 12.5888 7.77447 10.2601 8.81086 8.17922C9.84726 6.09832 11.4434 4.34766 13.42 3.12394C15.3965 1.90023 17.6752 1.25195 19.9999 1.25195C22.3246 1.25195 24.6033 1.90023 26.5798 3.12394C28.5564 4.34766 30.1526 6.09832 31.189 8.17922C32.2253 10.2601 32.6609 12.5888 32.4467 14.9036C32.2326 17.2185 31.3771 19.4277 29.9765 21.2831C29.7745 21.5418 29.4789 21.7107 29.1535 21.7534C28.8281 21.796 28.4989 21.7089 28.2371 21.5109C27.9754 21.313 27.8019 21.02 27.7543 20.6952C27.7067 20.3705 27.7888 20.0401 27.9827 19.7753C29.1027 18.2908 29.7866 16.5235 29.9576 14.6719C30.1285 12.8202 29.7798 10.9575 28.9506 9.2931C28.1213 7.62868 26.8444 6.22845 25.2633 5.24969C23.6822 4.27094 21.8595 3.75244 19.9999 3.75244C18.1404 3.75244 16.3176 4.27094 14.7365 5.24969C13.1554 6.22845 11.8785 7.62868 11.0493 9.2931C10.22 10.9575 9.87129 12.8202 10.0423 14.6719C10.2132 16.5235 10.8971 18.2908 12.0171 19.7753C12.211 20.0401 12.2931 20.3705 12.2455 20.6952C12.1979 21.02 12.0245 21.313 11.7627 21.5109C11.5009 21.7089 11.1718 21.796 10.8463 21.7534C10.5209 21.7107 10.2253 21.5418 10.0233 21.2831Z" fill="currentColor"/>
</svg>
