<svg viewBox="0 0 40 40" fill="none" xmlns="http://www.w3.org/2000/svg">
<path d="M35 18.7508V33.7508C35 34.0823 34.8683 34.4003 34.6339 34.6347C34.3995 34.8691 34.0815 35.0008 33.75 35.0008H25C24.6685 35.0008 24.3505 34.8691 24.1161 34.6347C23.8817 34.4003 23.75 34.0823 23.75 33.7508V25.6258C23.75 25.46 23.6842 25.3011 23.5669 25.1839C23.4497 25.0666 23.2908 25.0008 23.125 25.0008H16.875C16.7092 25.0008 16.5503 25.0666 16.4331 25.1839C16.3158 25.3011 16.25 25.46 16.25 25.6258V33.7508C16.25 34.0823 16.1183 34.4003 15.8839 34.6347C15.6495 34.8691 15.3315 35.0008 15 35.0008H6.25C5.91848 35.0008 5.60054 34.8691 5.36612 34.6347C5.1317 34.4003 5 34.0823 5 33.7508V18.7508C5.00031 18.0879 5.2639 17.4522 5.73281 16.9836L18.2328 4.48361C18.7016 4.01512 19.3372 3.75195 20 3.75195C20.6628 3.75195 21.2984 4.01512 21.7672 4.48361L34.2672 16.9836C34.7361 17.4522 34.9997 18.0879 35 18.7508Z" fill="currentColor"/>
</svg>
