<svg viewBox="0 0 40 40" fill="none" xmlns="http://www.w3.org/2000/svg">
<path d="M32.5 5H7.5C6.83696 5 6.20107 5.26339 5.73223 5.73223C5.26339 6.20107 5 6.83696 5 7.5V32.5C5 33.163 5.26339 33.7989 5.73223 34.2678C6.20107 34.7366 6.83696 35 7.5 35H32.5C33.163 35 33.7989 34.7366 34.2678 34.2678C34.7366 33.7989 35 33.163 35 32.5V7.5C35 6.83696 34.7366 6.20107 34.2678 5.73223C33.7989 5.26339 33.163 5 32.5 5ZM12.5 32.5H7.5V7.5H12.5V32.5ZM27.5 23.75H17.5C17.1685 23.75 16.8505 23.6183 16.6161 23.3839C16.3817 23.1495 16.25 22.8315 16.25 22.5C16.25 22.1685 16.3817 21.8505 16.6161 21.6161C16.8505 21.3817 17.1685 21.25 17.5 21.25H27.5C27.8315 21.25 28.1495 21.3817 28.3839 21.6161C28.6183 21.8505 28.75 22.1685 28.75 22.5C28.75 22.8315 28.6183 23.1495 28.3839 23.3839C28.1495 23.6183 27.8315 23.75 27.5 23.75ZM27.5 18.75H17.5C17.1685 18.75 16.8505 18.6183 16.6161 18.3839C16.3817 18.1495 16.25 17.8315 16.25 17.5C16.25 17.1685 16.3817 16.8505 16.6161 16.6161C16.8505 16.3817 17.1685 16.25 17.5 16.25H27.5C27.8315 16.25 28.1495 16.3817 28.3839 16.6161C28.6183 16.8505 28.75 17.1685 28.75 17.5C28.75 17.8315 28.6183 18.1495 28.3839 18.3839C28.1495 18.6183 27.8315 18.75 27.5 18.75Z" fill="currentColor"/>
</svg>
