<svg viewBox="0 0 40 40" fill="none" xmlns="http://www.w3.org/2000/svg">
<path d="M36.25 32.5C36.25 32.8315 36.1183 33.1495 35.8839 33.3839C35.6495 33.6183 35.3315 33.75 35 33.75H5C4.66848 33.75 4.35054 33.6183 4.11612 33.3839C3.8817 33.1495 3.75 32.8315 3.75 32.5C3.75 32.1685 3.8817 31.8505 4.11612 31.6161C4.35054 31.3817 4.66848 31.25 5 31.25H35C35.3315 31.25 35.6495 31.3817 35.8839 31.6161C36.1183 31.8505 36.25 32.1685 36.25 32.5ZM36.25 8.75V26.25C36.25 26.913 35.9866 27.5489 35.5178 28.0178C35.0489 28.4866 34.413 28.75 33.75 28.75H6.25C5.58696 28.75 4.95107 28.4866 4.48223 28.0178C4.01339 27.5489 3.75 26.913 3.75 26.25V8.75C3.75 8.08696 4.01339 7.45107 4.48223 6.98223C4.95107 6.51339 5.58696 6.25 6.25 6.25H33.75C34.413 6.25 35.0489 6.51339 35.5178 6.98223C35.9866 7.45107 36.25 8.08696 36.25 8.75ZM25.625 17.5C25.6249 17.2992 25.5765 17.1013 25.4837 16.9231C25.391 16.745 25.2567 16.5918 25.0922 16.4766L18.8422 12.1016C18.6549 11.9704 18.4352 11.8931 18.207 11.878C17.9789 11.863 17.7509 11.9109 17.5481 12.0164C17.3452 12.122 17.1752 12.2811 17.0565 12.4766C16.9379 12.6721 16.8751 12.8963 16.875 13.125V21.875C16.8751 22.1037 16.9379 22.3279 17.0565 22.5234C17.1752 22.7189 17.3452 22.878 17.5481 22.9836C17.7509 23.0891 17.9789 23.137 18.207 23.122C18.4352 23.1069 18.6549 23.0296 18.8422 22.8984L25.0922 18.5234C25.2567 18.4082 25.391 18.255 25.4837 18.0769C25.5765 17.8987 25.6249 17.7008 25.625 17.5Z" fill="currentColor"/>
</svg>
