<svg viewBox="0 0 40 40" fill="none" xmlns="http://www.w3.org/2000/svg">
<path d="M33.75 6.25H6.25C5.58696 6.25 4.95107 6.51339 4.48223 6.98223C4.01339 7.45107 3.75 8.08696 3.75 8.75V31.25C3.75 31.913 4.01339 32.5489 4.48223 33.0178C4.95107 33.4866 5.58696 33.75 6.25 33.75H33.75C34.413 33.75 35.0489 33.4866 35.5178 33.0178C35.9866 32.5489 36.25 31.913 36.25 31.25V8.75C36.25 8.08696 35.9866 7.45107 35.5178 6.98223C35.0489 6.51339 34.413 6.25 33.75 6.25ZM11.25 23.75C11.25 24.0815 11.1183 24.3995 10.8839 24.6339C10.6495 24.8683 10.3315 25 10 25C9.66848 25 9.35054 24.8683 9.11612 24.6339C8.8817 24.3995 8.75 24.0815 8.75 23.75V16.25C8.75 15.9185 8.8817 15.6005 9.11612 15.3661C9.35054 15.1317 9.66848 15 10 15C10.3315 15 10.6495 15.1317 10.8839 15.3661C11.1183 15.6005 11.25 15.9185 11.25 16.25V23.75ZM16.25 28.75C16.25 29.0815 16.1183 29.3995 15.8839 29.6339C15.6495 29.8683 15.3315 30 15 30C14.6685 30 14.3505 29.8683 14.1161 29.6339C13.8817 29.3995 13.75 29.0815 13.75 28.75V11.25C13.75 10.9185 13.8817 10.6005 14.1161 10.3661C14.3505 10.1317 14.6685 10 15 10C15.3315 10 15.6495 10.1317 15.8839 10.3661C16.1183 10.6005 16.25 10.9185 16.25 11.25V28.75ZM21.25 26.25C21.25 26.5815 21.1183 26.8995 20.8839 27.1339C20.6495 27.3683 20.3315 27.5 20 27.5C19.6685 27.5 19.3505 27.3683 19.1161 27.1339C18.8817 26.8995 18.75 26.5815 18.75 26.25V13.75C18.75 13.4185 18.8817 13.1005 19.1161 12.8661C19.3505 12.6317 19.6685 12.5 20 12.5C20.3315 12.5 20.6495 12.6317 20.8839 12.8661C21.1183 13.1005 21.25 13.4185 21.25 13.75V26.25ZM26.25 23.75C26.25 24.0815 26.1183 24.3995 25.8839 24.6339C25.6495 24.8683 25.3315 25 25 25C24.6685 25 24.3505 24.8683 24.1161 24.6339C23.8817 24.3995 23.75 24.0815 23.75 23.75V16.25C23.75 15.9185 23.8817 15.6005 24.1161 15.3661C24.3505 15.1317 24.6685 15 25 15C25.3315 15 25.6495 15.1317 25.8839 15.3661C26.1183 15.6005 26.25 15.9185 26.25 16.25V23.75ZM31.25 25C31.25 25.3315 31.1183 25.6495 30.8839 25.8839C30.6495 26.1183 30.3315 26.25 30 26.25C29.6685 26.25 29.3505 26.1183 29.1161 25.8839C28.8817 25.6495 28.75 25.3315 28.75 25V15C28.75 14.6685 28.8817 14.3505 29.1161 14.1161C29.3505 13.8817 29.6685 13.75 30 13.75C30.3315 13.75 30.6495 13.8817 30.8839 14.1161C31.1183 14.3505 31.25 14.6685 31.25 15V25Z" fill="currentColor"/>
</svg>
