<svg width="28" height="28" viewBox="0 0 28 28" fill="none" xmlns="http://www.w3.org/2000/svg">
<path d="M25.375 9.625H23.625V7C23.625 6.53587 23.4406 6.09075 23.1124 5.76256C22.7842 5.43437 22.3391 5.25 21.875 5.25H5.25C4.78587 5.25 4.34075 5.43437 4.01256 5.76256C3.68437 6.09075 3.5 6.53587 3.5 7V9.625H1.75C1.51794 9.625 1.29538 9.71719 1.13128 9.88128C0.967187 10.0454 0.875 10.2679 0.875 10.5C0.875 10.7321 0.967187 10.9546 1.13128 11.1187C1.29538 11.2828 1.51794 11.375 1.75 11.375H3.5V14C3.5 14.4641 3.68437 14.9092 4.01256 15.2374C4.34075 15.5656 4.78587 15.75 5.25 15.75H21.875C22.3391 15.75 22.7842 15.5656 23.1124 15.2374C23.4406 14.9092 23.625 14.4641 23.625 14V11.375H25.375V16.8438L14.3938 19.9773C14.0294 20.0828 13.709 20.3033 13.4804 20.6059C13.2517 20.9085 13.127 21.277 13.125 21.6562V25.375C13.125 25.6071 13.2172 25.8296 13.3813 25.9937C13.5454 26.1578 13.7679 26.25 14 26.25C14.2321 26.25 14.4546 26.1578 14.6187 25.9937C14.7828 25.8296 14.875 25.6071 14.875 25.375V21.6562L25.8562 18.5194C26.22 18.414 26.5401 18.194 26.7687 17.8921C26.9973 17.5902 27.1223 17.2225 27.125 16.8438V11.375C27.125 10.9109 26.9406 10.4658 26.6124 10.1376C26.2842 9.80937 25.8391 9.625 25.375 9.625ZM21.875 14H5.25V7H21.875V14Z" fill="currentColor"/>
</svg>
