<svg viewBox="0 0 24 24" fill="none" xmlns="http://www.w3.org/2000/svg">
<path d="M12 2.25C13.9284 2.25 15.8134 2.82183 17.4168 3.89317C19.0202 4.96451 20.2699 6.48726 21.0078 8.26884C21.7458 10.0504 21.9389 12.0108 21.5627 13.9021C21.1864 15.7934 20.2578 17.5307 18.8943 18.8943C17.5307 20.2579 15.7934 21.1865 13.9021 21.5627C12.0108 21.9389 10.0504 21.7458 8.26883 21.0078C6.48725 20.2699 4.96451 19.0202 3.89317 17.4168C2.82182 15.8134 2.25 13.9284 2.25 12C2.25273 9.41498 3.28083 6.93661 5.10872 5.10872C6.93661 3.28084 9.41497 2.25273 12 2.25ZM12 20.25C13.6317 20.25 15.2267 19.7661 16.5835 18.8596C17.9402 17.9531 18.9976 16.6646 19.622 15.1571C20.2464 13.6496 20.4098 11.9908 20.0915 10.3905C19.7731 8.79016 18.9874 7.32015 17.8336 6.16637C16.6798 5.01259 15.2098 4.22685 13.6095 3.90852C12.0091 3.59019 10.3503 3.75357 8.84286 4.37799C7.33537 5.00242 6.04689 6.05984 5.14037 7.41655C4.23385 8.77325 3.75 10.3683 3.75 12C3.75248 14.1873 4.62247 16.2843 6.16911 17.8309C7.71574 19.3775 9.81272 20.2475 12 20.25ZM9.96937 8.78063L13.1897 12L9.96937 15.2194C9.89969 15.2891 9.84441 15.3718 9.8067 15.4628C9.76899 15.5539 9.74958 15.6515 9.74958 15.75C9.74958 15.8485 9.76899 15.9461 9.8067 16.0372C9.84441 16.1282 9.89969 16.2109 9.96937 16.2806C10.0391 16.3503 10.1218 16.4056 10.2128 16.4433C10.3039 16.481 10.4014 16.5004 10.5 16.5004C10.5985 16.5004 10.6961 16.481 10.7872 16.4433C10.8782 16.4056 10.9609 16.3503 11.0306 16.2806L14.7806 12.5306C14.8504 12.461 14.9057 12.3783 14.9434 12.2872C14.9812 12.1962 15.0006 12.0986 15.0006 12C15.0006 11.9014 14.9812 11.8038 14.9434 11.7128C14.9057 11.6217 14.8504 11.539 14.7806 11.4694L11.0306 7.71937C10.9609 7.64969 10.8782 7.59442 10.7872 7.5567C10.6961 7.51899 10.5985 7.49958 10.5 7.49958C10.4014 7.49958 10.3039 7.51899 10.2128 7.5567C10.1218 7.59442 10.0391 7.64969 9.96937 7.71937C9.89969 7.78906 9.84441 7.87178 9.8067 7.96283C9.76899 8.05387 9.74958 8.15145 9.74958 8.25C9.74958 8.34855 9.76899 8.44613 9.8067 8.53717C9.84441 8.62822 9.89969 8.71094 9.96937 8.78063Z" fill="currentColor"/>
</svg>
