<svg viewBox="0 0 40 40" fill="none" xmlns="http://www.w3.org/2000/svg">
<path d="M34.2672 16.9817L21.7672 4.48165C21.2984 4.01317 20.6628 3.75 20 3.75C19.3373 3.75 18.7016 4.01317 18.2328 4.48165L5.73283 16.9817C5.49955 17.2132 5.31464 17.4888 5.18883 17.7925C5.06303 18.0961 4.99885 18.4217 5.00002 18.7504V33.7504C5.00002 34.0819 5.13171 34.3999 5.36613 34.6343C5.60055 34.8687 5.91849 35.0004 6.25002 35.0004H16.25C16.5815 35.0004 16.8995 34.8687 17.1339 34.6343C17.3683 34.3999 17.5 34.0819 17.5 33.7504V25.0004H22.5V33.7504C22.5 34.0819 22.6317 34.3999 22.8661 34.6343C23.1006 34.8687 23.4185 35.0004 23.75 35.0004H33.75C34.0815 35.0004 34.3995 34.8687 34.6339 34.6343C34.8683 34.3999 35 34.0819 35 33.7504V18.7504C35.0012 18.4217 34.937 18.0961 34.8112 17.7925C34.6854 17.4888 34.5005 17.2132 34.2672 16.9817ZM32.5 32.5004H25V23.7504C25 23.4189 24.8683 23.1009 24.6339 22.8665C24.3995 22.6321 24.0815 22.5004 23.75 22.5004H16.25C15.9185 22.5004 15.6006 22.6321 15.3661 22.8665C15.1317 23.1009 15 23.4189 15 23.7504V32.5004H7.50002V18.7504L20 6.2504L32.5 18.7504V32.5004Z" fill="currentColor"/>
</svg>
