<svg viewBox="0 0 40 40" fill="none" xmlns="http://www.w3.org/2000/svg">
<path d="M35.8842 34.115L28.0608 26.2931C30.3284 23.5708 31.4591 20.0791 31.2177 16.5443C30.9764 13.0095 29.3816 9.70384 26.7651 7.31496C24.1486 4.92608 20.7118 3.6379 17.1697 3.7184C13.6276 3.7989 10.2529 5.24188 7.74765 7.74716C5.24237 10.2524 3.79939 13.6271 3.71889 17.1692C3.63839 20.7113 4.92657 24.1481 7.31545 26.7646C9.70433 29.3811 13.01 30.9759 16.5448 31.2173C20.0795 31.4586 23.5713 30.3279 26.2936 28.0603L34.1155 35.8838C34.2316 35.9999 34.3695 36.092 34.5213 36.1549C34.673 36.2177 34.8356 36.2501 34.9999 36.2501C35.1641 36.2501 35.3268 36.2177 35.4785 36.1549C35.6302 36.092 35.7681 35.9999 35.8842 35.8838C36.0004 35.7676 36.0925 35.6297 36.1554 35.478C36.2182 35.3263 36.2506 35.1636 36.2506 34.9994C36.2506 34.8351 36.2182 34.6725 36.1554 34.5208C36.0925 34.369 36.0004 34.2311 35.8842 34.115ZM6.24987 17.4994C6.24987 15.2743 6.90967 13.0993 8.14584 11.2492C9.382 9.39916 11.139 7.95722 13.1947 7.10574C15.2503 6.25425 17.5123 6.03146 19.6946 6.46555C21.8769 6.89963 23.8815 7.97109 25.4548 9.54443C27.0282 11.1178 28.0996 13.1223 28.5337 15.3046C28.9678 17.4869 28.745 19.7489 27.8935 21.8046C27.042 23.8602 25.6001 25.6173 23.75 26.8534C21.9 28.0896 19.7249 28.7494 17.4999 28.7494C14.5172 28.7461 11.6576 27.5597 9.54857 25.4507C7.4395 23.3416 6.25318 20.4821 6.24987 17.4994Z" fill="currentColor"/>
</svg>
