<svg viewBox="0 0 40 40" fill="none" xmlns="http://www.w3.org/2000/svg">
<path d="M8.75 15V25C8.75 25.3315 8.6183 25.6495 8.38388 25.8839C8.14946 26.1183 7.83152 26.25 7.5 26.25C7.16848 26.25 6.85054 26.1183 6.61612 25.8839C6.3817 25.6495 6.25 25.3315 6.25 25V15C6.25 14.6685 6.3817 14.3505 6.61612 14.1161C6.85054 13.8817 7.16848 13.75 7.5 13.75C7.83152 13.75 8.14946 13.8817 8.38388 14.1161C8.6183 14.3505 8.75 14.6685 8.75 15ZM13.75 3.75C13.4185 3.75 13.1005 3.8817 12.8661 4.11612C12.6317 4.35054 12.5 4.66848 12.5 5V35C12.5 35.3315 12.6317 35.6495 12.8661 35.8839C13.1005 36.1183 13.4185 36.25 13.75 36.25C14.0815 36.25 14.3995 36.1183 14.6339 35.8839C14.8683 35.6495 15 35.3315 15 35V5C15 4.66848 14.8683 4.35054 14.6339 4.11612C14.3995 3.8817 14.0815 3.75 13.75 3.75ZM20 8.75C19.6685 8.75 19.3505 8.8817 19.1161 9.11612C18.8817 9.35054 18.75 9.66848 18.75 10V30C18.75 30.3315 18.8817 30.6495 19.1161 30.8839C19.3505 31.1183 19.6685 31.25 20 31.25C20.3315 31.25 20.6495 31.1183 20.8839 30.8839C21.1183 30.6495 21.25 30.3315 21.25 30V10C21.25 9.66848 21.1183 9.35054 20.8839 9.11612C20.6495 8.8817 20.3315 8.75 20 8.75ZM26.25 13.75C25.9185 13.75 25.6005 13.8817 25.3661 14.1161C25.1317 14.3505 25 14.6685 25 15V25C25 25.3315 25.1317 25.6495 25.3661 25.8839C25.6005 26.1183 25.9185 26.25 26.25 26.25C26.5815 26.25 26.8995 26.1183 27.1339 25.8839C27.3683 25.6495 27.5 25.3315 27.5 25V15C27.5 14.6685 27.3683 14.3505 27.1339 14.1161C26.8995 13.8817 26.5815 13.75 26.25 13.75ZM32.5 11.25C32.1685 11.25 31.8505 11.3817 31.6161 11.6161C31.3817 11.8505 31.25 12.1685 31.25 12.5V27.5C31.25 27.8315 31.3817 28.1495 31.6161 28.3839C31.8505 28.6183 32.1685 28.75 32.5 28.75C32.8315 28.75 33.1495 28.6183 33.3839 28.3839C33.6183 28.1495 33.75 27.8315 33.75 27.5V12.5C33.75 12.1685 33.6183 11.8505 33.3839 11.6161C33.1495 11.3817 32.8315 11.25 32.5 11.25Z" fill="currentColor"/>
</svg>
